<svg xmlns="http://www.w3.org/2000/svg" viewBox="0 0 368 200"><defs><style>.cls-1{isolation:isolate;}.cls-2{fill:#d8d8d8;}.cls-3{fill:#006a88;}.cls-10,.cls-4{fill:#bdc2cd;}.cls-4,.cls-9{mix-blend-mode:multiply;}.cls-5{fill:#5c687b;}.cls-6{fill:#404041;}.cls-7{fill:#58595b;}.cls-8{fill:#283042;}.cls-11{fill:#02b2a6;}.cls-12{fill:#0b5fa4;}.cls-13{fill:#f19357;}.cls-14{fill:#20998d;}.cls-15{fill:#9db2ba;}.cls-16{fill:#593c31;}.cls-17{fill:#704b3e;}.cls-18{opacity:0.1;}.cls-19{fill:#bcbcbc;}.cls-20,.cls-21,.cls-22{fill:#f4f4f4;}.cls-21{opacity:0.3;}.cls-22{opacity:0.6;}.cls-23{fill:#f26b1f;}.cls-24{fill:#b35722;}.cls-25{fill:#668640;}.cls-26{fill:#80a850;}.cls-27{fill:#0d0f22;}.cls-28{fill:#073640;}.cls-29{fill:#0f5f6e;}.cls-30{fill:#015f75;}.cls-31{fill:#0f4f5c;}.cls-32{fill:#aeaeaf;}.cls-33{fill:#19365e;}.cls-34{fill:#f29258;}.cls-35{fill:#a6a8ab;}.cls-36,.cls-37,.cls-38{fill:none;stroke:#fff;stroke-linejoin:round;}.cls-36,.cls-37{stroke-width:0.6284px;}.cls-37,.cls-38{stroke-linecap:round;}.cls-38{stroke-width:0.5853px;}</style></defs><g className="cls-1"><g id="Layer_1" data-name="Layer 1"><rect className="cls-2" x="-0.0476" y="-0.0173" width="368.0951" height="200.0345"/><path className="cls-3" d="M298.9866,91.1613l-6.3189,66.0269c0,5.1768-3.4029,9.3736-7.5992,9.3736H223.4059c-4.1955,0-7.5992-4.1968-7.5992-9.3736l5.6177-68.5114Z"/><path className="cls-3" d="M227.5855,81.6223h8.8029V96.427h-8.8029c-3.3548,0-6.0717-3.3113-6.0717-7.4009S224.2307,81.6223,227.5855,81.6223Z"/><path className="cls-3" d="M232.9723,89.0261c0-3.8619-2.4255-7.0295-5.52-7.3683a5.2737,5.2737,0,0,1,.5493-.0355h68.9761c3.3526,0,6.07,3.3152,6.07,7.4038s-2.7172,7.4009-6.07,7.4009H228.0012a4.9163,4.9163,0,0,1-.5493-.0343C230.5468,96.0543,232.9723,92.888,232.9723,89.0261Z"/><path className="cls-4" d="M229.09,114.5918a.884.884,0,0,0,.7686.9673h58.4627a.8865.8865,0,0,0,.7709-.9673h0a.8859.8859,0,0,0-.7709-.9662H229.8584a.8834.8834,0,0,0-.7686.9662Z"/><path className="cls-4" d="M227.3535,129.799a.8855.8855,0,0,0,.7709.9653h58.4619a.8842.8842,0,0,0,.771-.9653h0a.8846.8846,0,0,0-.771-.9654H228.1244a.8858.8858,0,0,0-.7709.9654Z"/><path className="cls-5" d="M199.128,184.0315c0,7.6884,9.5463,7.9957,21.2756,8.73,11.3531.7078,6.8135,8.7284,20.2462,8.7284h11.553c4.3206-2.5067,2.9884-8.4989,9.8476-8.7284,12.6339-.4264,18.2116-1.9045,17.5856-7.8746Z"/><path className="cls-6" d="M199.128,184.0315c0,7.6884,9.5463,7.9957,21.2756,8.73,11.3531.7078,6.8135,8.7284,20.2462,8.7284h11.553c5.1752-2.4309,2.4879-8.482,9.8476-8.7284,12.6339-.4264,18.2116-1.9045,17.5856-7.8746Z"/><path className="cls-7" d="M244.9352,207.5726v-6.8471c0-3.0123,2.0028-5.4536,4.4733-5.4536s4.4721,2.4413,4.4721,5.4536v6.8471Z"/><path className="cls-7" d="M247.4967,206.4324a10.6093,10.6093,0,0,0-.3107,1.14h-2.2508v-6.8471c0-3.0123,2.0028-5.4536,4.4733-5.4536s4.4721,2.4413,4.4721,5.4536v3.84c-.9634.5492-3.7613.5227-4.3129.5364A2.0926,2.0926,0,0,0,247.4967,206.4324Z"/><path className="cls-6" d="M209.9535,184.0315c0,7.6884,9.5474,7.9957,21.2751,8.73,11.3532.7078,6.8136,8.7284,20.2466,8.7284s11.33-8.3913,21.4019-8.7284c12.6319-.4264,18.21-1.9045,17.5836-7.8746Z"/><path className="cls-8" d="M198.5264,184.0315c0,2.8325,1.8859,5.1331,4.211,5.1331h72.0859c2.3248,0,4.2107-2.3006,4.2107-5.1331h0c0-2.8362-1.8859-5.1344-4.2107-5.1344H202.7374c-2.3251,0-4.211,2.2982-4.211,5.1344Z"/><path className="cls-4" d="M198.5264,184.0315c0,2.8325,1.8859,5.1331,4.211,5.1331h72.0859c2.3248,0,4.2107-2.3006,4.2107-5.1331h0c0-2.8362-1.8859-5.1344-4.2107-5.1344H202.7374c-2.3251,0-4.211,2.2982-4.211,5.1344Z"/><path className="cls-3" d="M209.9535,184.0315c0,2.8325,1.8847,5.1331,4.21,5.1331h72.0875c2.3259,0,4.21-2.3006,4.21-5.1331h0c0-2.8362-1.8843-5.1344-4.21-5.1344H214.163c-2.3248,0-4.21,2.2982-4.21,5.1344Z"/><path className="cls-3" d="M258.221,176.6506h-6.6985l2.0276-16.954c.2635-2.2107,1.9471-3.7385,3.7578-3.4159s3.0647,2.3715,2.8,4.5822Z"/><g className="cls-9"><path className="cls-10" d="M269.9824,97.9354A1.0376,1.0376,0,0,0,270.5,97.8a.9433.9433,0,0,0,.0127-.1157,1.0536,1.0536,0,0,0-.0742-.3944.5893.5893,0,0,1-.8555-.4214l-.05-.2412c-.0229-.0015-.0444-.0069-.0673-.0073a1.0437,1.0437,0,0,0-.5171.1361,1.081,1.081,0,0,0-.0127.1153A1.0554,1.0554,0,0,0,269.9824,97.9354Z"/></g><path className="cls-11" d="M196.2791,157.8343S218.58,152.383,227.2918,145.44c3.6751-2.9293,4.4454-4.9557,4.4454-4.9557-1.86-4.6564-6.3-8.2849-9.3006-9.0675a3.2155,3.2155,0,0,0-3.5941-.0442l-9.6883,5.758-16.9133,12.6445Z"/><path className="cls-11" d="M233.24,97.0472s3.7659-9.487,25.2154-13.7755c10.7039-2.1417-2.5319,28.3974-2.5319,28.3974Z"/><path className="cls-11" d="M249.5641,103.1568s-11.6116,33.7211-21.93,41.9618c-10.3162,8.2432-11.5159-6.5062-11.5159-6.5062L233.24,97.05Z"/><path className="cls-11" d="M270.7553,86.5842l-11.3589-3.7855s-3.3979,11.516,11.3589,3.7855"/><path className="cls-12" d="M263.025,186.5483s29.5718-7.2928,11.9575-33.6268l-6.4763-9.5727-34.1714,3.4019-8.8261,23.5Z"/><path className="cls-12" d="M257.0979,152.0228,188.337,160.974c-6.6529,1.7271-13.7907,10.8107-9.1193,24.5916l83.8073.9827Z"/><path className="cls-12" d="M177.5888,177.4663l-3.8713,67.7756,14.735-.84s16.9514-34.8788,12.9709-58.861c-3.9832-23.9844-23.8346-8.075-23.8346-8.075"/><path className="cls-12" d="M204.0782,174.018l-3.8713,67.7755,14.7349-.8395s16.9515-34.8789,12.971-58.8611c-3.9832-23.9843-23.8346-8.0749-23.8346-8.0749"/><path className="cls-13" d="M243.3059,74.4343l5,15.039,12.2765-6.283c-2.2693-2.9023-5.6353-11.7343-5.5887-11.7785-1.2855-3.6628-5.2918-1.19-8.2579,1.315Z"/><path className="cls-14" d="M237.3389,119.5239l-1.9945-15.4069s-5.81,8.518-6.5357,13.7755c-.9176,6.6559,5.0759,19.7592,5.0759,19.7592,4.0554-4.7154.3607-13.7019,3.4543-18.1278"/><path className="cls-11" d="M283.5146,101.1205s12.2888,30.5391,11.0867,43.689c-1.2,13.15-12.6715,3.8027-12.6715,3.8027L265.08,105.036Z"/><path className="cls-11" d="M270.7553,86.5842c4.5755,2.051,12.306,1.5775,20.8264,38.4953l-15.4634,8.994c-2.7747-7.5808-7.63-16.68-18.9446-41.7657,0,0,6.5381-4.941,13.5816-5.7236"/><path className="cls-11" d="M268.2308,147.1672s14.2515-46.9373-.4219-59.6578C255.7041,77.0115,246.401,102.05,242.5738,99.8055c-.2158-.1276-9.5066,12.9708-10.9958,15.748a4.9253,4.9253,0,0,0-.5667,1.83,10.3917,10.3917,0,0,0,4.4724,9.9925l-1.2169,19.1606s33.8168.9249,33.964.6305"/><path className="cls-14" d="M270.0024,139.8427c.1668-.0613,2.8631-12.86,2.8851-13.55L265.2331,108.04Z"/><polygon className="cls-15" points="234.311 146.683 268.074 147.956 269.178 144.642 234.311 143.381 234.311 146.683"/><path className="cls-13" d="M260.561,83.1905l-5.2575,8.0715a18.5863,18.5863,0,0,1-1.8621,2.3846c-5.1618,5.5618-14.0478,5.5961-5.5887-5.8438l.9764.7458Z"/><path className="cls-13" d="M235.3045,68.6714a9.57,9.57,0,0,0,2.2192-1.7266c2.2781-2.5.8785-5.041,2.5164-9.13,1.3938-3.48,5.2841-6.2659,6.4749-7.0367.1138-.0681.2287-.1336.3437-.1992-5.6406,9.4853,5.8754,16.7982,5.8754,16.7982s1.8519-4.2862,5.2334-2.886c2.435,1.0078,3.2427,5.007,1.097,8.4107A4.8042,4.8042,0,0,1,254.6,75.2129s-.5222,4.7262-3.4509,5.8689a30.6278,30.6278,0,0,1-4.48,1.1536c-3.2891.6577-6.4088,1.1-6.4088,1.1-2.5851.1991-3.1908-1.2416-3.2984-2.2719a3.434,3.434,0,0,1,.1837-1.45l.413-1.2237c-.0115.0148-.1153.0309-1.0351-.5652-1.06-.6873.4914-2.2276.4914-2.2276-1.42-.2993-1.8647-1.3116-.8884-2.0542a1.2949,1.2949,0,0,0,.3851-1.7175C233.6226,70.0877,235.3045,68.6714,235.3045,68.6714Z"/><path className="cls-13" d="M226.0423,140.6347c.0369.0185.5669.2466-2.4218-.8733-2.9656-1.1107-8.5143-.8987-8.5143-.8987s-7.6157.7858-8.2908,1.88c-.6729,1.0946.9447.97.9447.97s6.0534-1.053,6.2469-.7419c.12.1935-.0806-.0968-.0806-.0968s-6.5811.2258-8.5328,1.8826c0,0-.8733,1.401,1.3342.9286a70.0709,70.0709,0,0,1,7.2677-.7512l.0807-.0945s-8.7863.74-9.4753,2.2122c-.6866,1.4678,2.38.9793,2.38.9793a45.905,45.905,0,0,1,7.0211-.8664l.29-.2581s-5.7538,1.4955-6.694,2.5c-.9424,1.0047-.62,1.3181.2281,1.1476s6.4659-1.7075,7.5466-1.4817a29.5545,29.5545,0,0,0,3.8021.8457,14.0541,14.0541,0,0,0,4.203-.7673c.583-.33,2.7582-1.1637,3.06-1.4656.03-.03,4.2721-.35,4.39-.4539.4608-.4125-1.3-3.5763-1.2674-4.104a18.9723,18.9723,0,0,0-3.5187-.4931"/><polygon className="cls-16" points="314.614 138.319 327.692 229.666 335.917 229.666 328.098 138.319 314.614 138.319"/><polygon className="cls-17" points="310.762 138.319 323.841 229.666 332.066 229.666 324.246 138.319 310.762 138.319"/><path className="cls-16" d="M82.5451,138.3186,73.94,229.6663h8.97l13.0785-91.3477H84.0389A5.2793,5.2793,0,0,1,82.5451,138.3186Z"/><rect className="cls-16" x="86.316" y="138.3186" width="244.5822" height="33.9389"/><path className="cls-16" d="M116.5509,140.0181l-7.86,89.6482h12.4284l13.0786-91.3477-16.1528,1.7A5.283,5.283,0,0,1,116.5509,140.0181Z"/><polygon className="cls-16" points="277.799 138.319 290.878 229.666 299.103 229.666 291.283 138.319 277.799 138.319"/><polygon className="cls-17" points="273.948 138.319 287.026 229.666 295.251 229.666 287.432 138.319 273.948 138.319"/><path className="cls-17" d="M77.9633,138.3186l-7.8605,91.3477H78.328l13.0785-91.3477H79.4571A5.2793,5.2793,0,0,1,77.9633,138.3186Z"/><rect className="cls-17" x="75.0972" y="138.3186" width="215.3269" height="33.9389"/><rect className="cls-18" x="75.0972" y="138.3186" width="255.539" height="11.7301"/><rect className="cls-19" x="67.3369" y="138.3186" width="273.0823" height="8.9696"/><rect className="cls-20" x="64.9914" y="138.3186" width="235.7305" height="8.9696"/><path className="cls-21" d="M297.425,93.5427c-4.4617.2915-6.583,5.0957-6.26,7.7778.4393,3.6446,3.7642,5.1314,5.2829,6.5378.9.8335,2.7718,6.9042-.0086,9.6062,0,0,6.909-4.2887,4.4423-10.0571-1.2671-2.963-2.3712-6.5558.6012-5.7112C304.9951,102.6942,305.9814,92.9838,297.425,93.5427Z"/><path className="cls-22" d="M294.4187,100.2692c-6.8457-.4472-6.0566,7.3218-3.2467,6.5233,2.3781-.6757,1.4947,2.1988.481,4.5694-1.9736,4.6151,3.5541,8.0463,3.5541,8.0463-2.2245-2.1618-.727-7.0187-.0069-7.6856,1.2151-1.1252,3.8752-2.3147,4.2267-5.2307C299.6855,104.3461,297.9883,100.5024,294.4187,100.2692Z"/><path className="cls-23" d="M302.9738,121.6693c-.03,0-.0591.0017-.0887.0022l.3331-3.75a1.3116,1.3116,0,0,0-1.3064-1.4276H289.4374a1.3115,1.3115,0,0,0-1.3064,1.4276l1.8072,20.3465h11.4727l.5273-5.9365a5.3815,5.3815,0,1,0,1.0356-10.6623Zm0,8.4127a3.02,3.02,0,0,1-.8255-.1153l.5269-5.932c.0983-.01.1978-.0148.2986-.0148a3.0311,3.0311,0,0,1,0,6.0621Z"/><path className="cls-24" d="M302.9738,121.6693c-.03,0-.0591.0017-.0887.0022l.3331-3.75a1.3116,1.3116,0,0,0-1.3064-1.4276h-3.1039a25.88,25.88,0,0,1,.421,4.4847,26.3321,26.3321,0,0,1-.5856,5.0543c-.8731,4.2587-3.1626,8.1553-5.6817,11.64q-.2157.2984-.4336.5955h8.8829l.5273-5.9365a5.3815,5.3815,0,1,0,1.0356-10.6623Zm0,8.4127a3.02,3.02,0,0,1-.8255-.1153l.5269-5.932c.0983-.01.1978-.0148.2986-.0148a3.0311,3.0311,0,0,1,0,6.0621Z"/><path className="cls-25" d="M121.699,115.0061c-.0555-.3862-.1193-.7821-.1985-1.1835-.0769-.402-.1943-.8013-.3128-1.208a12.851,12.851,0,0,0-.4318-1.2159c-.1692-.4027-.3554-.8048-.5386-1.21-.3687-.8108-.7925-1.611-1.148-2.4337-.38-.813-.7745-1.6182-1.1641-2.4074-.4122-.7793-.8339-1.5367-1.2359-2.27-.4292-.72-.85-1.4107-1.252-2.0613l-.2986-.48-.3064-.4561-.58-.8637-.5377-.79c-.1679-.2519-.3407-.4828-.5038-.699-.3229-.4344-.6062-.8106-.8425-1.1179-.4685-.617-.7408-.9642-.7408-.9642l-.3328.2042s.1733.4048.4768,1.1132c.1511.3537.3383.78.555,1.2666.2268.4808.4279,1.0522.68,1.6549l.3849.9435.2023.4961.1907.5195c.2575.6994.529,1.4369.81,2.2.26.77.5267,1.563.8066,2.3624.2453.8135.5191,1.6278.765,2.45.1136.4144.2271.8283.3232,1.2458l.148.6225c.0488.2069.0831.4174.1251.6244.16.83.3364,1.6369.54,2.405.1059.3828.2307.7541.3518,1.117.1192.3634.2494.7158.3829,1.058s.265.6754.3915.9976q.2051.4821.3958.93c.2486.5981.5148,1.1439.7442,1.6312.2395.4872.4518.9125.6474,1.2655.1845.3517.347.6329.46.82l.1775.2964.3893-.0315a3.2245,3.2245,0,0,0,.1178-.33,8.9721,8.9721,0,0,0,.2477-.9457,13.0056,13.0056,0,0,0,.2149-1.4641,16.15,16.15,0,0,0,.069-1.8891A19.6477,19.6477,0,0,0,121.699,115.0061Z"/><path className="cls-26" d="M137.7091,100.7431c-.2149.192-.48.4237-.77.7031-.28.2858-.6043.6052-.9476.9645l-.2636.2749c-.0879.0946-.1725.1943-.2614.2942l-.5475.6225c-.3861.4232-.7519.8965-1.14,1.3832-.39.4866-.7673,1.0053-1.1419,1.54-.3888.5279-.7338,1.0905-1.1,1.6447-.3639.5558-.7334,1.1085-1.1193,1.647a11.9766,11.9766,0,0,0-.9816,1.6551,8.9623,8.9623,0,0,0-.578,1.6985q-.1021.4188-.1768.8207c-.0444.27-.0852.53-.1114.7851a11.265,11.265,0,0,0-.0788,1.4071,9.6532,9.6532,0,0,0,.0717,1.1213,6.4153,6.4153,0,0,0,.129.7431,2.6718,2.6718,0,0,0,.07.2664l.3724.1173s.0787-.0612.2121-.174c.1368-.1114.3229-.2784.5456-.4963.2194-.2173.4831-.4823.749-.7943.2765-.3095.5606-.6649.8525-1.0579.2946-.3918.5836-.8249.8727-1.2879a10.6715,10.6715,0,0,0,.79-1.5013c.107-.2732.2177-.5494.31-.8388s.1714-.59.2594-.8889.1781-.6006.2742-.9014c.091-.3033.197-.6015.3156-.8927.2363-.5831.4656-1.1735.714-1.7416.2458-.57.473-1.143.7249-1.6788l.3536-.8031c.1133-.2648.2441-.51.3579-.76l.3428-.7211c.0561-.1162.1088-.2326.1652-.3434l.1712-.3226c.225-.4213.4222-.8174.6034-1.1659l.5-.8826c.2788-.4917.4354-.78.4354-.78l-.2968-.2538S138.1384,100.3587,137.7091,100.7431Z"/><path className="cls-26" d="M124.9258,110.35c-.0561-.4881-.1262-.9829-.2184-1.4817s-.2-1.0017-.3039-1.5088c-.2183-1.0133-.451-2.0408-.6352-3.0728-.2027-1.0306-.39-2.0619-.6039-3.0731-.2162-1.0113-.4272-2.0049-.6563-2.9632q-.175-.7176-.3437-1.4093c-.1114-.46-.22-.91-.3422-1.346-.2376-.8722-.4526-1.6967-.6677-2.4544-.2206-.757-.4354-1.4469-.6189-2.0589-.18-.6127-.3719-1.1394-.5169-1.5746l-.4686-1.3634-.3793.0932s.0626.5182.172,1.4251c.028.2261.059.4763.0926.7487.0368.2715.0752.5652.1054.8815.068.6308.1369,1.343.2258,2.1156.0811.7745.1509,1.6168.2343,2.5037s.1483,1.8268.2277,2.7945c.0846.9671.1391,1.9721.2247,2.9867l.2152,3.0825c.0595,1.0345.0865,2.0717.0942,3.0941.0069.511.0092,1.0181.0269,1.5172.0205.4987.0476.9908.0883,1.4732.0893.9641.2361,1.89.4032,2.7668.0816.4385.1808.8635.2627,1.276.0971.4112.1817.8095.284,1.19a32.4263,32.4263,0,0,0,1.144,3.6793c.17.4436.3156.7909.4261,1.0277.1062.237.1706.3642.1706.3642l.39-.0224s.0506-.1326.1261-.3823c.0811-.25.1819-.6166.29-1.0812a26.238,26.238,0,0,0,.5786-3.8423c.0364-.3967.0524-.8083.0785-1.2353.0135-.426.03-.8669.03-1.3188.0016-.452-.0028-.9161-.0227-1.389S124.9775,110.8384,124.9258,110.35Z"/><path className="cls-25" d="M127.7049,106.9454c-.0078-.4374-.0232-.8747-.036-1.3093-.0221-.4352-.0423-.8678-.0741-1.2966-.06-.8578-.1519-1.6991-.2575-2.51-.1128-.81-.2393-1.5893-.3807-2.3232l-.2223-1.0653c-.0758-.3427-.1586-.6721-.2329-.9881-.0705-.3166-.1573-.6167-.2382-.9016s-.1537-.555-.2306-.807c-.16-.5029-.2931-.94-.4206-1.2957-.2565-.71-.4086-1.111-.4086-1.111l-.3793.0932s.04.4229.11,1.1631c.0271.3688.06.8167.0979,1.33.0246.5142.0553,1.0916.0694,1.7212.0061.315.0177.6416.02.98-.0018.3382-.0037.6879-.0056,1.0473q-.0143.5377-.0293,1.1033c-.01.3755-.0362.76-.054,1.1487-.04.7785-.1058,1.5806-.1749,2.3926q-.0606.608-.1222,1.2241-.0746.613-.1494,1.2293c-.1116.819-.2733,1.632-.463,2.4249l-.2709,1.1766c-.0791.3883-.1607.771-.2178,1.15-.1226.7575-.1835,1.4987-.2271,2.2077-.0217.3546-.0324.7021-.0507,1.0377-.0049.3383-.0245.6628-.0219.98-.013.63,0,1.2179.0177,1.7437s.049.9925.0808,1.3809.0658.6994.0981.9154c.0273.2146.0478.331.0478.331l.37.1264s.09-.0839.2377-.2481a8.32,8.32,0,0,0,.5971-.7336,14.7914,14.7914,0,0,0,1.612-2.8343c.1375-.3044.26-.627.391-.961.1168-.3367.2468-.6841.3538-1.0471a14.195,14.195,0,0,0,.5208-2.3158,16.8766,16.8766,0,0,0,.1071-2.54C127.7537,108.6987,127.7144,107.82,127.7049,106.9454Z"/><path className="cls-25" d="M130.5215,89.7772c-.0976.4332-.2163.9592-.3524,1.5626s-.2955,1.283-.4562,2.0257l-1.125,5.07c-.2.9276-.4056,1.8861-.615,2.86-.2036.9744-.41,1.9643-.6173,2.9542s-.4553,1.9734-.7034,2.9407c-.1216.4841-.2466.9636-.3548,1.44s-.199.9485-.2779,1.4149a25.1137,25.1137,0,0,0-.2772,2.7169c-.0254.4348-.0312.8607-.0466,1.2712-.0016.4127-.0124.81-.0018,1.1949a28.36,28.36,0,0,0,.2812,3.7505c.0675.4586.134.8209.1907,1.07.0521.2483.0882.3825.0882.3825l.3854.0631s.0772-.1153.2051-.3348c.133-.2187.3105-.5425.5184-.9574a26.7168,26.7168,0,0,0,1.4289-3.4888c.1275-.3644.2385-.7475.363-1.1425.1107-.3972.2325-.8067.34-1.2305a23.9271,23.9271,0,0,0,.548-2.6863q.0968-.7058.1515-1.44c.036-.4888.057-.9857.0825-1.4859.0406-1.0021.0873-2.0189.1709-3.03.0792-1.0121.17-2.022.2362-3.02.0736-.9965.135-1.9784.19-2.9292.0484-.9517.1054-1.87.1389-2.7433.0363-.8728.0706-1.6979.1022-2.4595.03-.7618.044-1.4614.0634-2.08s.0264-1.16.0319-1.6051c.01-.89.0157-1.399.0157-1.399l-.3879-.0453S130.7229,88.9108,130.5215,89.7772Z"/><path className="cls-26" d="M119.1786,116.7521c-.0525-.2559-.112-.521-.1838-.7908a8.1832,8.1832,0,0,0-.278-.8085,6.0371,6.0371,0,0,0-.4-.793,6.9253,6.9253,0,0,0-.532-.7472c-.1955-.2409-.4214-.4627-.636-.6924l-.6825-.6573c-.2394-.2074-.456-.4334-.6884-.6423-.2294-.2116-.4553-.425-.6928-.6225-.1177-.1-.2329-.2015-.3515-.2982l-.3605-.2815c-.4766-.3746-.9709-.7057-1.4525-1.0119-.4881-.2982-.9624-.5741-1.4265-.8073-.4626-.2355-.9046-.4424-1.3172-.62-.41-.1814-.8-.3178-1.14-.4422-.3432-.12-.6431-.2168-.8951-.2851-.4977-.1437-.7962-.1986-.7962-.1986l-.1472.3618.1676.1166c.1089.0782.27.1908.47.3424s.4387.3384.71.5529c.2689.2188.5655.4715.8823.7508.3182.2769.652.5875.9917.9251s.6893.6967,1.0317,1.0816c.3457.3809.6859.785,1.0172,1.2.1656.2076.3287.4182.4864.6327.1631.21.3114.432.4626.6495a7.6453,7.6453,0,0,1,.41.6794c.1216.2342.2348.4707.342.7055.2065.4751.3985.9336.6268,1.3472a9.7023,9.7023,0,0,0,.7505,1.15c.1254.1818.2578.3561.3909.5253.1266.1717.2493.34.3828.498.1315.1591.2488.3172.37.4669l.3613.428c.219.2758.4518.5155.6347.7213s.342.37.4622.482c.1154.1126.1861.1728.1861.1728l.3849-.0658s.0425-.0805.1053-.2315a5.559,5.559,0,0,0,.2341-.66,6.7006,6.7006,0,0,0,.1964-1.035,2.4073,2.4073,0,0,0,.0252-.3095c.0037-.1055.011-.2158.0114-.3275a5.8257,5.8257,0,0,0-.0217-.7033C119.2512,117.2656,119.2185,117.0132,119.1786,116.7521Z"/><path className="cls-26" d="M141.4166,107.2524c-.252.0683-.5518.1655-.895.2851-.34.1244-.73.2608-1.14.4422-.4127.1771-.8546.384-1.3172.62-.4641.2332-.9384.5091-1.4266.8073-.4815.3062-.9759.6373-1.4524,1.0119l-.3605.2815c-.1187.0967-.2338.1984-.3516.2982-.2375.1975-.4633.4109-.6927.6225-.2325.2089-.449.4349-.6884.6423l-.6825.6573c-.2147.23-.44.4515-.636.6924a6.9114,6.9114,0,0,0-.532.7472,6.0371,6.0371,0,0,0-.4.793,8.1832,8.1832,0,0,0-.278.8085c-.0718.27-.1313.5349-.1838.7908-.04.2611-.0726.5135-.0914.7575a5.8053,5.8053,0,0,0-.0217.7033c0,.1117.0076.222.0113.3275a2.4073,2.4073,0,0,0,.0253.3095,6.6887,6.6887,0,0,0,.1964,1.035,5.559,5.559,0,0,0,.2341.66c.0628.151.1053.2315.1053.2315l.3849.0658s.0707-.06.1861-.1728c.12-.1117.2792-.2764.4622-.482s.4157-.4455.6347-.7213l.3612-.428c.1215-.15.2389-.3078.37-.4669.1334-.1583.2562-.3263.3828-.498.1331-.1692.2655-.3435.3909-.5253a9.7148,9.7148,0,0,0,.7505-1.15c.2283-.4136.42-.8721.6268-1.3472.1071-.2348.22-.4713.3419-.7055a7.67,7.67,0,0,1,.41-.6794c.1512-.2175.2994-.4392.4625-.6495.1578-.2145.3208-.4251.4864-.6327.3314-.4146.6716-.8187,1.0172-1.2.3425-.3849.6927-.7433,1.0318-1.0816s.6735-.6482.9916-.9251c.3168-.2793.6135-.532.8824-.7508.2708-.2145.51-.4023.71-.5529s.3608-.2642.47-.3424l.1676-.1166-.1473-.3618S141.9144,107.1087,141.4166,107.2524Z"/><polygon className="cls-23" points="115.442 138.217 133.097 138.217 136.682 116.772 111.974 116.772 115.442 138.217"/><path className="cls-24" d="M131.7768,117.6109a62.261,62.261,0,0,1-.88,7.8522,43.046,43.046,0,0,1-1.4033,5.9336,32.0725,32.0725,0,0,1-2.9628,6.82h6.5662l3.5852-21.4448h-4.8852C131.7935,117.0514,131.7875,117.3309,131.7768,117.6109Z"/><polygon className="cls-27" points="203.086 69.899 205.924 69.899 216.323 128.048 213.918 128.048 203.086 69.899"/><rect className="cls-27" x="163.1777" y="118.1204" width="21.8196" height="19.8267"/><rect className="cls-7" x="163.1777" y="118.1204" width="18.6321" height="19.8267"/><rect className="cls-27" x="163.1777" y="118.1204" width="18.6321" height="11.9734"/><rect className="cls-27" x="153.5166" y="135.1429" width="41.1418" height="3.0616"/><rect className="cls-7" x="153.5166" y="135.1429" width="37.1875" height="3.0616"/><polygon className="cls-6" points="134.679 128.034 214.009 128.034 203.362 69.885 124.512 69.885 134.679 128.034"/><path className="cls-28" d="M87.2972,184.4443h-36.2a5.1862,5.1862,0,0,0-5.2886,5.0773v3.3356a5.1862,5.1862,0,0,0,5.2886,5.0774h36.2a5.1862,5.1862,0,0,0,5.2886-5.0774v-3.3356A5.1862,5.1862,0,0,0,87.2972,184.4443Z"/><path className="cls-28" d="M56.2147,197.2249a4.2934,4.2934,0,0,0,4.3781,4.2032h47.06a4.2933,4.2933,0,0,0,4.3781-4.2032H56.2147Z"/><path className="cls-29" d="M90.4735,94.8313H82.7574a10.1314,10.1314,0,0,1,9.5137,7.9872c5.2834,28.7418,6.516,58.2362,1.2326,86.978a10.1316,10.1316,0,0,1-9.5137,7.9872h7.7161a10.1316,10.1316,0,0,0,9.5137-7.9872c5.2834-28.7418,4.0508-58.2362-1.2326-86.978A10.1314,10.1314,0,0,0,90.4735,94.8313Z"/><path className="cls-30" d="M126.2335,184.2934H102.1507c4.1786-26.9945,2.7832-54.5646-2.1635-81.4749a10.1314,10.1314,0,0,0-9.5137-7.9872h-44.41c-4.3683,0-7.1071,3.5639-6.2963,7.9872,5.2834,28.7418,4.7634,51.8192-.52,80.561-.8108,4.4233,1.1094,14.4042,12.2027,14.4042h74.784a6.7508,6.7508,0,1,0,0-13.49Z"/><path className="cls-31" d="M94.8521,96.0991a16.8233,16.8233,0,0,1,1.7944,1.14,10.2432,10.2432,0,0,0-3.9941-2.1169A18.8854,18.8854,0,0,1,94.8521,96.0991Z"/><path className="cls-3" d="M89.0658,176.6252c1.2085-10.5192,6.137-55.33-4.55-72.3681a6.2391,6.2391,0,0,1-.6705-4.9209A6.551,6.551,0,0,1,86.9018,95.52a5.1085,5.1085,0,0,1,1.8187-.6884H46.0631c-4.3683,0-7.1071,3.5639-6.2963,7.9872,5.2834,28.7418,4.7634,51.8192-.52,80.561-.8108,4.4233,1.1094,14.4042,12.2027,14.4042h74.784a7.109,7.109,0,0,0,5.7049-2.8089c-1.97-.0708-32.7159-.4237-34.2289-.4672C86.0581,194.1731,87.9606,182.6543,89.0658,176.6252Z"/><path className="cls-32" d="M256.7248,74.6987s.6459.9568,2.4359-2.6935c1.7866-3.6524.4779-5.833-2.1766-5.6787a6.4862,6.4862,0,0,0-3.8221,1.2166s-12.2831-6.3027-7.4856-16.3682a17.0968,17.0968,0,0,1,15.19-2.2658c9.1592,2.9834,12.99,11.5124,9.889,21.0658-3.0979,9.5527-15.7248,13.0561-24.8813,10.072-.0439-.0129,6.4809-1.5117,7.5714-2.7276,2.265-2.5188,3.28-2.6206,3.28-2.6206"/><path className="cls-32" d="M242.7606,54.3822,242.1582,52.2c-.4559-1.8357.71-2.4282,1.6175-1.5455l.1371.1364a.707.707,0,0,0,1.1508-.5568l-.0311-1.2956c-.0011-.6673.6293-1.8843,1.62-.6395l.417.5186a.7069.7069,0,0,0,1.2481-.3673l.1443-1.1945a1.091,1.091,0,0,1,1.9672-.5123l.6136.8449a.7419.7419,0,0,0,1.3033-.1968l.5128-1.4922a.9477.9477,0,0,1,1.7806-.0364l.456,1.1739a.7428.7428,0,0,0,1.3179.135l.8536-1.3314a.948.948,0,0,1,1.73.3371l.2824,1.5214a.7419.7419,0,0,0,1.249.3962l1.174-1.1454a1.0375,1.0375,0,0,1,1.764.7516l-.0116,1.5331a.7443.7443,0,0,0,1.1246.6445l1.1434-.6863a1.14,1.14,0,0,1,1.7119,1.1575l-.2593,1.6416a.7437.7437,0,0,0,.9392.8315l1.25-.3617a1.2858,1.2858,0,0,1,1.5178,1.7867l-.5743,1.2211a.7426.7426,0,0,0,.6,1.058l1.1691.1092a1.1643,1.1643,0,0,1,.7632,1.9286l-.7888.8933a.7469.7469,0,0,0,.1592,1.1252l.7873.4974a1.0432,1.0432,0,0,1-.0751,1.8048l-.3343.1729a.7444.7444,0,0,0-.1547,1.2116l.3261.2954a1.011,1.011,0,0,1-.4311,1.7263.7444.7444,0,0,0-.3914,1.1951l.2417.2951a1.0211,1.0211,0,0,1-.6033,1.6508.7464.7464,0,0,0-.4294,1.2186.7427.7427,0,0,1-.492,1.2249l-.2274.0221a.7081.7081,0,0,0-.5531,1.0529.709.709,0,0,1-.6246,1.0582l-.2712-.0024a.743.743,0,0,0-.7109.9885l.079.2231a.7435.7435,0,0,1-.8179.9789l-.2994-.0482a.7453.7453,0,0,0-.8546.8245l.0036.04a.7428.7428,0,0,1-1.0168.7786l-.2124-.0864a.7425.7425,0,0,0-1.0176.6038l-.02.1855a.7459.7459,0,0,1-.8615.6483l-1.43-.2394a3.7877,3.7877,0,0,1-3.08-2.2045l1.3485-.03a.7443.7443,0,0,1,.166-.9927c1.7678-1.3772,7.02-6.2021,4.0671-13.0454C260.934,54.784,251.8051,51.9653,251.1134,51.76l-.09.001-7.308,2.5629c-.0874.0237-.907.26-.9548.0584"/><path className="cls-32" d="M242.7373,54.641a3.72,3.72,0,0,1,3.6423,1.9249c1.35,2.6226,2.2195,3.3336,2.9271,3.7043a4.3248,4.3248,0,0,1,1.8727,4.349c-.77,3.9406,1.8329,5.5418,1.8329,5.5418s2.3994-4.1715,5.5586-2.971c6.084,2.3081.1306,9.5007.1306,9.5007s1.3536,2.6391,3.4586,1.7267a20.4062,20.4062,0,0,0,4.9838-5.1486c1.9092-3.0374,7.5874-11.6715-1.346-21.2557-5.9918-6.4313-22.6151-1.1219-23.0606,2.6279"/><path className="cls-33" d="M240.7932,64.009a6.8827,6.8827,0,0,0-.4722,6.0647,1.5982,1.5982,0,0,0,3.0679.24,6.8949,6.8949,0,0,0,.4689-6.0669,1.9143,1.9143,0,0,0-1.442-1.283,1.3041,1.3041,0,0,0-.2431.0054,2.11,2.11,0,0,0-1.3795,1.04M241.827,72.35a2.5955,2.5955,0,0,1-2.0371-1.7068,7.8144,7.8144,0,0,1,.541-6.9644,2.2863,2.2863,0,0,1,4.3122.3341,7.8243,7.8243,0,0,1-.54,6.9671,2.8119,2.8119,0,0,1-1.8857,1.3587,1.76,1.76,0,0,1-.39.0113"/><path className="cls-33" d="M239.5208,66.3032a.3239.3239,0,0,0,.2338-.1548.32.32,0,0,0-.11-.44,3.9369,3.9369,0,0,0-1.1482-.4377l-.1985-.0518a.321.321,0,1,0-.1671.62l.2074.0526a3.4576,3.4576,0,0,1,.9781.37.3346.3346,0,0,0,.2048.0415"/><polygon className="cls-33" points="253.773 68.721 254.591 68.022 244.755 64.908 244.805 66.114 253.773 68.721"/><polyline className="cls-34" points="256.817 73.685 258.914 78.311 259.661 80.265 252.852 83.684 245.525 80.322 244.146 78.512 255.61 73.599"/><path className="cls-35" d="M169.2117,46.8849a.7006.7006,0,0,1,.7006.7006v.0055a.7006.7006,0,1,1-.7006-.7061Z"/><path className="cls-35" d="M169.2117,41.5905a.7006.7006,0,0,1,.7006.7006v.0105a.6961.6961,0,0,1-.7006.6953.7032.7032,0,0,1,0-1.4064Z"/><path className="cls-35" d="M169.2117,44.2377a.7006.7006,0,0,1,.7006.7006v.0105a.6962.6962,0,0,1-.7006.6954.7033.7033,0,0,1,0-1.4065Z"/><path className="cls-35" d="M169.2117,38.9433a.7006.7006,0,0,1,.7006.7006v.0105a.6962.6962,0,0,1-.7006.6954.7033.7033,0,0,1,0-1.4065Z"/><path className="cls-35" d="M169.2117,28.3545a.7006.7006,0,0,1,.7006.7006v.0106a.6961.6961,0,0,1-.7006.6953.7033.7033,0,0,1,0-1.4065Z"/><path className="cls-35" d="M169.2117,31.0017a.7006.7006,0,0,1,.7006.7006v.0106a.6961.6961,0,0,1-.7006.6953.7033.7033,0,0,1,0-1.4065Z"/><path className="cls-35" d="M169.2117,33.6489a.7006.7006,0,0,1,.7006.7006V34.36a.6961.6961,0,0,1-.7006.6953.7033.7033,0,0,1,0-1.4065Z"/><path className="cls-35" d="M169.2117,36.2961a.7006.7006,0,0,1,.7006.7006v.0105a.6961.6961,0,0,1-.7006.6953.7032.7032,0,0,1,0-1.4064Z"/><path className="cls-35" d="M169.2117,25.7123a.7006.7006,0,0,1,.7006.7006v.0056a.7021.7021,0,1,1-.7006-.7062Z"/><path className="cls-35" d="M155.3411,25.7123h.011a.6961.6961,0,0,1,.6952.7006.7034.7034,0,1,1-.7062-.7006Z"/><path className="cls-35" d="M158.1141,25.7123h.011a.6959.6959,0,0,1,.695.7006.7033.7033,0,1,1-.706-.7006Z"/><path className="cls-35" d="M152.5681,25.7123h.0111a.696.696,0,0,1,.6951.7006.7034.7034,0,1,1-.7062-.7006Z"/><path className="cls-35" d="M166.4331,25.7123h.0111a.696.696,0,0,1,.6951.7006.7034.7034,0,1,1-.7062-.7006Z"/><path className="cls-35" d="M149.795,25.7123h.0111a.6959.6959,0,0,1,.695.7006.7034.7034,0,1,1-.7061-.7006Z"/><path className="cls-35" d="M160.8871,25.7123h.011a.696.696,0,0,1,.6951.7006.7034.7034,0,1,1-.7061-.7006Z"/><path className="cls-35" d="M163.66,25.7123h.0111a.696.696,0,0,1,.6951.7006.7034.7034,0,1,1-.7062-.7006Z"/><path className="cls-35" d="M135.93,25.7123h.0111a.6959.6959,0,0,1,.695.7006.7034.7034,0,1,1-.7061-.7006Z"/><path className="cls-35" d="M138.703,25.7123h.011a.696.696,0,0,1,.6951.7006.7034.7034,0,1,1-.7061-.7006Z"/><path className="cls-35" d="M133.157,25.7123h.0111a.6959.6959,0,0,1,.695.7006.7034.7034,0,1,1-.7061-.7006Z"/><path className="cls-35" d="M147.022,25.7123h.0111a.6959.6959,0,0,1,.695.7006.7034.7034,0,1,1-.7061-.7006Z"/><path className="cls-35" d="M141.4761,25.7123h.0109a.696.696,0,0,1,.6951.7006.7033.7033,0,1,1-.706-.7006Z"/><path className="cls-35" d="M144.2491,25.7123h.011a.6959.6959,0,0,1,.695.7006.7033.7033,0,1,1-.706-.7006Z"/><path className="cls-35" d="M130.3894,25.7123h.0056a.7034.7034,0,1,1-.0056,0Z"/><circle className="cls-11" cx="130.5754" cy="26.4951" r="11.9291" transform="translate(-2.2589 16.1526) rotate(-7.0181)"/><path className="cls-35" d="M193.3768,35.053h.0055a.7034.7034,0,1,1-.0055,0Z"/><path className="cls-35" d="M190.41,35.053h.0119a.7006.7006,0,1,1,0,1.4012H190.41a.7006.7006,0,0,1,0-1.4012Z"/><path className="cls-35" d="M187.4433,35.053h.0119a.7006.7006,0,1,1,0,1.4012h-.0119a.7006.7006,0,1,1,0-1.4012Z"/><path className="cls-35" d="M178.5432,35.053h.0117a.7006.7006,0,1,1,0,1.4012h-.0117a.7006.7006,0,0,1,0-1.4012Z"/><path className="cls-35" d="M184.4766,35.053h.0119a.7006.7006,0,1,1,0,1.4012h-.0119a.7006.7006,0,1,1,0-1.4012Z"/><path className="cls-35" d="M181.51,35.053h.0117a.7006.7006,0,0,1,0,1.4012H181.51a.7006.7006,0,1,1,0-1.4012Z"/><path className="cls-35" d="M175.5826,35.053h.0056a.7034.7034,0,1,1-.0056,0Z"/><path className="cls-35" d="M175.5826,43.9253a.7006.7006,0,0,1,.7006.7006v.0118a.7006.7006,0,0,1-1.4012,0v-.0118A.7006.7006,0,0,1,175.5826,43.9253Z"/><path className="cls-35" d="M175.5826,40.9658a.7006.7006,0,0,1,.7006.7006v.0118a.7006.7006,0,1,1-1.4012,0v-.0118A.7006.7006,0,0,1,175.5826,40.9658Z"/><path className="cls-35" d="M175.5826,38.0063a.7006.7006,0,0,1,.7006.7006v.0118a.7006.7006,0,1,1-1.4012,0v-.0118A.7006.7006,0,0,1,175.5826,38.0063Z"/><path className="cls-35" d="M175.5826,46.8876a.702.702,0,1,1-.7006.7034v-.0055A.6983.6983,0,0,1,175.5826,46.8876Z"/><circle className="cls-11" cx="207.5615" cy="36.3467" r="12.4739" transform="translate(56.7121 183.4771) rotate(-54.2175)"/><path className="cls-35" d="M127.3143,64.7443h.0111a.6959.6959,0,0,1,.695.7006.7034.7034,0,1,1-.7061-.7006Z"/><path className="cls-35" d="M124.5214,64.7443h.0112a.6959.6959,0,0,1,.695.7006.7034.7034,0,1,1-.7062-.7006Z"/><path className="cls-35" d="M130.1071,64.7443h.0111a.6959.6959,0,0,1,.6951.7006.7034.7034,0,1,1-.7062-.7006Z"/><path className="cls-35" d="M113.35,64.7443h.0112a.6959.6959,0,0,1,.695.7006.7034.7034,0,1,1-.7062-.7006Z"/><path className="cls-35" d="M132.9,64.7443h.0111a.6959.6959,0,0,1,.695.7006.7034.7034,0,1,1-.7061-.7006Z"/><path className="cls-35" d="M121.7287,64.7443h.0111a.6959.6959,0,0,1,.695.7006.7034.7034,0,1,1-.7061-.7006Z"/><path className="cls-35" d="M118.9359,64.7443h.0111a.6959.6959,0,0,1,.695.7006.7034.7034,0,1,1-.7061-.7006Z"/><path className="cls-35" d="M116.1431,64.7443h.0111a.696.696,0,0,1,.6951.7006.7034.7034,0,1,1-.7062-.7006Z"/><path className="cls-35" d="M145.3458,64.7443h.011a.696.696,0,0,1,.6951.7006.7034.7034,0,1,1-.7061-.7006Z"/><path className="cls-35" d="M139.76,64.7443h.0112a.6959.6959,0,0,1,.695.7006.7034.7034,0,1,1-.7062-.7006Z"/><path className="cls-35" d="M142.5529,64.7443h.0112a.6959.6959,0,0,1,.695.7006.7034.7034,0,1,1-.7062-.7006Z"/><path className="cls-35" d="M136.9673,64.7443h.0112a.6959.6959,0,0,1,.695.7006.7034.7034,0,1,1-.7062-.7006Z"/><path className="cls-35" d="M107.7646,64.7443h.0112a.6959.6959,0,0,1,.695.7006.7034.7034,0,1,1-.7062-.7006Z"/><path className="cls-35" d="M80.63,64.7443h.0112a.6959.6959,0,0,1,.695.7006.7034.7034,0,1,1-.7062-.7006Z"/><path className="cls-35" d="M77.8367,64.7443h.0111a.6959.6959,0,0,1,.6951.7006.7034.7034,0,1,1-.7062-.7006Z"/><path className="cls-35" d="M83.4223,64.7443h.0112a.6959.6959,0,0,1,.695.7006.7034.7034,0,1,1-.7062-.7006Z"/><path className="cls-35" d="M69.4583,64.7443h.0111a.696.696,0,0,1,.6951.7006.7034.7034,0,1,1-.7062-.7006Z"/><path className="cls-35" d="M86.2151,64.7443h.0111a.6959.6959,0,0,1,.695.7006.7034.7034,0,1,1-.7061-.7006Z"/><path className="cls-35" d="M72.2511,64.7443h.0111a.696.696,0,0,1,.6951.7006.7034.7034,0,1,1-.7062-.7006Z"/><path className="cls-35" d="M75.0439,64.7443h.0111a.6959.6959,0,0,1,.695.7006.7034.7034,0,1,1-.7061-.7006Z"/><path className="cls-35" d="M100.1791,64.7443h.0111a.696.696,0,0,1,.6951.7006.7034.7034,0,1,1-.7062-.7006Z"/><path className="cls-35" d="M97.3863,64.7443h.0112a.6959.6959,0,0,1,.695.7006.7034.7034,0,1,1-.7062-.7006Z"/><path className="cls-35" d="M110.5575,64.7443h.0111a.6959.6959,0,0,1,.695.7006.7034.7034,0,1,1-.7061-.7006Z"/><path className="cls-35" d="M102.9719,64.7443h.0111a.696.696,0,0,1,.6951.7006.7034.7034,0,1,1-.7062-.7006Z"/><path className="cls-35" d="M91.8007,64.7443h.0111a.6959.6959,0,0,1,.695.7006.7034.7034,0,1,1-.7061-.7006Z"/><path className="cls-35" d="M89.008,64.7443h.011a.696.696,0,0,1,.6951.7006.7034.7034,0,1,1-.7061-.7006Z"/><path className="cls-35" d="M94.5935,64.7443h.0111a.6959.6959,0,0,1,.6951.7006.7034.7034,0,1,1-.7062-.7006Z"/><circle className="cls-11" cx="119.9659" cy="65.6291" r="14.8284"/><circle className="cls-11" cx="63.3666" cy="65.4449" r="9.844"/><path className="cls-20" d="M58.5337,61.839a1.1162,1.1162,0,0,1,.9,1.7825l2.0918,3.216a1.0767,1.0767,0,0,1,.4783-.0016l2.0663-3.21a1.12,1.12,0,1,1,1.7962-.004l2.0918,3.216a1.13,1.13,0,1,1-.6581.4307l-2.0918-3.216a1.0763,1.0763,0,0,1-.4782.0016l-2.0664,3.21a1.12,1.12,0,1,1-1.7962.004l-2.0918-3.216a1.12,1.12,0,1,1-.2417-2.2132Z"/><path className="cls-35" d="M162.62,46.8849a.7006.7006,0,0,1,.7006.7006v.0055a.7006.7006,0,1,1-.7006-.7061Z"/><path className="cls-35" d="M162.62,44.9968a.7006.7006,0,0,1,.7006.7006v.0075a.7006.7006,0,1,1-.7006-.7081Z"/><path className="cls-35" d="M162.62,43.1107a.7006.7006,0,0,1,.7006.7006v.0055a.7021.7021,0,1,1-.7006-.7061Z"/><path className="cls-35" d="M145.5483,43.1107h.0114a.6958.6958,0,0,1,.6949.7006.7035.7035,0,1,1-.7063-.7006Z"/><path className="cls-35" d="M134.1707,43.1107h.0115a.6958.6958,0,0,1,.6949.7006.7035.7035,0,1,1-.7064-.7006Z"/><path className="cls-35" d="M137.0152,43.1107h.0113a.6959.6959,0,0,1,.695.7006.7035.7035,0,1,1-.7063-.7006Z"/><path className="cls-35" d="M139.86,43.1107h.0113a.6959.6959,0,0,1,.695.7006.7035.7035,0,1,1-.7063-.7006Z"/><path className="cls-35" d="M148.3928,43.1107h.0113a.6958.6958,0,0,1,.6949.7006.7034.7034,0,1,1-.7062-.7006Z"/><path className="cls-35" d="M142.704,43.1107h.0112a.696.696,0,0,1,.6951.7006.7035.7035,0,1,1-.7063-.7006Z"/><path className="cls-35" d="M159.77,43.1107h.0113a.6958.6958,0,0,1,.6949.7006.7034.7034,0,1,1-.7062-.7006Z"/><path className="cls-35" d="M156.9259,43.1107h.0114a.6958.6958,0,0,1,.6949.7006.7035.7035,0,1,1-.7063-.7006Z"/><path className="cls-35" d="M151.2372,43.1107h.0112a.6958.6958,0,0,1,.6949.7006.7034.7034,0,1,1-.7061-.7006Z"/><path className="cls-35" d="M154.0815,43.1107h.0113a.6958.6958,0,0,1,.6949.7006.7034.7034,0,1,1-.7062-.7006Z"/><path className="cls-35" d="M105.7269,43.1107h.0113a.6959.6959,0,0,1,.695.7006.7035.7035,0,1,1-.7063-.7006Z"/><path className="cls-35" d="M111.4156,43.1107h.0115a.6958.6958,0,0,1,.6948.7006.7035.7035,0,1,1-.7063-.7006Z"/><path className="cls-35" d="M114.26,43.1107h.0113a.6959.6959,0,0,1,.695.7006.7035.7035,0,1,1-.7063-.7006Z"/><path className="cls-35" d="M108.5713,43.1107h.0114a.6958.6958,0,0,1,.6949.7006.7035.7035,0,1,1-.7063-.7006Z"/><path className="cls-35" d="M117.1045,43.1107h.0113a.6959.6959,0,0,1,.695.7006.7035.7035,0,1,1-.7063-.7006Z"/><path className="cls-35" d="M131.3264,43.1107h.0113a.6958.6958,0,0,1,.6949.7006.7034.7034,0,1,1-.7062-.7006Z"/><path className="cls-35" d="M125.6377,43.1107h.0113a.6958.6958,0,0,1,.6949.7006.7034.7034,0,1,1-.7062-.7006Z"/><path className="cls-35" d="M119.9488,43.1107h.0114a.6958.6958,0,0,1,.6949.7006.7035.7035,0,1,1-.7063-.7006Z"/><path className="cls-35" d="M128.482,43.1107h.0113a.6958.6958,0,0,1,.6949.7006.7034.7034,0,1,1-.7062-.7006Z"/><path className="cls-35" d="M122.7932,43.1107h.0114a.6958.6958,0,0,1,.6949.7006.7035.7035,0,1,1-.7063-.7006Z"/><path className="cls-35" d="M102.8883,43.1107h.0056a.7034.7034,0,1,1-.0056,0Z"/><circle className="cls-11" cx="88.8171" cy="43.9052" r="12.004"/><path className="cls-35" d="M169.1562,49.2675a.7006.7006,0,0,1,.7006.7006v.0056a.7006.7006,0,1,1-.7006-.7062Z"/><path className="cls-35" d="M175.5272,49.27a.702.702,0,1,1-.7006.7034v-.0056A.6983.6983,0,0,1,175.5272,49.27Z"/><path className="cls-35" d="M162.5649,49.2675a.7006.7006,0,0,1,.7006.7006v.0056a.7006.7006,0,1,1-.7006-.7062Z"/><path className="cls-20" d="M148.5019,51.736h34.4762a4.3884,4.3884,0,0,1,4.1,4.6287V82.1381l-6.4244-6.1475H148.5019a4.3883,4.3883,0,0,1-4.1-4.6287V56.3647A4.3884,4.3884,0,0,1,148.5019,51.736Z"/><rect className="cls-35" x="149.1793" y="58.0418" width="33.1214" height="1.8867"/><rect className="cls-35" x="149.1793" y="62.6536" width="33.1214" height="1.8867"/><rect className="cls-35" x="149.1793" y="67.2655" width="24.1073" height="1.8867"/><path className="cls-36" d="M201.5129,36.234v4.4892a.5255.5255,0,0,0,.5257.5253h11.22a.5253.5253,0,0,0,.5255-.5253V36.234"/><rect className="cls-36" x="206.5802" y="36.0845" width="2.136" height="2.136"/><path className="cls-36" d="M205.5261,31.6259v-1.337a7.821,7.821,0,0,1,4.2442,0v1.3374"/><path className="cls-36" d="M206.58,37.0652a22.5734,22.5734,0,0,1-5.0162-.8109.5677.5677,0,0,1-.3607-.5264V32.1924a.5685.5685,0,0,1,.5672-.5665h11.7557a.5682.5682,0,0,1,.5666.5665v3.5355a.568.568,0,0,1-.36.5264,22.3217,22.3217,0,0,1-5.0162.8137"/><line className="cls-37" x1="207.4341" y1="37.1524" x2="207.8622" y2="37.1524"/><circle className="cls-20" cx="122.1245" cy="58.3186" r="1.9961"/><path className="cls-20" d="M115.4709,63.6414s2.4786-1.996,3.9921-1.996c.7646,0,2.6869.2,2.6869,1.332,0,1.3017-2.6675,5.1415-2.6675,7.9825,0,1.436.8843,1.3121,1.0707,1.3121s2.2367-.6461,2.2367-.6461a3.9677,3.9677,0,0,1-3.9266,2.6613c-3.1563,0-2.7151-3.3273-2.7151-3.3273,0-2.1733,2.3169-7.6511,2.3169-7.6511C118.5631,62.94,115.4709,63.6414,115.4709,63.6414Z"/><path className="cls-38" d="M93.4223,44.6614l1.6731,1.2978-1.3169,2.2837-1.9593-.7952a4.9263,4.9263,0,0,1-1.5522.8779l-.2608,1.8449H87.4616l-.2608-1.8449a4.9252,4.9252,0,0,1-1.5522-.8779l-1.9594.7952-1.3168-2.2837,1.6731-1.2978a4.4348,4.4348,0,0,1,0-1.7049l-1.6731-1.2977,1.3168-2.2838,1.9594.7952a4.9252,4.9252,0,0,1,1.5522-.8779l.2608-1.8448h2.5446l.2608,1.8448a4.9263,4.9263,0,0,1,1.5522.8779l1.9593-.7952,1.3169,2.2838-1.6731,1.2977a4.4348,4.4348,0,0,1,0,1.7049Z"/><circle className="cls-38" cx="88.7339" cy="43.809" r="1.9084"/><path className="cls-20" d="M128.8132,23.2835a4.6586,4.6586,0,0,0-4.0465,6.9207,2.5834,2.5834,0,0,1-.427.6762,2.18,2.18,0,0,1-.402.35,2.51,2.51,0,0,1-.4856.26c-.0565.0209-.0251.0586.0084.0732.0607.0251.1172.0544.1779.0838a3.2157,3.2157,0,0,0,1.0467.2177,3.652,3.652,0,0,0,.7222-.0524,5.5977,5.5977,0,0,0,.6217-.1465,4.6634,4.6634,0,1,0,2.7842-8.3819Zm.0105,7.3624a.4846.4846,0,0,1-.0021-.9692.4765.4765,0,0,1,.492.471A.4822.4822,0,0,1,128.8237,30.6459Zm.8478-2.6251c-.1654.1508-.35.2889-.3684.5338-.0147.18-.0209.36-.0209.54.0041.0984-.0294.1319-.1277.1256-.1131-.0063-.2261,0-.3392-.0021-.1256,0-.2554,0-.3789.0021-.069,0-.0963-.0272-.0963-.0942a2.787,2.787,0,0,1,.1361-1.1388c.1884-.4207.6448-.5443.9064-.9043.6532-.8939-.9859-1.4863-1.3272-.3831-.0523.1633-.0607.1654-.2281.14-.2115-.0272-.425-.0545-.6364-.08-.08-.0084-.1131-.04-.1047-.1214.1319-1.3921,2.0955-1.7919,3.0459-.9609a1.3265,1.3265,0,0,1,.471.9923C130.601,27.2567,130.0693,27.6629,129.6715,28.0208Z"/><path className="cls-20" d="M137.6972,25.6l-.66-.4453c-.0436-.0281-.0763-.05-.1-.0686a4.4265,4.4265,0,1,0-8.3888-2.65c.0857-.0046.1713-.0077.2585-.0077h.0389c.16,0,.3177.0062.475.02a3.6693,3.6693,0,1,1,6.8767,2.4324l-.03.07-.0062.0529a.73.73,0,0,0,.1385.5108,1.2994,1.2994,0,0,0,.3146.2694l.2523.1713a2.7476,2.7476,0,0,1-.5435.1012l-.0856.0062c-.0545.0047-.0919.0078-.1293.0078a3.522,3.522,0,0,1-.4251-.0171.83.83,0,0,0-.3473.0233l-.1183.0452-.0421.0327a3.6274,3.6274,0,0,1-.953.55,5.3858,5.3858,0,0,1,.12.7615l.0063-.0016a4.4182,4.4182,0,0,0,1.2286-.6618h.0016a4.7279,4.7279,0,0,0,.545.0265c.0638-.0031.12-.0078.1744-.0125l.0763-.0047a3.67,3.67,0,0,0,.953-.21l.0343-.0109c.3519-.1261.5357-.299.5652-.531A.474.474,0,0,0,137.6972,25.6Z"/></g></g></svg>