<svg width="240" height="240" viewBox="0 0 240 240" fill="none" xmlns="http://www.w3.org/2000/svg">
<g clip-path="url(#clip0_21440_113739)">
<path d="M32.6 83.4998L48.5 78.1998C49.2 76.6998 49.7 74.7998 50.1 72.7998C49.3 72.2998 48 71.4998 46.5 70.1998C44.5 68.5998 42.8 66.6998 41.3 64.5998C39.9 62.3998 37.1 58.1998 36.5 52.7998C36.1 53.1998 35.5 53.5998 34.9 53.7998C34.2 53.9998 33.4 54.0998 32.7 53.8998C32.6 53.8998 32.5 53.7998 32.3 53.7998C32.6 54.5998 32.6 55.4998 32.4 56.2998C32.2 57.0998 31.7 57.7998 31 58.3998C30.3 58.8998 29.5 59.1998 28.6 59.1998C27.7 59.1998 26.9 58.8998 26.2 58.3998C25.6 59.2998 24.8 59.9998 23.8 60.2998C22.8 60.5998 21.7 60.5998 20.7 60.2998C19.7 59.8998 18.9 59.2998 18.3 58.3998C18.1 57.9998 17.9 57.5998 17.8 57.1998C6.6 75.2998 0 96.8998 0 120C0 126.9 0.6 133.7 1.7 140.4C2.1 138.9 2.5 137.5 2.9 136.1C15.1 85.7998 26.1 86.3998 32.6 83.4998Z" fill="#B2DDE9"/>
<path d="M30.8 182.9C26.9 182.9 22 183 17.8 182.8C20.2 186.7 22.8 190.4 25.6 194C26.3 192.1 27.2001 190.2 28.2001 188.1L30.8 182.9Z" fill="#B2DDE9"/>
<path d="M181.6 62.0001L182.1 53.5001C179.2 53.3001 174.6 52.7001 171.9 51.6001C172.2 52.0001 172.3 52.2001 172.3 52.2001C171.6 52.4001 171 52.6001 170.4 52.8001L167.5 56.9001L165 55.1001C164.9 55.1001 164.8 55.2001 164.8 55.2001C161.7 57.0001 158.2 57.8001 154.6 57.4001L149.5 62.9001L150.1 63.7001L135.9 84.7001L150.2 74.0001C150.4 73.9001 150.6 73.7001 150.7 73.6001L151.1 73.3001C152.8 72.1001 154.6 71.1001 156.5 70.3001L175.4 64.1001L181.6 62.0001Z" fill="#B2DDE9"/>
<path d="M26.8 147.9L21 163.1L34.6 166.2C33.1 160.6 31 151.8 29.4 141.8C28.5 144.1 27.6 146 26.8 147.9Z" fill="#B2DDE9"/>
<path d="M202.7 50.5002C203.3 58.3002 206.1 62.9002 206.1 62.9002L205.8 63.0002L206.1 63.1002V63.0002H206.2L226.4 68.5002C227.2 68.8002 228 69.1002 228.8 69.4002C224.2 59.5002 218.3 50.4002 211.3 42.2002C208.9 44.4002 206.9 47.0002 205.3 49.8002C204.6 51.4002 203.6 51.6002 202.7 50.5002Z" fill="#B2DDE9"/>
<path d="M37.7 35.8C38.2 36.6 38.5 37.5 38.5 38.4C38.5 39.3 38.2 40.2 37.6 40.9C38 41.1 38.4 41.4 38.8 41.7C39.8 39.8 41.2 37.8 43 35.8C51 27 72.7 33.1 73.3 38.2H73.2C73.9 38.7 74.5 39.2 75.1 39.8C77 41.5 78.5 43.6 79.3 45.9C80.2 48.3 80.5 50.8 80.1 53.3C80.1 56.5 83.3 59.3 84.4 60.2C84.6 60.5 84.8 60.9 84.8 61.2C84.9 61.6 84.8 62 84.7 62.3C83.9 63.5 81.4 63.7 81.8 64.5C81.8 65.7 83.9 66.6 83.9 66.6C84 66.9 84.1 67.2 84.1 67.5C84.1 67.8 84 68.1 83.9 68.3C83.8 68.6 83.6 68.8 83.3 69C83.1 69.2 82.8 69.3 82.5 69.3C77.2 70.8 81.3 70.3 81.3 70.3C81.9 70.6 82.4 71.1 82.6 71.7C82.8 72.3 82.8 73 82.6 73.6L80 74.4C80.1 76.1 80.4 77.9 79.3 78.8C78.7 79.3 78 79.6 77.2 79.8C75.8 80.1 74.4 79.9 73.1 79.3L67.8 77.1L67.2 83.2C84.1 90 87.6 98.6 87.6 98.6L99 126.4H129.4L115 169.3L114.6 172.7H106C104.8 173.1 103.5 173.1 101.9 172.7H89C89 172.9 88.9 173 88.7 173.2C89.8 174.5 91.4 176.8 93.2 180.9C96.1 187.1 100.5 198.9 103.3 217.4C103.5 218.4 103.4 219.2 103.3 219.8C103.3 219.9 103.3 220.1 103.4 220.2H148.8V216.3H153.9H154.6L156.2 207.1H124.9H123.6H121.8L135.3 131.7H137.4H138.9H154.5L149.7 108.4C135.3 115 114.6 122.2 103.6 115.6L99.1 112.2C98 111.5 97.9 108.6 98.8 105C101.1 95.9 105.5 88.5 113.8 79.3C121.5 70.8 143.4 55.4 143.4 55.4L144.1 56.2L151.1 46.7C155.6 41.5 160.7 37 166.4 33.2L167 33.4L171.5 27.6L172.1 28C172.8 27.1 173.3 26.3 173.2 25.9C172.4 21.2 178 16.3 178.8 15.6C178.7 15.4 178.6 15.2 178.5 15C161.3 5.5 141.3 0 120 0C87.3 0 57.6 13.1 36 34.3C36.7 34.7 37.3 35.2 37.7 35.8Z" fill="#B2DDE9"/>
<path d="M161.2 216.4V207.2H156.1L154.5 216.4H161.2Z" fill="#77BDF6"/>
<path d="M192.9 207.2H189.5V209.9V211.8V216.5H191.5C192.3 215.9 193 215.4 193.8 214.8C195 213.9 196.2 212.9 197.4 211.9C197.7 211.6 198 211.4 198.3 211.1C199.7 209.9 201.2 208.6 202.5 207.3H197.7H192.9V207.2Z" fill="#77BDF6"/>
<path d="M236.8 147.5C237.5 144.3 238.2 141.1 238.6 137.8C238.8 136.6 238.9 135.4 239.1 134.1L238.4 137.9L236.8 147.5Z" fill="#0076BD"/>
<path d="M239.6 109.9C239.2 105.5 238.6 101.1 237.8 96.8001C237.5 95.4001 237.2 94.0001 236.9 92.6001C235 84.5001 232.3 76.7001 228.9 69.4001C228.1 69.0001 227.3 68.7001 226.5 68.5001L206.3 63.0001H206.2V63.1001C204.4 65.3001 202.1 67.1001 199.6 68.4001C197 69.7001 194.1 70.4001 191.2 70.5001C188.3 70.6001 185.4 70.1001 182.7 69.0001C180 67.9001 177.6 66.2001 175.5 64.1001L156.6 70.3001C154.7 71.1001 152.9 72.1001 151.2 73.3001L150.8 73.6001C150.6 73.7001 150.4 73.9001 150.3 74.0001L136 84.8001L150.2 63.8001L149.6 63.0001L144.3 56.4001L143.6 55.6001C143.6 55.6001 121.7 71.0001 114 79.5001C105.7 88.7001 101.3 96.1001 99.0001 105.2C98.1001 108.9 98.1001 111.7 99.3001 112.4L103.8 115.8C114.8 122.4 135.5 115.2 149.9 108.6L154.7 131.9H155.7H160.4H226.7H230H238H239.5C239.9 128 240.1 124.1 240.1 120.1C240 116.6 239.9 113.2 239.6 109.9Z" fill="#0076BD"/>
<path d="M170.3 52.8999C168.4 53.4999 166.6 54.2999 164.9 55.1999L167.4 56.9999L170.3 52.8999Z" fill="#1A2C40"/>
<path d="M159.2 51.2998C159.8 51.4998 161.2 51.7998 163.6 51.2998C163.7 51.2998 163.9 51.2998 164 51.1998C164.6 51.0998 165.2 50.9998 165.8 50.7998C166.1 50.6998 166.5 50.5998 166.8 50.4998C168.1 50.0998 169.1 50.0998 169.9 50.2998C169.9 50.1998 169.8 50.1998 169.8 50.0998C169.3 48.7998 170.7 45.4998 169.9 44.2998C169.7 43.9998 169.5 43.4998 169.5 43.0998C169.5 42.6998 169.6 42.2998 169.8 41.8998C170.4 41.6998 175.2 42.3998 174.5 41.9998C169.6 40.8998 169.7 39.6998 169.7 39.6998C169.7 39.6998 171 38.0998 170.5 36.9998C170.4 36.6998 170.1 36.3998 169.5 36.1998C168.9 35.9998 168.3 35.6998 168 35.0998C167.7 34.6998 167.5 34.1998 167.5 33.6998C167.5 33.5998 167.5 33.3998 167.5 33.2998C167.5 33.2998 170.5 30.3998 172.2 28.1998L171.6 27.7998L167.1 33.5998L155.4 48.4998L159.2 51.2998Z" fill="#1A2C40"/>
<path d="M206.1 62.9001C206.1 62.9001 203.4 58.3001 202.7 50.5001C202.5 50.3001 202.4 50.1001 202.2 49.8001C201.4 48.0001 200.4 46.3001 199.3 44.6001C200.1 43.8001 200.8 42.9001 201.4 41.8001C201.5 41.7001 201.6 41.5001 201.6 41.4001C201.7 41.2001 201.8 41.0001 201.9 40.8001C205.1 33.5001 200 29.6001 195.6 32.8001C194.6 33.5001 193.6 34.6001 192.8 36.1001C191.4 38.8001 190.7 36.8001 190.7 36.8001C190.7 36.8001 190.2 35.6001 191.5 31.5001C191.6 31.2001 192.2 30.1001 192.6 28.7001C192.9 27.4001 193.1 25.8001 192.4 24.3001C192.4 24.2001 192.3 24.2001 192.3 24.1001C191.5 22.5001 189.9 21.1001 186.7 20.0001C186.6 20.0001 186.5 19.9001 186.4 19.9001C183.7 18.9001 181.1 17.5001 178.9 15.6001C178.9 15.6001 178.9 15.6001 178.8 15.7001C178 16.4001 172.4 21.3001 173.2 26.0001C173.3 26.4001 172.8 27.2001 172.1 28.1001C170.4 30.3001 167.4 33.2001 167.4 33.2001C167.4 33.3001 167.4 33.5001 167.4 33.6001C167.4 34.1001 167.6 34.6001 167.9 35.0001C168.3 35.5001 168.8 35.9001 169.4 36.1001C169.9 36.3001 170.2 36.6001 170.4 36.9001C170.8 38.0001 169.6 39.6001 169.6 39.6001C169.6 39.6001 169.5 40.8001 174.4 41.9001C175.1 42.3001 170.4 41.6001 169.7 41.8001C169.5 42.2001 169.4 42.6001 169.4 43.0001C169.4 43.4001 169.6 43.8001 169.8 44.2001C170.6 45.3001 169.2 48.6001 169.7 50.0001C169.7 50.1001 169.8 50.1001 169.8 50.2001C169 50.0001 168 50.0001 166.7 50.4001C166.3 50.5001 166 50.6001 165.7 50.7001C165 50.9001 164.4 51.0001 163.9 51.1001C163.8 51.1001 163.6 51.2001 163.5 51.2001C161.1 51.6001 159.7 51.4001 159.1 51.2001L155.2 48.5001L166.9 33.6001L166.3 33.4001C160.6 37.2001 155.4 41.7001 151 46.9001L144 56.4001L149.3 63.0001L154.4 57.5001C157.9 57.9001 161.5 57.1001 164.6 55.3001C164.7 55.3001 164.8 55.2001 164.8 55.2001C166.6 54.3001 168.4 53.5001 170.2 52.9001C170.8 52.7001 171.5 52.5001 172.1 52.3001C172.1 52.3001 172 52.0001 171.7 51.7001C174.4 52.8001 179 53.3001 181.9 53.6001L181.4 62.1001L175.2 64.2001C177.2 66.3001 179.7 68.0001 182.4 69.1001C185.1 70.2001 188 70.7001 190.9 70.6001C193.8 70.5001 196.7 69.8001 199.3 68.5001C201.9 67.2001 204.1 65.4001 205.9 63.2001L205.6 63.1001L206.1 62.9001Z" fill="#F8A88B"/>
<path d="M179 15.8C181.2 17.7 183.7 19.1 186.5 20.1C186.6 20.1 186.7 20.2 186.8 20.2C190 21.2 191.7 22.7 192.4 24.3C192.4 24.4 192.5 24.4 192.5 24.5C193.2 26 193 27.6 192.7 28.9C192.3 30.3 191.7 31.4 191.6 31.7C190.3 35.8 190.8 37 190.8 37C190.8 37 191.5 38.9 192.9 36.3C193.7 34.8 194.7 33.7 195.7 33C200 29.9 205.2 33.7 202 41C201.9 41.2 201.8 41.4 201.7 41.6C201.6 41.7 201.6 41.9 201.5 42C200.9 43 200.2 43.9 199.4 44.8C200.5 46.4 201.5 48.2 202.3 50C202.5 50.3 202.6 50.5 202.8 50.7C203.7 51.8 204.7 51.6 205.4 50C207 47.2 209.1 44.6 211.4 42.4C211.9 42 212.3 41.5 212.8 41.1C218.3 36.2 220.6 27.9 212.6 17.9C211.7 15.9 210.5 14 208.9 12.4C203.6 7.50001 192 7.60001 192 7.60001C178.8 7.80001 178.3 3.20001 177.6 6.20001C176.9 9.20001 177.3 12.4 178.5 15.2C178.7 15.5 178.8 15.7 179 15.8C178.9 15.8 179 15.8 179 15.8Z" fill="#6A3F4D"/>
<path d="M165.3 216.4V209.9H189.4V207.2H165.3H161.2V216.4H165.3Z" fill="#0D0F22"/>
<path d="M189.4 211.8V209.9H165.2V216.4H161.1H154.4H153.7V220.3H153.8H185.8C185.9 220.2 186.1 220.1 186.2 220C187 219.5 187.8 218.9 188.7 218.3C189 218.1 189.2 218 189.5 217.8C190.2 217.3 190.8 216.9 191.5 216.4H189.5V211.8H189.4Z" fill="#58595B"/>
<path d="M153.7 216.4H148.6V220.3H153.7V216.4Z" fill="#0D0F22"/>
<path d="M229.8 131.8H226.5H160.2H155.5H154.5H138.9L124.9 207.2H156.2H161.2H165.3H189.5H192.9H197.6H202.4C208.1 201.8 213.3 195.8 217.9 189.4C221.5 184.3 224.8 178.9 227.6 173.2C228 172.4 228.4 171.6 228.8 170.7C228.8 170.6 228.9 170.5 228.9 170.4C231.6 164.6 233.8 158.6 235.6 152.3C236 151 236.3 149.7 236.6 148.3C236.7 148 236.8 147.7 236.8 147.3L238.5 137.8L239.2 134C239.3 133.2 239.4 132.5 239.5 131.7H238H229.8V131.8Z" fill="#404041"/>
<path d="M135.2 131.8L121.7 207.2H123.5H124.8L138.9 131.8H137.3H135.2Z" fill="#0D0F22"/>
<path d="M103.2 217.5C100.4 198.9 96.1 187.2 93.1 181C96.1 187.9 99.9 199.7 103.1 219.9C103.4 219.4 103.4 218.6 103.2 217.5Z" fill="#0B5FA4"/>
<path d="M106 172.8H101.9C103.5 173.2 104.8 173.1 106 172.8Z" fill="#02B2A6"/>
<path d="M56.9 172.8C57.8 173 58.6 173.3 59.3 173.5C59.4 173.3 59.6 173.1 59.7 172.8H57.9H56.9Z" fill="#006A88"/>
<path d="M78.8 175.3C78.7 175.2 78.6 175.1 78.8 175.3V175.3Z" fill="#006A88"/>
<path d="M79 175.3C80 175.3 83.2 173.8 85.3 172.7H83.2C81.1 174.2 79.3 175.2 79 175.3Z" fill="#006A88"/>
<path d="M103.1 220.3H103.3C103.3 220.2 103.3 220 103.2 219.9C99.9 199.6 96.2 187.8 93.2 181C91.4 176.9 89.8 174.5 88.7 173.3C88.2 174 87.1 174.7 85.8 175.5C82.8 177.3 78.8 179 78.8 179C78.8 179 73.2 180.9 68.2 183C66.9 183.5 65.6 183.7 64.3 183.6C63.9 183.6 63.6 183.5 63.2 183.5L38.5 182.8H36.7C35.9 182.8 33.7 182.9 30.8 182.9L28.2 188.2C27.2 190.2 26.3 192.2 25.6 194.1C33.6 204.3 43.3 213.2 54.2 220.4H99H103.1V220.3Z" fill="#006A88"/>
<path d="M64.2 75.7C63.1 75.3 62.2 74.6 61.4 73.8C60.6 73 59.9 72 59.5 71L57.7 66.5L57.2 67C57.2 67.1 57.2 67.2 57.3 67.2C57.3 67.7 57.2 68.2 57 68.6C56.8 69 56.4 69.4 56 69.6C55.6 69.8 55.1 69.9 54.6 69.9C54.1 69.8 53.7 69.6 53.3 69.3C53.1 69.2 53 69 52.9 68.8C53 68.9 53 68.9 53 68.9C53 68.9 52.4 70.2 51.2 70.9L51.1 73.1C51.1 73.1 50.8 73 50.2 72.7C49.8 74.7 49.2 76.6 48.6 78.1C48.5 78.2 48.5 78.3 48.4 78.5C48.4 78.6 48.3 78.7 48.3 78.8L47.9 78.6L47.6 78.5L47.7 78.7L48 79.2C48 79.3 47.9 79.3 47.9 79.4L48.3 79.6L49.7 81.7L49.8 81.9L55.3 90.4C56.1 91.6 57 92.8 58 93.9C61.2 97.4 65.4 99.3 68.2 99.2C71.9 99.1 73.2 95.3 67 86.3L67.3 83.4L67.9 77.3L64.2 75.7Z" fill="#F19357"/>
<path d="M52.4001 67.8L51.8 67.5C52.2 68.1 52.6 68.6 52.8 68.8C52.7 68.6 52.6 68.4 52.5 68.2C52.4 68 52.4001 67.9 52.4001 67.8Z" fill="#F19357"/>
<path d="M84.6 109.2L83.7 116.2C86.6 120.4 89.3 124.4 90.1 126C90.2 126.2 90.3 126.4 90.4 126.6H93.5C91.3 119 84.6 109.2 84.6 109.2Z" fill="#006A88"/>
<path d="M40.7 115L29.5 141.8C29.6 143.2 33.5 161.6 33.7 161.6L40.1 118.9L40.7 115Z" fill="#006A88"/>
<path d="M41.3 168.5L41.9001 168.4H41H40.8C41 168.5 41.1 168.5 41.3 168.5Z" fill="#9DB2BA"/>
<path d="M40.9 168.5C40.6 168.4 40.3 168.3 39.9 168.3L39.7999 168.6L39.7 168.9L41.0999 168.7C41.0999 168.5 41 168.5 40.9 168.5Z" fill="#F8A88B"/>
<path d="M30.7001 182.9C33.6 182.9 35.9001 182.8 36.7001 182.8C36.9001 182.8 37 182.8 37 182.8L38.9001 173.5L39 173V172.8H36.7001V172.5V169.4H36.9001L39.8 168.9L39.9001 168.6L40 168.3C40.3 168.4 40.6 168.5 41 168.5H41.2001H42.1L56.9001 165.9H64C64.4001 165.3 64.7001 164.8 64.9001 164.5C65.7001 163.4 66.6 162.4 67.6 161.6C68 161.3 68.4 161.1 68.8 160.8L76.3 138.8L80.4 126.6H82.3H90.4C90.3 126.4 90.2 126.2 90.1 126C89.2 124.4 86.6 120.4 83.7 116.2L84.6 109.2C84.6 109.2 91.3 119 93.6 126.6H99.2L87.7 98.8001C87.7 98.8001 84.2001 90.1001 67.3 83.4001L67 86.3001C73.3 95.2001 71.9 99.0001 68.2 99.2001C65.4 99.3001 61.2001 97.3001 58 93.9001C57 92.8001 56.1 91.6001 55.3 90.4001L49.8 81.9001L49.7001 81.7001L48.3 79.6001L47.9001 79.4001C47.9001 79.3001 48 79.3001 48 79.2001L47.7001 78.7001L47.6 78.5001L47.9001 78.6001L48.3 78.8001C48.3 78.7001 48.4001 78.6001 48.4001 78.5001C48.5 78.4001 48.5 78.3001 48.6 78.1001L32.7001 83.4001C26.1 86.4001 15.1 85.8001 3.00005 136C2.60005 137.4 2.20005 138.9 1.80005 140.3C3.10005 147.7 5.00005 154.9 7.60005 161.7C8.20005 163.3 8.80005 164.8 9.40005 166.3C10.9 170 12.7 173.6 14.6 177.1C15.5 178.8 16.5 180.5 17.5 182.2C17.6 182.4 17.7 182.6 17.9 182.8C22 182.9 26.9001 182.9 30.7001 182.9ZM21.1 163.1L26.9 147.9C27.7 146 28.6 144 29.5 141.8C31.1 151.8 33.2001 160.6 34.7001 166.2L21.1 163.1ZM33.7001 161.6C33.5 161.5 29.6 143.1 29.5 141.8L40.7001 115L40.1 119L33.7001 161.6Z" fill="#02B2A6"/>
<path d="M43.6 169.3H44.1H61.9C62.2 168.7 62.6 168.2 62.9 167.7C63.3 167 63.7 166.4 64 165.9H56.7L41.9 168.5L41.3 168.6H41.2L39.8 168.8L36.9 169.3H39.7H43.6Z" fill="#454F57"/>
<path d="M73.6 156.4C73.6 156.4 76 159 72.5 161.8C71.5 162.6 70.4 164.5 69.6 165.9C69.2 166.6 68.9 167.1 68.8 167.5C68.9 167.5 68.9 167.5 69 167.4C70.3 167.1 71.6 166.7 73 166.5C73.3 166.4 73.8 166.2 74.4 165.8C77.2 164.1 82.6 160 83.4 159.4C84.4 158.6 85 158.8 84.5 160.9C84.2 161.9 82 164 79.9 165.8C79.4 166.2 78.9 166.6 78.4 167C76.9 168.2 75.8 169.1 75.8 169.1H76.1C77.1 168.6 78.4 167.8 79.6 166.9C80.1 166.5 80.6 166.1 81.1 165.7C83.1 164.1 84.7 162.7 84.7 162.7C84.7 162.7 85.1 162.4 85.7 162.1C86.8 161.5 88.5 160.8 88.5 162.5C88.5 163.3 87.5 164.4 86.1 165.7C86 165.8 86 165.8 85.9 165.9C85.6 166.2 85.2 166.5 84.9 166.7C83.9 167.5 82.7 168.4 81.6 169.1L81.5 169.2C80.1 170.2 78.8 171 78.1 171.5C77.8 171.7 77.7 171.8 77.6 171.8C77.6 171.8 77.6 171.8 77.5 171.8L77.7 172.2C77.9 172.1 78.2 171.9 78.4 171.8H78.5C78.7 171.7 78.8 171.6 79 171.5C80.2 170.8 81.5 170 82.7 169.3L82.8 169.2C83.9 168.5 85 167.8 86 167C86.1 167 86.1 166.9 86.2 166.9C86.4 166.8 86.5 166.7 86.7 166.6C87.2 166.2 87.6 166 87.9 165.8C88.2 165.7 88.5 165.7 88.6 165.8C89.1 166.1 89 167 89 167C88.7 167.7 88.1 168.5 87.4 169.2L87.3 169.3C86.9 169.7 86.6 170 86.1 170.4C85.7 170.7 85.3 171.1 84.9 171.4C84.8 171.5 84.7 171.6 84.6 171.6C84.5 171.6 84.5 171.7 84.4 171.7C84 172 83.6 172.3 83.2 172.6H85.3C86.3 172.1 87.1 171.7 87.1 171.7C87.1 171.7 89.2 170.5 89 172.5C89 172.6 89 172.6 88.9 172.7H101.9H106H114.7L115.1 169.3L129.6 126.6H99.1H93.5H90.4H82.3H80.4L76.3 138.8L68.8 160.8C70.8 159.5 72.7 158.2 73.6 156.4ZM98.7 147.1C99.3 146.7 99.9 146.6 100.6 146.7C101 146.8 101.4 147.1 101.7 147.4C102 147.7 102.2 148.2 102.3 148.6C102.4 149 102.3 149.5 102.1 149.9C101.9 150.3 101.6 150.7 101.3 150.9C100.9 151.1 100.5 151.3 100 151.3C99.6 151.3 99.1 151.2 98.7 151C98.3 150.8 98 150.4 97.8 150C97.6 149.6 97.5 149.1 97.6 148.7C97.7 148.1 98.1 147.5 98.7 147.1Z" fill="#0D0F22"/>
<path d="M53.4 172.8H56.7999H57.9H59.7C59.7 172.8 59.7 172.8 59.7 172.7C59.7 172.6 59.7999 172.5 59.7999 172.5C59.9 172.4 59.9 172.3 60 172.2C60.5 171.4 61.1 170.4 61.7 169.4H44.0999H43.5999H39.7H36.9H36.7V172.5V172.8H39H46.5H53.4Z" fill="#0D0F22"/>
<path d="M98.7 151C99.1 151.2 99.5 151.4 100 151.3C100.4 151.3 100.9 151.2 101.3 150.9C101.7 150.7 102 150.3 102.1 149.9C102.3 149.5 102.3 149 102.3 148.6C102.2 148.2 102 147.7 101.7 147.4C101.4 147.1 101 146.8 100.6 146.7C99.9 146.6 99.2 146.7 98.7 147.1C98.1 147.5 97.7 148.1 97.6 148.7C97.6 149.1 97.6 149.6 97.8 150C98 150.4 98.3 150.7 98.7 151Z" fill="#454F57"/>
<path d="M89 172.6C89.2 170.6 87.0999 171.8 87.0999 171.8C87.0999 171.8 86.4 172.2 85.3 172.7C83.2 173.7 80 175.3 79 175.3C79.2999 175.2 81.0999 174.1 83.1999 172.7C83.5999 172.4 84 172.1 84.4 171.8C84.5 171.8 84.5 171.7 84.5999 171.7C84.6999 171.6 84.8 171.5 84.9 171.5C85.3 171.2 85.6999 170.9 86.0999 170.5C86.5 170.1 86.9 169.8 87.3 169.4L87.4 169.3C88.1 168.6 88.7 167.8 89 167.1C89 167.1 89.0999 166.2 88.5999 165.9C88.3999 165.8 88.2 165.8 87.9 165.9C87.6 166 87.1999 166.2 86.6999 166.7C86.4999 166.8 86.3999 166.9 86.1999 167C86.0999 167 86.0999 167.1 86 167.1C84.9 167.8 83.9 168.6 82.8 169.3L82.6999 169.4C81.4999 170.2 80.2999 170.9 79 171.6C78.7999 171.7 78.7 171.8 78.5 171.9H78.4C78.2 172 77.8999 172.2 77.6999 172.3L77.5 171.9C77.5 171.9 77.5 171.9 77.5999 171.9C77.6999 171.9 77.8999 171.7 78.0999 171.6C78.7999 171.2 80.0999 170.3 81.5 169.3L81.5999 169.2C82.6999 168.5 83.8 167.6 84.9 166.8C85.3 166.5 85.6 166.2 85.9 166C86 165.9 86 165.9 86.0999 165.8C87.5 164.6 88.5 163.4 88.5 162.6C88.5 160.9 86.7999 161.5 85.6999 162.2C85.0999 162.5 84.6999 162.8 84.6999 162.8C84.6999 162.8 83.0999 164.3 81.0999 165.8C80.5999 166.2 80.0999 166.6 79.5999 167C78.3999 167.9 77.0999 168.8 76.0999 169.2H75.8C75.8 169.2 77 168.3 78.4 167.1C78.9 166.7 79.4 166.3 79.9 165.9C82 164.1 84.2 162 84.5 161C85.0999 159 84.4 158.7 83.4 159.5C82.6 160.2 77.2 164.2 74.4 165.9C73.8 166.3 73.2999 166.5 73 166.6C71.7 166.8 70.2999 167.1 69 167.5C68.9 167.5 68.9 167.5 68.8 167.6C69 167.3 69.2999 166.7 69.5999 166C70.3999 164.6 71.5 162.7 72.5 161.9C75.9 159.1 73.5999 156.5 73.5999 156.5C72.6999 158.3 70.8 159.6 68.8 160.9C68.4 161.2 67.9999 161.4 67.5999 161.7C66.5999 162.5 65.7 163.5 64.9 164.6C64.7 164.9 64.4 165.4 64 166C63.7 166.5 63.3 167.1 62.9 167.8C62.6 168.3 62.2 168.9 61.9 169.4C61.3 170.4 60.7 171.3 60.2 172.2C60.1 172.3 60.1 172.4 60 172.5C60 172.6 59.9 172.7 59.9 172.7C59.9 172.7 59.9 172.7 59.9 172.8C59.7 173.1 59.6 173.3 59.5 173.5C58.7999 173.3 57.9999 173.1 57.0999 172.8H57H53.5999H46.7H39V173L38.9 173.5L37 182.8C37 182.8 36.9 182.8 36.7 182.8H38.5L63.2 183.5C63.5 183.6 63.9 183.6 64.3 183.6C65.6 183.7 66.9999 183.5 68.1999 183C73.1999 180.9 78.8 179 78.8 179C78.8 179 82.8 177.3 85.8 175.5C87.1 174.7 88.1999 173.9 88.6999 173.3C88.7999 173.1 88.9 173 89 172.8C89 172.7 89 172.6 89 172.6ZM78.9 175.3C78.8 175.3 78.8 175.3 78.9 175.3C78.6 175.1 78.7 175.2 78.9 175.3Z" fill="#F8A88B"/>
<path d="M51.1 71.0002C50.9 71.1002 50.7 71.3002 50.5 71.4002C49.9 71.7002 49.1 71.8002 48.2 71.4002C47.6 71.0002 47.1 70.6002 46.6 70.2002C48.1 71.5002 49.4 72.4002 50.2 72.8002C50.7 73.1002 51.1 73.2002 51.1 73.2002V71.0002Z" fill="#F39357"/>
<path d="M52.4001 66.6998C52.5001 66.3998 52.7001 66.0998 52.9001 65.8998C53.1001 65.6998 53.4001 65.3998 53.7001 65.2998C54.0001 65.1998 54.3001 65.0998 54.6001 64.9998C54.9001 64.9998 55.2001 64.9998 55.6001 65.0998C56.1001 65.1998 56.5001 65.4998 56.8001 65.8998C57.1001 66.1998 57.2001 66.5998 57.3001 66.9998L57.8001 66.4998L59.6001 70.9998C60.0001 72.0998 60.7001 72.9998 61.5001 73.7998C62.3001 74.5998 63.3001 75.2998 64.3001 75.6998L68.0001 77.1998L73.3001 79.3998C74.6001 79.9998 76.0001 80.0998 77.4001 79.8998C78.2001 79.7998 78.9001 79.3998 79.5001 78.8998C80.5001 77.9998 80.3001 76.1998 80.2001 74.4998L82.8001 73.6998C83.1001 73.0998 83.1001 72.3998 82.8001 71.7998C82.6001 71.1998 82.1001 70.6998 81.5001 70.3998C81.5001 70.3998 77.4001 70.8998 82.7001 69.3998C83.0001 69.3998 83.3001 69.1998 83.5001 69.0998C83.7001 68.8998 83.9001 68.6998 84.1001 68.3998C84.2001 68.0998 84.3001 67.7998 84.3001 67.5998C84.3001 67.2998 84.2001 66.9998 84.1001 66.6998C84.1001 66.6998 82.0001 65.7998 82.0001 64.5998C81.6001 63.7998 84.1001 63.5998 84.9001 62.3998C85.0001 61.9998 85.1001 61.5998 85.0001 61.2998C84.9001 60.8998 84.8001 60.5998 84.6001 60.2998C83.5001 59.3998 80.3001 56.5998 80.3001 53.3998C80.6001 50.8998 80.4001 48.2998 79.5001 45.9998C78.6001 43.5998 77.2001 41.4998 75.3001 39.8998C74.7001 39.2998 74.1001 38.7998 73.4001 38.2998C72.6001 38.5998 71.8001 38.9998 71.1001 39.5998C70.4001 40.1998 69.9001 40.9998 69.5001 41.7998C67.7001 45.3998 66.5001 46.2998 65.6001 46.7998C64.7001 47.3998 63.9001 48.2998 63.5001 49.3998C63.1001 50.3998 62.9001 51.5998 63.1001 52.6998C63.8001 56.2998 62.5001 58.3998 61.5001 59.3998C61.0001 59.8998 60.6001 60.1998 60.6001 60.1998C60.6001 60.1998 60.2001 59.5998 59.6001 58.8998C58.3001 57.3998 55.9001 55.1998 53.0001 56.2998C47.3001 58.4998 49.5001 63.7998 51.3001 66.7998C51.5001 67.0998 51.6001 67.2998 51.8001 67.5998L52.4001 67.8998C52.3001 67.3998 52.3001 67.0998 52.4001 66.6998Z" fill="#F39357"/>
<path d="M20.9 60.0001C21.9 60.4001 23 60.4001 24 60.0001C25 59.7001 25.9 59.0001 26.4 58.1001C27.1 58.6001 27.9 58.9001 28.8 58.9001C29.7 58.9001 30.5 58.6001 31.2 58.1001C31.9 57.6001 32.4 56.9001 32.6 56.0001C32.8 55.2001 32.8 54.3001 32.5 53.5001C32.6 53.5001 32.7 53.6001 32.9 53.6001C33.6 53.8001 34.4 53.7001 35.1 53.5001C35.7 53.3001 36.2 53.0001 36.7 52.5001C37.3 57.9001 40.1 62.2001 41.5 64.3001C43 66.4001 44.7 68.3001 46.7 69.9001C47.2 70.3001 47.8 70.8001 48.3 71.1001C49.2 71.5001 49.9 71.4001 50.6 71.1001C50.8 71.0001 51 70.9001 51.2 70.7001C52.3 69.9001 53 68.7001 53 68.7001C53 68.7001 53 68.7001 52.9 68.6001L52.8 68.5001C52.6 68.3001 52.3 67.8001 51.8 67.2001C51.6 67.0001 51.5 66.7001 51.3 66.4001C49.4 63.3001 47.3 58.1001 53 55.9001C55.9 54.8001 58.3 57.0001 59.6 58.5001C60.2 59.2001 60.6 59.8001 60.6 59.8001C60.6 59.8001 61 59.6001 61.5 59.0001C62.5 58.0001 63.8 55.8001 63.1 52.3001C62.9 51.2001 63 50.0001 63.5 49.0001C63.9 48.0001 64.7 47.1001 65.6 46.4001C66.6 45.9001 67.7 44.9001 69.5 41.4001C69.9 40.6001 70.4 39.8001 71.1 39.2001C71.8 38.6001 72.5 38.2001 73.4 37.9001H73.5C72.7 33.1001 51 27.0001 43 35.7001C41.1 37.7001 39.8 39.7001 38.8 41.6001C38.5 41.3001 38.1 41.0001 37.6 40.8001C38.2 40.1001 38.5 39.2001 38.5 38.3001C38.5 37.4001 38.3 36.5001 37.7 35.7001C37.3 35.1001 36.7 34.6001 36 34.2001C35.9 34.1001 35.7 34.1001 35.6 34.0001C34.7 33.7001 33.8 33.7001 32.9 33.9001C32.5 32.7001 31.7 31.6001 30.7 30.8001C29.7 30.0001 28.4 29.6001 27.1 29.6001C25.8 29.6001 24.5 30.0001 23.4 30.7001C22.3 31.4001 21.5 32.5001 21.1 33.8001C20.2 33.2001 19.2 32.9001 18.1 32.8001C17 32.8001 16 33.1001 15 33.5001C14 34.0001 13.2 34.7001 12.6 35.6001C12 36.5001 11.6 37.5001 11.5 38.6001C11.5 39.1001 11.5 39.6001 11.5 40.0001C10.7 40.2001 9.90002 40.6001 9.30002 41.2001C8.70002 41.8001 8.30002 42.6001 8.10002 43.4001C7.90002 44.2001 8.00002 45.1001 8.30002 45.9001C8.60002 46.7001 9.10002 47.4001 9.80002 47.8001C9.30002 48.3001 8.80002 48.9001 8.50002 49.5001C8.20002 50.2001 8.10002 50.9001 8.00002 51.6001C8.00002 52.3001 8.10002 53.0001 8.40002 53.7001C8.70002 54.4001 9.10002 55.0001 9.60002 55.5001C10.1 56.0001 10.7 56.4001 11.4 56.6001C12.1 56.9001 12.8 57.0001 13.5 56.9001C14.2 56.9001 14.9 56.7001 15.6 56.3001C16.2 56.0001 16.8 55.5001 17.3 55.0001C17.2 55.6001 17.3 56.2001 17.5 56.8001C17.6 57.2001 17.8 57.6001 18 58.0001C19 59.0001 19.9 59.7001 20.9 60.0001Z" fill="#8B191B"/>
<path d="M54.5 69.9C55 70 55.5 69.9 55.9 69.6C56.3 69.4 56.7 69 56.9 68.6C57.1 68.2 57.2 67.7 57.2 67.2C57.2 67.1 57.2 67 57.1 67C57 66.6 56.9 66.2 56.6 65.9C56.3 65.5 55.9 65.2 55.4 65.1C55.1 65 54.8 65 54.4 65C54.1 65 53.8 65.1 53.5 65.3C53.2 65.4 53 65.7 52.7 65.9C52.5 66.1 52.3 66.4 52.2 66.7C52.1 67 52.1 67.4 52.1 67.7C52.1 67.8 52.1 68 52.2 68.1C52.3 68.3 52.4 68.5 52.5 68.7L52.6 68.8C52.7 69 52.8 69.1 53 69.3C53.6 69.7 54 69.9 54.5 69.9Z" fill="#77BDF6"/>
<path d="M153.8 220.3H148.7H103.3H103.1H99H54.2C69 230.1 86.1999 236.6 104.6 239C109.7 239.7 114.8 240 120.1 240C130.9 240 141.3 238.6 151.2 235.9C163.7 232.6 175.3 227.3 185.8 220.4L185.9 220.3H153.8Z" fill="#DD785E"/>
</g>
<defs>
<clipPath id="clip0_21440_113739">
<rect width="240" height="240" fill="white"/>
</clipPath>
</defs>
</svg>
