<svg id="Layer_1" data-name="Layer 1" xmlns="http://www.w3.org/2000/svg" viewBox="0 0 468 253"><defs><style>.cls-1{fill:#231f20;}.cls-2{fill:#ea7d3e;}.cls-3{fill:#f4f4f3;}.cls-4{fill:#0b5fa4;}.cls-5{fill:#6a3f4d;}.cls-6{fill:#02b2a6;}.cls-7{fill:#ea7f67;}.cls-8{fill:#e97c3d;}.cls-9{fill:#ab440a;}.cls-10{fill:#20998d;}.cls-11{fill:#051532;}.cls-12{fill:#faba1c;}.cls-13{fill:#f8c9ab;}.cls-14{fill:#006a88;}.cls-15{fill:#983120;}.cls-16{fill:#0076bd;}.cls-17{fill:#223c49;}.cls-18{fill:#afc0c8;}.cls-19{fill:#bcbcbc;}.cls-20{fill:#979798;}.cls-21{fill:#a4bed1;}.cls-22{fill:#eaeaea;}.cls-23{fill:#80a850;}.cls-24{fill:#e9e8eb;}.cls-25{fill:#f39357;}.cls-26{fill:#668640;}.cls-27{fill:#ec7f65;}.cls-28{fill:#0d0f22;}.cls-29{fill:#603813;}.cls-30{fill:#33bcb1;}</style></defs><path className="cls-1" d="M199.7424,130.099s5.516-30.9534-8.1216-51.9465c-4.868-7.4928-20.3807-9.0411-20.3807-9.0411Z"/><path className="cls-2" d="M158.11,71.0476s-14.4521,2.3153,5.4137,36.0892c18.8551,32.0555,21.3322,30.8608,21.3322,30.8608l8.0654-15.1744A219.8644,219.8644,0,0,0,179.8568,92.84c-8.2981-15.6458-12.53-24.7438-21.747-21.7923"/><polygon className="cls-2" points="196.575 148.793 153.363 149.203 152.532 129.046 196.064 109.336 196.575 148.793"/><path className="cls-2" d="M153.05,73.95s-9.422-11.2-28.1563,23.2154c-17.7812,32.6631-15.4826,34.1724-15.4826,34.1724l17.1614-.894a219.8888,219.8888,0,0,0,18.9848-26.6321c9.1445-15.1673,14.767-23.4778,7.4927-29.8617"/><path className="cls-2" d="M104.0718,164.5362l.5151,42.0591,8.592-2.04s8.5521-30.3161,9.06-39.4514.8313-11.3794.8313-11.3794-11.1541-2.5513-16.1429-.7291c-1.3218.4827-2.6215,7.3142-2.8556,11.5408"/><path className="cls-2" d="M112.5038,202.3878a46.0463,46.0463,0,0,1,1.9342,10.0586,105.0368,105.0368,0,0,1-.572,12.296s-.3054,1.8483-1.5839,1.731-1.9829-1.6493-1.9829-1.6493a2.8737,2.8737,0,0,1-2.5555.8686,2.5208,2.5208,0,0,1-1.48-2.0474,3.6174,3.6174,0,0,1-2.57.142c-1.38-.46-1.01-2.56-1.01-2.56a3.7824,3.7824,0,0,1-2.3623-.4163c-.809-.63-.263-2.3473-.263-2.3473a1.9843,1.9843,0,0,1-1.6459-1.5627c-.2939-1.4047,6.1079-11.4551,6.1079-11.4551Z"/><polygon className="cls-1" points="197.444 173.023 144.578 162.585 152.546 150.632 190.854 153.246 197.444 173.023"/><path className="cls-3" d="M103.0674,205.2618l11.7908,2.1113s5.8106-20.7865,8.2618-50.5692c0,0,33.4327-52.8885,25.6583-67.3613-9.3334-17.3753-19.7-7.884-32.5036,12.4563-11.3571,18.04-13.7985,55.1555-13.7985,55.1555s-2.14,36.421.5912,48.2074"/><path className="cls-4" d="M101.5789,202.5718l14.5173,2.844s5.8744-23.25,10.1869-47.9411l25.4243-49.6136s4.5555-22.03-7.1007-30.4988-18.6046,1.8091-18.6046,1.8091-19.3177,27.9867-24.7932,62.8407.37,60.56.37,60.56"/><path className="cls-4" d="M130.765,75.161s38.8266-21.57,88.1306,0l-7.0637,81.1835,1.7053,32.3561-77.8157,4.1738,3.59-34.0162Z"/><path className="cls-4" d="M138.9526,187.7587c-1.8922,40.4516-1.6375,89.4094,1.6155,150.2466h16.6938l22.0792-148.6311Z"/><path className="cls-4" d="M211.437,187.7587c2.1009,55.4014,2.0757,106.5192-1.6155,150.2466H193.1272L171.0484,189.3742Z"/><path className="cls-2" d="M187.5327,67.9415c-2.1633-2.5823-6.9064-18.3229-6.9064-18.3229l-17.2386,3.7507,3.5879,14.9243L163.063,73.093s11.3189,14.3256,20.6049,10.7884,5.6186-13.8465,3.8648-15.94"/><path className="cls-5" d="M158.9084,28.5574c6.02,7.326,9.2343,26.0534,18.7114,26.339s11.47-7.6486,12.4315-14.9649c1.2365-9.4015-7.1832-17.0363-16.6437-17.6776-6.6049-.4476-10.6024.8886-13.9542-1.2983-1.1858-.7732-3.1583,4.4215-.545,7.6018"/><path className="cls-2" d="M158.8918,28.6872a53.5793,53.5793,0,0,0-2.9971,5.9959,8.329,8.329,0,0,0-.1646,5.5031c.1827.6235-.77,1.1878-1.113,1.8257L151.5212,46.83s-.4015,1.6808.903,1.6123c1.79-.0942,1.7288.7133,1.7288.7133a3.1833,3.1833,0,0,1-.3806,2.1022c-1.0839,1.2442.6791,2.0288,1.3095,2.1539s-.7422.0831-.9914,1.3437.8033,1.3986.8033,1.3986c1.2584.9461-1.4776,4.2257,2.1393,5.3848,2.5213.8075,12.3992-.2965,14.9526-4.342l2.9717-7.4152s3.6285.1572,4.2518-2.9949-.2128-6.4311-3.3119-6.2958c-3.9172.1714-3.51,4.7434-3.51,4.7434s-2.5851,3.455-2.3309-1.2021c.2168-3.9719-2.9676-7.5285-2.9676-7.5285a6.6988,6.6988,0,0,0,.3523-4.5231c-.66-2.662-8.5494-3.2937-8.5494-3.2937"/><path className="cls-5" d="M172.5137,42.7664s-.52,6.5149.4284,10.8619-4.077,7.5414-11.1654,8.7313c-4.6459.7792-5.8572-.41-5.8572-.41s-2.36-4.5336-.6639-5.2922c2.3033-1.03,3.43-1.926,3.1876-3.1063-.124-.6062-1.5767-1.1589-2.1948-1.1815a23.3353,23.3353,0,0,1-2.9434-.2328c-.7683-.1421-.872-2.0256.8143-3.1418s6.8905,2.9783,8.43,2.0529,8.4548-1.1486,6.9229-11.2338,3.0416,2.9522,3.0416,2.9522"/><path className="cls-5" d="M181.9069,50.7679c-.2533-9.5072,8.8219-11.5532,7-6.6174-1.7631,4.7779-2.883,8.0571-4.8926,9.2442-2.3008,1.36-6.15-2.8954-6.15-2.8954Z"/><path className="cls-2" d="M183.4343,58.832l-1.3794-4.47s-4.4437,1.0469-5.1329-3.9329-1.5326-1.6349-1.5326-1.6349l-2.63,2.4012s-.171,6.4356-1.78,7.6617,12.4554-.0256,12.4554-.0256"/><path className="cls-4" d="M157.5317,68.8355l33.9264.7181,1.0773,22.3485s-33.3107,26.0773-35.0037-23.0666"/><polygon className="cls-3" points="188.412 68.746 178.428 165.17 173.941 164.811 164.987 69.116 188.412 68.746"/><polygon className="cls-3" points="188.412 68.746 189.849 66.143 185.81 63.001 173.513 68.925 165.615 65.335 163.82 66.682 171.18 85.036 188.412 68.746"/><path className="cls-4" d="M218.8955,75.161s25.1579,17.2793,35.5694,61.797L234.36,164.9611s-13.9569-37.0681-21.4955-45.3249,6.031-44.4752,6.031-44.4752"/><path className="cls-4" d="M211.1137,184.5276s15.617-45.6849,17.7716-53.5827,25.4223,4.8686,25.4223,4.8686.8755,38.7964-43.1041,69.3569Z"/><polygon className="cls-3" points="211.428 204.856 207.031 189.957 205.325 191.663 210.979 205.574 211.428 204.856"/><path className="cls-6" d="M173.5134,68.9253s-2.2653,3.53-1.9961,5.1457a1.1242,1.1242,0,0,0,.829.85c3.6813,1.2369,4.1525-.7152,4.1525-.7152s-1.6831-5.9911-2.9854-5.28"/><path className="cls-6" d="M188.1217,142.2833s-4.7568-3.321-9.4241-19.3867c-3.5835-12.3356-6.3514-47.9759-6.3514-47.9759l3.4121-.1094s12.9019,48.893,20.98,54.8167l2.6925,16.1557Z"/><path className="cls-7" d="M276.4054,207.1335s-13.4873-14.8181-31.7763-20.1068c0,0-.3465-11.21,16.4-30.6l34.9128.7224,9.1564,24.6179a83.9334,83.9334,0,0,0-17.733,17.482c-6.15,8.0424-8.1448,6.7266-10.5036,7.8058Z"/><path className="cls-8" d="M258.9848,277.1373c-.116,2.6973,3.8807,16.8081,2.17,28.1371-1.9728,13.0631-20.9036,44.56-14.6463,54.2312,0,0,3.4448,4.69,1.3929,7.88s-3.968,1.1535-7.4013,5.2376a98.96,98.96,0,0,0-6.6884,9.2287l-14.4457.1344s-1.27-1.9653,2.809-4.2805c3.8214-2.1692,4.112-.1685,5.2819-2.0922,1.0566-1.7367,3.427-14.0023,3.427-14.0023s5.27-41.4342,4.6612-81.9072c0,0-2.361-78.8245,10.1551-99.4669s35.8194,18.13,35.8194,18.13Z"/><path className="cls-9" d="M211.3752,275.8855l-46.8169-11.9367a8.4066,8.4066,0,0,1-6.0513-10.1933l7.54-29.5737a8.4074,8.4074,0,0,1,10.1933-6.0521l46.8169,11.9376a8.4063,8.4063,0,0,1,6.0513,10.1933l-7.54,29.5736A8.4062,8.4062,0,0,1,211.3752,275.8855Z"/><path className="cls-9" d="M213.7825,229.379c.382-2.1686,3.4674-21.3006-5.844-25.3089-9.3835-4.0417-20.6784,17.11-22.8463,21.3913l3.7388,1.8937c4.5213-8.9211,13.1968-21.2665,17.4506-19.435,5.3221,2.2906,4.1891,16.0809,3.3732,20.7317Z"/><path className="cls-8" d="M200.154,207.8076l5.3548,5.8275s1.0545,1.2954,1.9488.7136c0,0,1.4844,1.8561,1.7252.0647,0,0,.8806,1.2129,1.5082-.2039s-1.96-5.2382-1.96-5.2382S202.476,204.5237,200.154,207.8076Z"/><path className="cls-8" d="M209.6412,190.1829s-9.3768,8.9526-10.1967,14.8245,9.6516,4.9182,9.6516,4.9182L213.49,196.954Z"/><path className="cls-6" d="M266.3138,86.9936s-15.8081-8.09-22.8662,6.1884-14.5242,51.34-14.5242,51.34l17.0038,1.4126S262.725,108.39,267.5914,99.1965C270.1767,94.3123,272.9886,89.3368,266.3138,86.9936Z"/><path className="cls-6" d="M265.8581,87.2s-15.808-8.09-22.8662,6.1891S230.37,144.7979,230.37,144.7979L246.801,142.73s15.4684-34.1332,20.3348-43.3271C269.721,94.519,272.5329,89.5442,265.8581,87.2Z"/><path className="cls-8" d="M313.888,300.2907c-.8725-12.4809-7.1887-26.1977-7.1887-26.1977l3.5019-58.9087S285.41,173.55,277.3921,196.7479s8.6132,86.2429,8.6132,86.2429c7.1288,30.8167,11.8294,61.9765,13.1239,74.8664L311.2,353.7053C308.4349,339.853,314.67,311.4873,313.888,300.2907Z"/><path className="cls-6" d="M253.2507,156.3684,251.3694,127.33s-10.9314-7.479-3.4517-19.5619S253.39,85.3182,253.39,85.3182l16.8216-4.5144c2.4257,4.6052,10.6613,3.2368,20.7126,0l16.0114,5.8419s5.7627,33.6543-10.3475,69.9014Z"/><path className="cls-10" d="M301.76,156.4134c3.7457-14.3127,5.0138-33.2422,4.8153-34.1086L288.3845,93.7694l9.6306,27.1084c.2306,4.9407-.4789,6.0035-2.7122,10.4163L287.7154,156.28Z"/><path className="cls-6" d="M293.7455,83.2029s7.7171-9.8774,19.1424,1.22c23.6349,22.9562,25.6349,31.6849,27.3949,37.3474,4.1017,13.1975-5.8146,26.6125-22.1151,14.089L301.03,108.8468S285.1532,94.8075,293.7455,83.2029Z"/><path className="cls-6" d="M215.172,197.0365s17.5229-22.5762,24.5034-36.8284c5.4237-11.0725,6.5533-14.4614,6.5533-14.4614l-16.5638-2.116-3.5683,4.3159a32.0658,32.0658,0,0,0-5.2873,9.11l-12.866,34.0725Z"/><path className="cls-10" d="M251.3127,126.9905c-2.3008-1.9066-3.9121-5.9156-4.8582-8.9361a60.2976,60.2976,0,0,1,3.1072-12.3046c.8758-2.0621-4.9148,2.7116-4.5329,14.01a190.892,190.892,0,0,0,.9741,25.987l6.2137-13.6715Z"/><path className="cls-11" d="M232.5626,342.56l17.1212,1.4264s18.0127-32.9933,13.9109-63.8473l14.2671-70.9813-22.8279-47.0823s-21.401,8.2034-21.0443,111.2864C234.1486,319.3763,232.5626,342.56,232.5626,342.56Z"/><path className="cls-11" d="M294.27,341.1334l16.7644-1.4264s10.3434-36.3828-1.4271-66.3447c0,0,14.8176-86.721-11.726-117.0165H255.3906l-6.5984,12.9083,24.433,54.1719Z"/><path className="cls-12" d="M293.6207,38.8724s9.6244-9.9886,18.1382-3.0976c11.2765,9.1271.1747,15.9151,13.7132,37.2376,13.3571,21.0366-5.496,26.3321-5.496,26.3321.5382-8.844-15.5271-7.69-14.1634-26.0859C307.1612,55.0672,303.81,39.0859,295.4755,42.3S293.6207,38.8724,293.6207,38.8724Z"/><path className="cls-12" d="M278.2309,60.8982s-.93.459,1.2257-3.1823,2.4988-5.4264-.2721-5.481a6.7694,6.7694,0,0,0-4.0724.9475s-12.2056-7.5377-6.4-17.5864A17.7553,17.7553,0,0,1,284.64,34.4848c9.2744,3.8426,13.55,14.7855,9.5494,24.4419s-12.4281,14.05-21.7025,10.207a5.8862,5.8862,0,0,1,1.6535-2.5628A21.6368,21.6368,0,0,0,278.2309,60.8982Z"/><path className="cls-13" d="M256.14,53.0112a10.0344,10.0344,0,0,0,2.5519-1.4932c2.72-2.292,1.6119-5.1338,3.8841-9.1707,1.9332-3.4346,6.374-5.8024,7.7219-6.4415.1276-.0553.2564-.1078.3854-.16,3.12,8.0623,3.8056,18.3231,3.8056,18.3231s2.5227-4.2129,5.8543-2.2865c2.4,1.3874,2.69,5.668-.0178,8.92a3.5115,3.5115,0,0,1-4.5615,1.0655s-1.6078,5.582-4.8187,6.3692a32.2394,32.2394,0,0,1-4.83.5839c-3.52.2313-6.833.2619-6.833.2619-2.4407-.1337-3.041-1.4216-3.1174-2.4714a3.63,3.63,0,0,1,.3922-1.8554l.5915-1.2013c-.0144.0137-.1249.0157-1.0014-.7326-1.01-.8622.82-2.2538.82-2.2538-1.4386-.5082-1.7627-1.6255-.6426-2.264a1.3626,1.3626,0,0,0,.6392-1.7381C254.1906,54.2554,256.14,53.0112,256.14,53.0112Z"/><path className="cls-12" d="M268.83,35.5346s-6.3446,2.7812.37,9.6933a18.7016,18.7016,0,0,1,5.0683,9.1919s1.5614-2.97,4.0451-3.131S275.0043,33.3852,268.83,35.5346Z"/><path className="cls-13" d="M267.0355,64.8785,270.37,82.2193c4.91,2.4666,14.26,3.0076,19.9747-.8922l-.2654-.5765L278.1449,53.6763Z"/><path className="cls-11" d="M270.8681,55.46h23.287a2.2849,2.2849,0,0,1,2.2849,2.2849V67.7591a2.2843,2.2843,0,0,1-2.2843,2.2843h-23.288a2.2842,2.2842,0,0,1-2.2842-2.2842V57.7449a2.2846,2.2846,0,0,1,2.2846-2.2846Z" transform="translate(171.2332 329.8993) rotate(-79.9094)"/><path className="cls-13" d="M284.7139,85.5781s-4.4237-7.5315-5.1829-8.8863a12.55,12.55,0,0,1-1.1133-3.1985c-.2319-2.4216-.3083-4.9511-1.5369-6.6844,0,0,2.9183-.7537,3.6652,2.98.3807,1.9012,2.9721,5.3787,2.9721,5.3787s1.6228.9462,1.6-.2994c-.0041-.2115,3.9,10.8815,3.9,10.8815C287.48,86.9677,284.7139,85.5781,284.7139,85.5781Z"/><path className="cls-13" d="M290.2959,86.2637a8.4752,8.4752,0,0,0,2.8187-5.2921c.44-4.6358,1.2353-9.6182,1.2353-9.6182s.706-9.4382-.7456-10.3659-1.3377,1.1269-1.3377,1.1269.0225,7.3249-.72,7.7055c-.2674.1371.1324-.0941.1324-.0941s-.0914-8.3427-2.262-10.9252c0,0-1.8582-1.2-1.2934,1.6255a83.7331,83.7331,0,0,1,.78,9.2472l-.3717-.0526s-.7143-11.1653-2.6747-12.1381c-1.9537-.9693-1.3936,2.9442-1.3936,2.9442s1.5866,6.1427,1.4358,9.1039l-.1589.2244s-1.5088-8.6591-2.8322-9.9163-1.7552-.8738-1.5519.2107,1.5853,9.4007,1.247,10.7527a35.1549,35.1549,0,0,0-1.26,4.7532,14.5,14.5,0,0,0,1.58,5.7027c1.0259,1.2,2.6147,3.8773,3.363,4.39.2353.161-.5307-.1357-.3943.0184.5409.6119-.028.5274.6849.6024C286.5776,86.2685,289.7611,86.76,290.2959,86.2637Z"/><polygon className="cls-14" points="286.779 90.069 284.505 84.986 293.2 81.107 300.155 89.133 286.779 90.069"/><path className="cls-6" d="M296.7654,83.0563s22.7529,18.1211,32.1119,34.3378,7.8031,16.6048,7.8031,16.6048L320.8355,136.26a5.5075,5.5075,0,0,1-5.1563-2.5356,61.9759,61.9759,0,0,1-18.5441-22.3088l-11.39-23.1473Z"/><path className="cls-10" d="M295.6071,83.6934s27.1978,20.5093,31.9237,31.745S339.2125,112.4956,295.6071,83.6934Z"/><path className="cls-15" d="M372.4054,76.0519l10.6489-3.259h9.7148l12.953,4.2346-13.1315,26.5911S365.742,89.5239,372.4054,76.0519Z"/><path className="cls-16" d="M405.9086,377.127l18.4332-1.7156s6.6434-159.838-3.3-196.1762H382.6875l1.4961,37.4859S392.8683,322.804,405.9086,377.127Z"/><path className="cls-17" d="M421.3476,175.9813h-65.66v6.7869h65.66S420.6373,176.6916,421.3476,175.9813Z"/><path className="cls-16" d="M355.7866,377.127l-18.4332-1.7156s1.5756-159.838,11.5192-196.1762h38.3541l-1.4961,37.4859S368.8268,322.804,355.7866,377.127Z"/><path className="cls-18" d="M402.11,75.72l19.4785,5.8538a24.6,24.6,0,0,1,13.3582,11.8381,27.1294,27.1294,0,0,1,2.805,8.9407c1.9512,14.1466,6.8294,37.5617,6.8294,37.5617L422.63,155.0364l-7.3172-33.6592-13.171-22.4395Z"/><path className="cls-19" d="M372.3977,76.039l-18.4121,5.3692c-5.7076,1.8943-8.4794,1.1585-11.2766,6.3435-1.2805,2.3735-4.1738,10.5065-5.2311,13.8146-7.2861,22.7961-11.583,53.728-11.583,53.728l27.05-2.6179,7.3172-32.6537,13.171-21.7691Z"/><path className="cls-4" d="M372.4054,76.0519s11.0262,8.9208,15.5722,8.734c4.1724.0623,14.2572-9.0661,14.2572-9.0661l11.7075,49.57-48.7607-2.8024-1.4323-27.0893Z"/><polygon className="cls-4" points="351.294 123.367 351.917 198.151 425.219 198.151 432.135 109.223 358.527 110.863 351.294 123.367"/><polygon className="cls-16" points="381.497 228.229 390.091 230.471 394.201 218.328 380.563 219.075 381.497 228.229"/><path className="cls-19" d="M437.8017,91.739c4.7424,11.2632,14.3231,43.5281,17.0632,64.0084l-22.1074,5.2258-13.46-44.8875Z"/><path className="cls-19" d="M342.3353,244.67h27.8989c-3.003,7.7758-4.1774-108.71,0-138.9961,1.4945-10.8357,2.6479-18.9369,3.5139-24.4247.4288-2.7167,3.15-6.01,5.6141-7.2324l-.1538-.2307h0l-33.3235,9.6559s-5.7914,5.7915-9.5279,23.7265c-2.0881,10.0228,22.4187,11.4584,22.4187,11.4584l-7.9711,22.6679Z"/><path className="cls-19" d="M435.4938,244.67H403.36c2.0945-47.9362,4.5624-94.85,1.9965-139.4943L403.36,81.8a7.934,7.934,0,0,0-3.8921-6.8271h0l.0662-.7547,33.0363,9.7845s6.7256,6.3519,8.5939,22.045c1.21,10.1663-18.3709,12.5794-18.3709,12.5794l5.8537,26.4043Z"/><polygon className="cls-19" points="357.655 149.515 348.189 146.899 343.581 114.268 363.633 114.143 357.655 149.515"/><polygon className="cls-20" points="430.181 174.876 430.889 178.348 426.912 115.702 430.267 107.916 424.662 114.491 430.181 174.876"/><path className="cls-19" d="M327.9593,150.76s-1.4946,10.96,2.6155,17.0632c5.87,8.7168,24.207,7.5974,24.207,7.5974l9.4657-24.4115-17.4368-4.9819Z"/><path className="cls-11" d="M371.8261,37.2319s-1.68-1.0462-1.6978-2.2728c-.0166-1.1456.8224-1.5491,1.7125-.9249l-.0045-.0007a.7607.7607,0,0,0,1.1263-.7865l-.2554-1.3681c-.1179-.7061.3445-2.1018,1.61-.9551l.5293.4774a.7607.7607,0,0,0,1.2629-.602l-.052-1.2881a1.1747,1.1747,0,0,1,2.0013-.8811l.7948.7889a.7986.7986,0,0,0,1.3495-.431l.2883-1.6705a1.0186,1.0186,0,0,1,1.8819-.3428l.6855,1.1667a.7982.7982,0,0,0,1.42-.0854l.6785-1.5565a1.0192,1.0192,0,0,1,1.8933.0623l.5623,1.5631a.7981.7981,0,0,0,1.3925.2047l1.0482-1.4162a1.1165,1.1165,0,0,1,2.0008.4936l.2514,1.6257a.7983.7983,0,0,0,1.3029.4888l1.0953-.9219a1.2253,1.2253,0,0,1,2.0143.9334l.0059,1.7815a.7981.7981,0,0,0,1.1387.7191l1.2655-.5973a1.3808,1.3808,0,0,1,1.9159,1.6321l-.4024,1.3922a.7986.7986,0,0,0,.8214,1.0184l1.2574-.0854a1.2475,1.2475,0,0,1,1.1395,1.9106l-.6842,1.0839a.7983.7983,0,0,0,.3618,1.16l.9194.3922a1.1182,1.1182,0,0,1,.23,1.9249l-.3231.241a.7984.7984,0,0,0,.0427,1.31l.3952.2565a1.0832,1.0832,0,0,1-.1611,1.9029.7977.7977,0,0,0-.2123,1.3313l.3083.2724a1.0935,1.0935,0,0,1-.3566,1.8511.7984.7984,0,0,0-.2468,1.3625.7982.7982,0,0,1-.3141,1.3833l-.237.0612a.7605.7605,0,0,0-.4047,1.2109.7614.7614,0,0,1-.4834,1.2277l-.287.0425a.798.798,0,0,0-.5856,1.1684l.1212.2246A.7991.7991,0,0,1,401.24,56.89l-.3262,0a.7959.7959,0,0,0-.763,1.0187l.0122.0418a.796.796,0,0,1-.9423.9987l-.2457-.0565a.7977.7977,0,0,0-.9754.813l.009.2017a.7982.7982,0,0,1-.8016.8336l-1.559-.0081a4.0655,4.0655,0,0,1-3.6446-1.8065l1.4241-.2612a.7971.7971,0,0,1,.0082-1.08c1.6407-1.7617,6.3858-7.7715,2.0805-14.5131-4.9358-7.73-15.1071-9.15-15.8755-9.2473l-.0928.0158-7.3157,3.967C372.1422,37.8509,371.9108,37.4358,371.8261,37.2319Z"/><polygon className="cls-15" points="399.735 75.717 379.459 75.579 377.573 53.711 395.374 54.536 399.735 75.717"/><polygon className="cls-15" points="396.424 60.913 393.362 64.376 384.403 53.471 396.486 51.644 396.424 60.913"/><path className="cls-15" d="M391.4085,29.26s-15.129-5.09-22.602,13.2138a5.8722,5.8722,0,0,0-.0013,4.6015l.2988.5522-3.5555,5.9382a1.4351,1.4351,0,0,0,.995,1.5857,5.4392,5.4392,0,0,0,1.54.2708L366.86,57.73a3.2,3.2,0,0,0,1.282,2.2547s-1.1215,1.4881-.2652,2.0777,1.63,1.0338,1.63,1.0338l-.0824,2.6153s.4149,2.1042,2.0962,2.53,6.5029-.5895,6.5029-.5895,8.3167-1.2536,9.8641-3.5065a9.336,9.336,0,0,0,1.6064-4.5714l-.6557-4.8318,10.1393,2.2108s4.7552-5.5924,4.4142-11.6991S400.2551,32.0172,391.4085,29.26Z"/><path className="cls-15" d="M393.0943,46.6114c4.1226.23,3.8055,4.1088,2.7439,6.1674a10.4618,10.4618,0,0,0-1.2,3.2272l-5.8-1.2644C388.25,51.2872,388.9717,46.3811,393.0943,46.6114Z"/><path className="cls-11" d="M384.68,43.5389s-1.205-1.7963-5.166-1.6637l2.03-6.379,16.5-2.5309a17.3707,17.3707,0,0,1,5.4876,12.32c.2056,8.4829-7.1249,15.6717-7.1249,15.6717l-1.7681-4.9509a10.4618,10.4618,0,0,1,1.2-3.2272c1.0616-2.0586,1.3787-5.9371-2.7439-6.1674s-5.5245,6.9752-5.5357,7.0092l-3.5092-.7687S387.1516,47.6061,384.68,43.5389Z"/><path className="cls-11" d="M371.7229,36.7972c7.9042-11.4915,19.6854-7.537,19.6854-7.537a17.7191,17.7191,0,0,1,8.2394,5.1424L371.59,37.143C371.61,37.0311,371.701,36.9064,371.7229,36.7972Z"/><path className="cls-11" d="M371.59,37.143s4.9513-.9426,5.4818,1.1794a7.2556,7.2556,0,0,0,2.4416,3.5528l6.2232-5.5864S376.8953,32.0732,371.59,37.143Z"/><path className="cls-18" d="M372.995,55.4535a3.2288,3.2288,0,0,1-2.4708-2.1345,7.6656,7.6656,0,0,1-.4148-4.1594,7.9694,7.9694,0,0,1,1.6737-3.89,3.4356,3.4356,0,0,1,3.0265-1.4241,3.225,3.225,0,0,1,2.4707,2.1337,7.675,7.675,0,0,1,.4148,4.16,7.9685,7.9685,0,0,1-1.6736,3.89,3.6765,3.6765,0,0,1-2.5278,1.4409A2.6493,2.6493,0,0,1,372.995,55.4535Zm-.6465-9.7665a6.9472,6.9472,0,0,0-1.4476,3.39,6.6817,6.6817,0,0,0,.3514,3.6214,2.3667,2.3667,0,0,0,1.7435,1.5972,2.5259,2.5259,0,0,0,2.1639-1.0928,6.9444,6.9444,0,0,0,1.4476-3.3892,6.6888,6.6888,0,0,0-.3513-3.6222,2.3687,2.3687,0,0,0-1.7436-1.5972,1.7138,1.7138,0,0,0-.3124-.01A2.757,2.757,0,0,0,372.3485,45.687Z"/><path className="cls-18" d="M370.6336,48.9128a.4562.4562,0,0,0,.2288-.8308,5.6687,5.6687,0,0,0-1.591-.7256l-.2756-.0908a.456.456,0,1,0-.2952.8628l.2912.0952a4.8418,4.8418,0,0,1,1.3538.61A.462.462,0,0,0,370.6336,48.9128Z"/><polygon className="cls-18" points="388.522 50.48 388.964 49.595 377.603 47.827 377.5 48.893 388.522 50.48"/><path className="cls-15" d="M454.1148,176.3209l-8.28,45.1473L436.4,219.1939s-3.7972-35.3994-2.6365-45.6754,1.2255-12.8376,1.2255-12.8376,12.9116-.7343,18.126,2.24C454.4961,163.709,454.6535,171.5672,454.1148,176.3209Z"/><path className="cls-15" d="M437.5156,216.16a52.0235,52.0235,0,0,0-4.057,10.8429,118.6937,118.6937,0,0,0-1.6877,13.81s-.0087,2.1166,1.4379,2.2281a3.3041,3.3041,0,0,0,2.5215-1.4629s1.1481,1.6724,2.6836,1.4517,2.0359-2.0019,2.0359-2.0019a4.0868,4.0868,0,0,0,2.836.6444c1.6255-.2514,1.61-2.6618,1.61-2.6618a4.2747,4.2747,0,0,0,2.7115-.0177c1.0211-.5492.7364-2.5658.7364-2.5658a2.2446,2.2446,0,0,0,2.13-1.43c.593-1.5105-4.64-13.9192-4.64-13.9192Z"/><path className="cls-19" d="M448.6913,217.5182s9.91-40.8519,6.1113-62.2119c-2.4429-13.7362-23.54.3736-23.54.3736l2.4826,60.8419Z"/><path className="cls-15" d="M327.7413,176.2453l11.62,44.405,9.2252-.6569s1.1638-37.898-.7593-48.059-2.1785-12.7106-2.1785-12.7106-12.93.23-17.9088,3.5839C326.4213,163.6969,326.85,171.545,327.7413,176.2453Z"/><path className="cls-15" d="M348.6348,217.3222s6.1946,3.3877,7.9574,8.0749a62.6753,62.6753,0,0,0,4.33,9.01.5017.5017,0,0,1-.4926.7762,4.7372,4.7372,0,0,1-3.5984-2.2785c-4.5312-8.4505-14.9333-12.9664-14.9333-12.9664A40.7548,40.7548,0,0,1,348.6348,217.3222Z"/><rect className="cls-11" x="320.9843" y="228.0991" width="57.7526" height="43.187" transform="translate(-46.3663 83.1002) rotate(-12.711)"/><path className="cls-21" d="M377.2565,245.8281a4.0932,4.0932,0,0,1-1.15-2.0554,4.1105,4.1105,0,1,1,1.15,2.0554Zm4.709-4.85a2.6284,2.6284,0,1,0-1.2523,4.45l.0007,0a2.628,2.628,0,0,0,1.2516-4.45Z"/><path className="cls-21" d="M375.3254,252.6874l-3.7514-16.6313a.7706.7706,0,0,1,.582-.9208l6.026-1.3591,4.09,18.1335-6.0262,1.36A.7707.7707,0,0,1,375.3254,252.6874Z"/><path className="cls-22" d="M371.7341,222.6229s-41.1539,8.423-52.9583,8.707l.7571,3.0676Z"/><path className="cls-22" d="M368.9853,223.1773s-42.811,7.7333-47.7525,5.5658l1.64,4.9009Z"/><path className="cls-15" d="M339.9627,218.5668c-.729,1.0956-2.6121,4.6361-2.3613,6.8136.6221,5.4006.9043,10.0506.9043,10.0506s1.7786,10.9048,3.68,11.5607c1.9006.6544,1.21-1.6454,1.21-1.6454s-2.0273-8.3068-1.2886-8.9414c.2652-.2282-.1251.1439-.1251.1439s2.3842,9.4426,5.5531,11.7806c0,0,2.4372.854,1.0239-2.1985a97.7313,97.7313,0,0,1-3.4124-10.2815l.4351-.042s3.8626,12.477,6.3532,13.0447c2.4827.5661.7776-3.7217.7776-3.7217s-3.4795-6.5379-4.1175-9.94l.1187-.2983s4.0793,9.415,5.9246,10.48,2.23.5123,1.7035-.6632-4.3684-10.2362-4.3538-11.8625a41.01,41.01,0,0,0,.131-5.7392c-.3615-1.8716-.5535-4.3626-1.2124-4.8407-1.4926-1.0815-3.6022-3.7191-4.5914-4.0956-.3109-.1185-1.3718-.2935-1.5684-.4316-.7813-.5467-1.8578-.26-2.6872-.1512C342.0593,217.5879,340.4346,217.8578,339.9627,218.5668Z"/><polygon className="cls-20" points="350.057 212.785 348.874 184.015 351.294 117.347 347.94 109.56 353.545 116.136 350.057 212.785"/><path className="cls-19" d="M336.2191,216.924s-12.77-38.54-10.5733-60.1232c1.4127-13.88,23.6445-2.3019,23.6445-2.3019l1.7588,60.318Z"/><path className="cls-23" d="M388.3706,84.8306l1.6825,3.0019a2.0013,2.0013,0,0,1-.8661,2.2988,2.4946,2.4946,0,0,1-2.5982.1277s-1.4279-.9338-1.0041-2.219a15.86,15.86,0,0,1,1.6914-3.235A5.4818,5.4818,0,0,1,388.3706,84.8306Z"/><path className="cls-24" d="M377.7787,75.0035l9.9681,9.7054-4.3846,6.6923L374.8238,78.632a4.5752,4.5752,0,0,1,1-2A5.63,5.63,0,0,1,377.7787,75.0035Z"/><path className="cls-24" d="M387.9776,84.7859,399.7468,74.94a11.4046,11.4046,0,0,1,2.2308,2.2308c.4788.8709.4615,1,.4615,1l-9.923,12.5384Z"/><path className="cls-23" d="M389.0378,90.2679c2.54,28.4386,6.9712,40.9765,10.7688,60.8145l-6.8357,10.9823-9.2347-11.1634s-1.5882-49.0674,2.393-60.9819c.811-2.427,1.2817-.0645,1.2817-.0645"/><path className="cls-25" d="M73.0615,70.3109,68.1057,90.8653c-5.2311,2.5926-18.6991-2.3468-20.2987-4.3462L61.475,58.862A1.6513,1.6513,0,0,1,64.2806,58.6Z"/><path className="cls-23" d="M73.99,88.0345s15.646-8.0077,22.634,6.1271a88.0364,88.0364,0,0,1,8.223,27.801l-6.83,21.1277s-20.4737-33.878-25.2911-42.9787c-2.5583-4.8327-5.3425-9.7569,1.2639-12.0771"/><path className="cls-25" d="M104.4,118.3243c3.1914,12.7021,5.6808,22.0851,5.6808,22.0851L98.9743,143.92a96.2187,96.2187,0,0,0-6.8936-16.2128"/><path className="cls-25" d="M75.8883,294.035c-2.1584-12.1931.6167-26.8805.6167-26.8805L59.0028,211.4274s13.8143-45.93,27.0821-25.577C99.35,206.2008,98.51,270.7325,98.51,270.7325c.55,31.3011,3.5138,62.3518,5.3639,75.04l-12.587-1.09c-.6686-13.9669-13.4632-39.7087-15.3987-50.6472"/><path className="cls-25" d="M34.7988,270.915s1.5943-4.3008,2.3481-14.76c4.42-61.4295,8.28-65.08,14.2688-76.5792,1.6011-3.07,5.3933-4.3067,8.7848-3.6261L76.0513,193.3s2.2773,45.11-19.4941,79.6227c-19.3739,30.7134-21.7584-2.0074-21.7584-2.0074"/><path className="cls-23" d="M84.3689,155.4206,88.78,127.96s10.8224-7.4032,3.4192-19.3644c-7.4032-11.9581-5.4189-22.2188-5.4189-22.2188L70.1333,81.9074c-.1282,7.0521-14.5592,5.3333-20.5031,0L33.7827,87.69s-2.0881,30.0189,10.6,67.78Z"/><path className="cls-26" d="M44.6174,155.3048c-5.5013-13.112-8.0627-31.7651-7.8642-32.62l6.0111-15.4139-.4915,10.4866a28.32,28.32,0,0,0,3.0254,14.1256l3.5047,6.9239Z"/><path className="cls-25" d="M41.3835,345.6713s-1.96,3.64,7.5652-27.3539c9.5247-30.9971,10.999-41.8935,10.4351-56.4032-.5631-14.5068-19.542-8.1818-19.542-8.1818-.3442,10.4515-13.0749,27.2077-9.7165,69.1172,3.78,47.2216,1.8057,29.7827,1.8057,29.7827s5.0965,18.342,9.2472,1.529Z"/><path className="cls-27" d="M65.0323,206.9476s-13.35-14.666-31.4507-19.9017c0,0-.345-11.0942,16.2321-30.2876l34.5555.7144,9.0639,24.368a83.0174,83.0174,0,0,0-17.554,17.3037c-6.0874,7.9589-8.06,6.6583-10.395,7.7238Z"/><path className="cls-23" d="M44.1476,155.775s-9.3893,4.7475-15.9866,23.2021c-4.64,12.9747-3.7431,78.5959-3.7431,78.5959s10.455,9.467,47.9107,5.4372c24.7222-2.659,35.16-7.794,35.16-7.794-2.7078-36.3139-8.5266-70.21-22.5057-98.5894Z"/><polygon className="cls-26" points="84.979 156.679 44.01 156.679 43.207 151.415 85.226 151.415 84.979 156.679"/><path className="cls-26" d="M88.8373,127.6235c2.2775-1.8866,3.8711-5.8554,4.8083-8.8441a59.6088,59.6088,0,0,0-3.0742-12.181c-.8671-2.0393,4.8632,2.6835,4.4846,13.8692a188.5894,188.5894,0,0,1-.9616,25.72l-6.1516-13.5334Z"/><path className="cls-25" d="M107.3226,151.9689l-21.55-28.2142L93.7468,148.83l11.7511,5.3784A1.65,1.65,0,0,0,107.3226,151.9689Z"/><path className="cls-28" d="M87.2208,167.702l-30.2561.9378a1.8677,1.8677,0,0,1-1.9264-2.6369l15.3976-46.906a4.3655,4.3655,0,0,1,3.715-2.8117l30.256-.9379a1.8677,1.8677,0,0,1,1.9264,2.6369L90.9357,164.89A4.3656,4.3656,0,0,1,87.2208,167.702Z"/><path className="cls-25" d="M81.212,152.6216s19.226-9.6915,20.7738-8.6972c3.0793,1.9783,5.7573,8.0354,4.5533,9.844S82.231,161.107,82.231,161.107Z"/><path className="cls-25" d="M20.5091,116.5442s-7.0029,25.27-5.088,34.461c1.2081,5.7988,5.9646,24.321,44.0586-6.1853l-1.7813-7.7487-27.8972,6.2971.7377-24.9971Z"/><path className="cls-25" d="M85.7059,159.0451a8.2069,8.2069,0,0,1-4.6636,2.8925c-4.1577.7614-8.6145,1.8629-8.6145,1.8629s-8.4714,1.386-9.3581.1938.9674-1.26.9674-1.26,6.5946-.5777,6.91-1.2569c.1137-.2439-.0806.1239-.0806.1239s-7.5128.6-9.9151-1.0842c0,0-1.1463-1.5247,1.4174-1.2621a77.4442,77.4442,0,0,0,8.3518-.073l-.06-.3194s-10.077.2865-11.022-1.3459c-.9422-1.6271,2.6-1.457,2.6-1.457s5.5862.8843,8.2467.5111l.1964-.1569s-7.8485-.6116-9.0274-1.6645-.849-1.4608.1344-1.3718,8.5193.6174,9.7239.2118a33.8506,33.8506,0,0,1,4.2342-1.4877,12.9728,12.9728,0,0,1,5.1895.9142c1.1168.7983,3.5839,1.9668,4.0715,2.5784.1533.1921-.1411-.4518.0027-.3456.57.4226.4733-.0674.5667.5487,0,0,.5553,2.74.128,3.2475"/><path className="cls-25" d="M84.2737,152.7513s-6.9379-3.2486-8.1845-3.8a11.132,11.132,0,0,0-2.919-.7111c-2.1884-.0052-4.4674.1341-6.0717-.797,0,0-.5746,2.6091,2.8121,2.9569,1.7254.1777,4.9484,2.1564,4.9484,2.1564s.9093,1.34-.2129,1.4209c-.1905.0138,9.9349,2.5176,9.9349,2.5176,1.0415-1.4416-.3073-3.7435-.3073-3.7435"/><path className="cls-25" d="M72.0826,131.5239l-1.37,2.6621a6.5829,6.5829,0,0,1-4.3166-.0333c-1.1712-.42.1935-3.06.1935-3.06l-4.0212.65-4.9143,4.6742-2.7539,7.1623c8.8512,3.1482,16.4411,1.1875,16.7666.41.2432-.581,2.4-5.44,2.25-8.594C73.8855,134.7267,72.7269,131.704,72.0826,131.5239Z"/><path className="cls-25" d="M40.46,87.9561S29.22,82.6986,24.1153,97.6132c-10.5641,30.8533-9.0074,49.3891-8.0559,55.1792.1461.8887,4.1141,6.8886,4.9788,6.6383l9.0731-6.5969,15.4161-38.9817s7.7157-19.5092-5.0676-25.896"/><path className="cls-25" d="M99.8679,147.4307s-6.4609-2.5868,2.878-6.1653c7.2573-2.782,6.7822-3.1844,6.7822-3.1844l2.15,9.6849a3.0265,3.0265,0,0,1-1.0634,3.0187l-3.0232,2.7738c-2.0252,1.4584-5.78,2.4187-7.851,2.9361l3.7021-9.4468Z"/><path className="cls-23" d="M40.6114,87.8743S29.372,82.6168,24.267,97.5315a182.92,182.92,0,0,0-6.0684,21.07c-.99,4.7013,9.7332,6.4886,9.7332,6.4886s12.1276,3.1915,13.3759-.2665C42.7891,120.72,45.679,113.77,45.679,113.77s7.7158-19.5092-5.0676-25.8961"/><path className="cls-25" d="M63.2542,70.2128a7.3991,7.3991,0,0,0,4.0636,4.01l7.7438,3.1236a5.8258,5.8258,0,0,0,3.4869.36,3.99,3.99,0,0,0,1.7834-.8534c.8867-.7834.64-2.3435.55-3.7569l2.2034-.67a2.1946,2.1946,0,0,0-1.1434-2.85s-3.52.4667,1.0367-.89a1.6178,1.6178,0,0,0,1.1968-2.31s-1.8435-.7534-1.8235-1.8168c-.3867-.7067,1.76-.9034,2.4568-1.9035a2.0425,2.0425,0,0,0-.31-1.86c-.93-.79-3.68-3.1235-3.7135-5.87a13.08,13.08,0,0,0-4.4569-11.5607c-6.17-5.767-16.5044-6.5971-22.2514-2.5235-4.327,3.07-11.544,10.9873-7.9838,19.8479,3.5568,8.8638,9.9706,11.5073,9.9706,11.5073l.09-5.1236,1.3834.65a3.1052,3.1052,0,0,0,3.67-.79l.4534-.5267Z"/><path className="cls-29" d="M74.8025,42.0154a5.4028,5.4028,0,0,0-3.38,3.0435c-1.5068,3.06-2.5,3.8969-3.31,4.3436a4.9939,4.9939,0,0,0-2.08,5.0636c.9767,4.54-2.0034,6.4471-2.0034,6.4471s-2.8669-4.77-6.5-3.3169c-6.9971,2.7969.05,10.984.05,10.984s-1.5134,3.0769-3.9669,2.07a23.7166,23.7166,0,0,1-5.8837-5.8437c-2.2735-3.4736-9.0306-13.3342,1.11-24.5982,6.8037-7.56,25.3715-2.5168,25.9648,1.8068"/><path className="cls-29" d="M46.2725,48.5794a3.4031,3.4031,0,0,1-2.0268,2.38,3.4065,3.4065,0,0,1-3.8936,4.687c-.1067-.0267-.21-.0567-.3133-.09a3.4128,3.4128,0,0,1-5.2,3.97,4.04,4.04,0,0,1-7.4305-2.53A4.5384,4.5384,0,1,1,20.8009,50.8a3.7256,3.7256,0,0,1,1.2834-6.6771,5.3945,5.3945,0,0,1-.05-1.23,5.3114,5.3114,0,0,1,8.0939-4.1069,5.3131,5.3131,0,0,1,10.0939.0733,3.7248,3.7248,0,0,1,4.0336,5.8,3.407,3.407,0,0,1,2.0168,3.92"/><path className="cls-30" d="M57.1952,66.6389a2.1108,2.1108,0,1,0,2.6435-1.3868,2.11,2.11,0,0,0-2.6435,1.3868"/></svg>