<svg id="Layer_1" data-name="Layer 1" xmlns="http://www.w3.org/2000/svg" viewBox="0 0 368 200"><defs><style>.cls-1{fill:#b2d2db;}.cls-2{fill:#404041;}.cls-3{fill:#6d6e70;}.cls-4{fill:#0d0f22;}.cls-5{fill:#d8d8d8;}.cls-6{fill:#abc7e8;}.cls-7{fill:#c4c0bc;}.cls-8{fill:#97c6d1;}.cls-9{fill:#58595b;}.cls-10{fill:#f4f4f4;}.cls-11{fill:#c4c3c3;}.cls-12{fill:#dddddc;}.cls-13{fill:#adadad;}.cls-14{fill:#66bbd3;}.cls-15{fill:#f26b1f;}.cls-16{fill:#0076bd;}.cls-17{fill:#02b2a6;}.cls-18{fill:#006a88;}.cls-19{fill:none;stroke:#d0d2d3;stroke-miterlimit:10;stroke-width:0.5049px;}.cls-20{fill:#3a3a3a;}.cls-21{fill:#ccc9c4;}.cls-22{fill:#333;}.cls-23{fill:#929497;}.cls-24{fill:#808184;}.cls-25{fill:#6d90ca;}.cls-26{fill:#e5e5e4;}.cls-27{fill:#80a850;}.cls-28{fill:#0b5fa4;}.cls-29{fill:#4d4c4d;}.cls-30{fill:#3c7fb6;}.cls-31{fill:#c6e8f3;}.cls-32{fill:#265596;}</style></defs><rect className="cls-1" x="0.0471" y="0.4518" width="368.0013" height="200.0068"/><polygon className="cls-2" points="232.327 197.821 186.804 197.821 192.41 155.868 226.721 155.868 232.327 197.821"/><path className="cls-3" d="M237.8374,193.5479H181.2932a6.9948,6.9948,0,0,0-6.9743,6.9743h70.4928A6.9948,6.9948,0,0,0,237.8374,193.5479Z"/><polygon className="cls-4" points="189.97 174.125 229.161 174.125 227.578 162.278 191.553 162.278 189.97 174.125"/><path className="cls-2" d="M297.3107,167.9486H121.82a6.26,6.26,0,0,1-6.26-6.26V39.5454a6.26,6.26,0,0,1,6.26-6.26H297.3107a6.26,6.26,0,0,1,6.26,6.26V161.689A6.26,6.26,0,0,1,297.3107,167.9486Z"/><rect className="cls-5" x="121.7758" y="39.5016" width="175.5794" height="122.2313"/><path className="cls-6" d="M140.0283,33.2289a5.8985,5.8985,0,0,0-.76-.05C138.35,33.1785,138.7157,33.197,140.0283,33.2289Z"/><path className="cls-7" d="M148.02,149.0288l-26.2812,4.416.0787-9.682c-.8214.1381-17.2466-7.7939-17.3846-8.6153L93.2017,74.6859c.5076-.7675,42.463,25.6818,35.8461,24.9231l2.0866-51.0719a1.508,1.508,0,0,1,1.7371,1.2373l16.3855,97.5175A1.5079,1.5079,0,0,1,148.02,149.0288Z"/><path className="cls-8" d="M115.5863,147.3782l-.0769,7.077-43.9258,7.3264a1.5079,1.5079,0,0,1-1.737-1.2373L53.4611,63.0268a1.5079,1.5079,0,0,1,1.2373-1.737l76.443-12.8444a1.508,1.508,0,0,1,1.7371,1.2373l14.1693,92.8494C147.1858,143.3534,116.4077,147.24,115.5863,147.3782Z"/><path className="cls-9" d="M150.8621,146.1241l-76.443,12.8444a1.5079,1.5079,0,0,1-1.737-1.2373L56.2966,60.2137a1.5079,1.5079,0,0,1,1.2373-1.737l76.443-12.8444a1.5081,1.5081,0,0,1,1.7372,1.2373L152.1,144.3871A1.5083,1.5083,0,0,1,150.8621,146.1241Z"/><rect className="cls-10" x="68.8564" y="56.5338" width="71.053" height="91.9737" transform="translate(-15.5447 18.7134) rotate(-9.5379)"/><rect className="cls-11" x="80.9139" y="52.4307" width="30.8616" height="6.2327" transform="translate(-7.8723 16.7321) rotate(-9.5379)"/><path className="cls-5" d="M109.7857,46.5038l-8.6616,1.4554-.0171-.1019a5.9732,5.9732,0,0,0-11.7812,1.98l.0171.1019-8.6616,1.4554a.6743.6743,0,0,0-.5532.7766l1.0689,6.3614,29.7693-5.002.6649-.1117-1.0689-6.3614A.6743.6743,0,0,0,109.7857,46.5038Zm-14.19,4.6012A2.1862,2.1862,0,1,1,97.39,48.5867,2.1863,2.1863,0,0,1,95.5958,51.105Z"/><path className="cls-12" d="M109.7857,46.5038l-8.6616,1.4554-.0171-.1019a5.9732,5.9732,0,0,0-11.7812,1.98l.0171.1019-8.6616,1.4554a.6743.6743,0,0,0-.5532.7766l1.0689,6.3614,29.7693-5.002.6649-.1117-1.0689-6.3614A.6743.6743,0,0,0,109.7857,46.5038Zm-14.19,4.6012A2.1862,2.1862,0,1,1,97.39,48.5867,2.1863,2.1863,0,0,1,95.5958,51.105Z"/><path className="cls-11" d="M110.5623,47.057a.6743.6743,0,0,0-.7766-.5532l-8.6616,1.4554-.0171-.1019a5.9908,5.9908,0,0,0-6.88-4.9009l.6446,3.8366a2.1863,2.1863,0,1,1,.7245,4.3121l1.2625,7.5138,15.2171-2.5569Z"/><path className="cls-13" d="M90.6368,50.86l-.2032-1.2094a4.85,4.85,0,1,1,9.5658-1.6073l.2032,1.2094L110.6368,47.5l-.0744-.4427a.6743.6743,0,0,0-.7766-.5532l-8.6616,1.4554-.0171-.1019a5.9732,5.9732,0,0,0-11.7812,1.98l.0171.1019-8.6616,1.4554a.6743.6743,0,0,0-.5532.7766l.0744.4427Z"/><path className="cls-14" d="M125.68,68.5676l-40,6.721a.69.69,0,0,1-.7951-.5663l-.42-2.5a.69.69,0,0,1,.5663-.7951l40-6.721a.69.69,0,0,1,.7951.5663l.42,2.5A.69.69,0,0,1,125.68,68.5676Z"/><path className="cls-5" d="M126.41,71.4485,85.9315,78.25a.4476.4476,0,0,1-.5156-.3672h0a.4475.4475,0,0,1,.3672-.5156l40.4782-6.8014a.4476.4476,0,0,1,.5156.3673h0A.4475.4475,0,0,1,126.41,71.4485Z"/><path className="cls-5" d="M122.886,74.0212,86.2552,80.1761a.4476.4476,0,0,1-.5156-.3672h0a.4476.4476,0,0,1,.3672-.5156l36.6308-6.1549a.4476.4476,0,0,1,.5156.3673h0A.4475.4475,0,0,1,122.886,74.0212Z"/><path className="cls-5" d="M127.057,75.301,86.5788,82.1024a.4476.4476,0,0,1-.5156-.3673h0A.4476.4476,0,0,1,86.43,81.22l40.4782-6.8014a.4476.4476,0,0,1,.5156.3673h0A.4475.4475,0,0,1,127.057,75.301Z"/><path className="cls-15" d="M76.5684,83.6324a5.2422,5.2422,0,1,1,4.301-6.0384A5.2482,5.2482,0,0,1,76.5684,83.6324Z"/><path className="cls-10" d="M75.4146,80.8844a.5026.5026,0,0,1-.3761-.0866l-1.996-1.4217a.5042.5042,0,1,1,.585-.8214l1.5853,1.1292,2.2489-3.1573a.5042.5042,0,1,1,.8214.585L75.7416,80.68A.5021.5021,0,0,1,75.4146,80.8844Z"/><path className="cls-14" d="M128.4662,85.15l-40,6.721a.69.69,0,0,1-.7951-.5663l-.42-2.5a.69.69,0,0,1,.5663-.7951l40-6.721a.69.69,0,0,1,.7951.5663l.42,2.5A.69.69,0,0,1,128.4662,85.15Z"/><path className="cls-5" d="M129.196,88.0311,88.7178,94.8325a.4476.4476,0,0,1-.5156-.3673h0a.4477.4477,0,0,1,.3672-.5157l40.4782-6.8013a.4476.4476,0,0,1,.5156.3673h0A.4476.4476,0,0,1,129.196,88.0311Z"/><path className="cls-5" d="M125.6723,90.6038,89.0415,96.7587a.4476.4476,0,0,1-.5156-.3673h0a.4476.4476,0,0,1,.3672-.5156l36.6308-6.1549a.4476.4476,0,0,1,.5156.3673h0A.4475.4475,0,0,1,125.6723,90.6038Z"/><path className="cls-5" d="M129.8433,91.8836,89.3651,98.685a.4476.4476,0,0,1-.5156-.3672h0a.4477.4477,0,0,1,.3672-.5157l40.4783-6.8013a.4475.4475,0,0,1,.5155.3673h0A.4475.4475,0,0,1,129.8433,91.8836Z"/><path className="cls-14" d="M131.3236,102.1559l-40,6.721a.69.69,0,0,1-.7951-.5663l-.42-2.5a.69.69,0,0,1,.5663-.7951l40-6.721a.69.69,0,0,1,.7952.5663l.42,2.5A.69.69,0,0,1,131.3236,102.1559Z"/><path className="cls-5" d="M132.0534,105.0367l-40.4782,6.8014a.4476.4476,0,0,1-.5156-.3673h0a.4477.4477,0,0,1,.3672-.5157l40.4782-6.8013a.4475.4475,0,0,1,.5156.3673h0A.4476.4476,0,0,1,132.0534,105.0367Z"/><path className="cls-5" d="M128.53,107.6094l-36.6308,6.1549a.4476.4476,0,0,1-.5156-.3673h0a.4476.4476,0,0,1,.3672-.5156l36.6308-6.1549a.4476.4476,0,0,1,.5156.3673h0A.4475.4475,0,0,1,128.53,107.6094Z"/><path className="cls-5" d="M132.7007,108.8893l-40.4782,6.8014a.4476.4476,0,0,1-.5156-.3673h0a.4477.4477,0,0,1,.3673-.5157l40.4782-6.8013a.4476.4476,0,0,1,.5156.3673h0A.4477.4477,0,0,1,132.7007,108.8893Z"/><path className="cls-16" d="M79.4324,100.2019a5.2422,5.2422,0,1,1,4.301-6.0384A5.2482,5.2482,0,0,1,79.4324,100.2019Z"/><path className="cls-10" d="M78.2786,97.454a.5026.5026,0,0,1-.3761-.0866l-1.996-1.4217a.5042.5042,0,0,1,.585-.8214l1.5853,1.1292,2.2489-3.1574a.5042.5042,0,1,1,.8214.585l-2.5415,3.568A.5023.5023,0,0,1,78.2786,97.454Z"/><path className="cls-17" d="M82.9026,117.1046a5.2422,5.2422,0,1,1,4.301-6.0384A5.2482,5.2482,0,0,1,82.9026,117.1046Z"/><path className="cls-10" d="M81.7488,114.3566a.5026.5026,0,0,1-.3761-.0866l-1.996-1.4217a.5042.5042,0,1,1,.585-.8214l1.5853,1.1292,2.2489-3.1573a.5042.5042,0,1,1,.8214.585l-2.5415,3.568A.5021.5021,0,0,1,81.7488,114.3566Z"/><path className="cls-14" d="M134.0024,119.1835l-40,6.721a.69.69,0,0,1-.7951-.5663l-.42-2.5a.69.69,0,0,1,.5662-.7951l40-6.721a.69.69,0,0,1,.7951.5663l.42,2.5A.69.69,0,0,1,134.0024,119.1835Z"/><path className="cls-5" d="M134.7322,122.0643,94.254,128.8657a.4477.4477,0,0,1-.5156-.3672h0a.4476.4476,0,0,1,.3673-.5156l40.4782-6.8014a.4476.4476,0,0,1,.5156.3673h0A.4476.4476,0,0,1,134.7322,122.0643Z"/><path className="cls-5" d="M131.2085,124.6371,94.5777,130.792a.4477.4477,0,0,1-.5156-.3673h0a.4476.4476,0,0,1,.3672-.5156l36.6308-6.1549a.4476.4476,0,0,1,.5156.3673h0A.4476.4476,0,0,1,131.2085,124.6371Z"/><path className="cls-5" d="M135.38,125.9169l-40.4782,6.8014a.4476.4476,0,0,1-.5156-.3672h0a.4476.4476,0,0,1,.3672-.5156l40.4782-6.8014a.4476.4476,0,0,1,.5156.3673h0A.4475.4475,0,0,1,135.38,125.9169Z"/><path className="cls-18" d="M85.5814,134.1322a5.2422,5.2422,0,1,1,4.301-6.0384A5.2482,5.2482,0,0,1,85.5814,134.1322Z"/><path className="cls-10" d="M84.4276,131.3842a.5026.5026,0,0,1-.3761-.0866l-1.996-1.4217a.5042.5042,0,1,1,.585-.8213l1.5853,1.1291,2.2489-3.1573a.5042.5042,0,1,1,.8214.585l-2.5415,3.568A.5017.5017,0,0,1,84.4276,131.3842Z"/><path className="cls-19" d="M118.3722,139.9766a7.0684,7.0684,0,0,0,2.4285-1.26,42.102,42.102,0,0,0,4.0151-3.0446,5.9793,5.9793,0,0,0,1.93-2.6516.25.25,0,0,0-.2858-.362,3.3526,3.3526,0,0,0-2.5333,1.214,9.4744,9.4744,0,0,0-1.4643,2.4919,6.1962,6.1962,0,0,0-.7859,3.2046.5007.5007,0,0,0,.0958.2766.5353.5353,0,0,0,.4978.0927,15.1113,15.1113,0,0,0,5.2638-2.2695q2.0382-1.2376,4.0065-2.5855c.1691-.1158.354-.2587.372-.4629a10.7966,10.7966,0,0,0-5.5043,2.5474c-.3985.35-.804.8613-.6157,1.3569.1969.5182.8886.6121,1.439.5459a6.1589,6.1589,0,0,0,2.7829-1.0638c.3006-.21.6077-.61.3841-.901a.4681.4681,0,0,0,.0356.3593,16.3137,16.3137,0,0,0,3.51-.3509c.9629-.2033,1.905-.4932,2.8571-.7419a20.2894,20.2894,0,0,1,4.5748-.7224"/><polygon className="cls-20" points="115.567 152.048 121.74 150.994 121.785 153.441 115.547 154.44 115.567 152.048"/><path className="cls-21" d="M253.8036,67.2458h-6.7081V63.9586h.0432l.14-24.965-92.2345.5193,0,24.4458h.0277v23.14c-.0166.2565-.0279.5144-.0279.775s.0113.5188.0279.7753v.0313h.0023c0,7.7643,2.2665,11.0614,7.6014,11.0614l20.9531-.3779-.6824,49.8635H265.67V79.1132A11.8674,11.8674,0,0,0,253.8036,67.2458Z"/><path className="cls-22" d="M151.8066,33.2791s3.2381.7369,3.2418,6.2177l5.927-.0073.0147-6.1113Z"/><polygon className="cls-23" points="215.368 94.742 168.614 94.742 177.669 62.346 215.368 62.346 215.368 94.742"/><rect className="cls-10" x="188.8111" y="74.1134" width="98.9418" height="76.4655"/><path className="cls-24" d="M210.74,33.9167l-58.9335-.6376s-.04-4.567,5.0789-4.567H211.02Z"/><path className="cls-25" d="M208.7133,78.1185V64.1965H222.636V78.1184H208.7133Zm11.9683-1.9534V66.1521H210.6681v10.013Z"/><path className="cls-25" d="M222.092,77.5755H209.2573V64.7412H222.092Zm-11.9683-.8667h11.1015V65.6081H210.1237Z"/><path className="cls-10" d="M201.36,150.2472v0a6.2918,6.2918,0,1,0-6.2915,6.2925A6.2922,6.2922,0,0,0,201.36,150.2469Z"/><path className="cls-26" d="M287.7529,154.2929v-8.6057s-.3666,4.0631-10.9476,4.0631L199.17,151.7818s.5984,4.028-4.1014,4.7577Z"/><path className="cls-23" d="M277.8964,150.1774H265.32c0,.0234-.0036.0461-.0036.07l16.1447,0H201.36a6.293,6.293,0,0,1-6.2915,6.2923h92.6851a6.2929,6.2929,0,0,0,6.2915-6.2925C294.0447,150.2235,277.8967,150.2008,277.8964,150.1774Z"/><path className="cls-10" d="M269.2215,33.627a4.9672,4.9672,0,0,0-5.8759-4.902h-106.46a4.9839,4.9839,0,0,1,4.0965,4.9019l0,0V58.9589h.0277v23.14c-.0166.2565-.0279.5144-.0279.775s.0114.5188.0279.7753v.0313h.0023c0,7.7643,2.2665,11.0614,7.6015,11.0614,5.1832,0,7.6239-3.2971,7.6239-11.0942h0V74.1136l92.9406-1.0219.0432-14.1328h0V33.627Z"/><path className="cls-26" d="M187.3752,61.5189c-6.6025,0-9.1984.1129-10.9673,7.0889l14.685,1.63v4.0318l78.32-.8V57.4558s-.3666,4.0631-10.9476,4.0631Z"/><path className="cls-10" d="M247.8741,74.1134c0,6.5539,21.458,11.8682,28.0121,11.8682a11.8678,11.8678,0,0,0,0-23.7356C269.3321,62.246,247.8741,67.5586,247.8741,74.1134Z"/><path className="cls-10" d="M188.8111,80.901h70.93l16.1447-18.655H182.0989l3.0656,3.3081a12.744,12.744,0,0,1,3.6467,8.5593V80.901Z"/><path className="cls-23" d="M176.2422,70.7742c0,4.5011-.0045,6.275-.0045,6.275,3.0371,0,11.073,18.8189,12.4749,16.3561,0,0,.1051-21.1665.1051-22.6312,0-4.5017-1.6163-8.15-6.1185-8.15C178.1987,62.6239,176.2422,66.2725,176.2422,70.7742Z"/><path className="cls-14" d="M230.4806,45.3737H171.4948A1.0038,1.0038,0,0,1,170.491,44.37V40.6831a1.0038,1.0038,0,0,1,1.0038-1.0038h58.9858a1.0038,1.0038,0,0,1,1.0038,1.0038V44.37A1.0038,1.0038,0,0,1,230.4806,45.3737Z"/><path className="cls-5" d="M230.8331,49.6811H171.142a.651.651,0,0,1-.651-.6509h0a.651.651,0,0,1,.651-.651h59.6911a.651.651,0,0,1,.6509.651h0A.6509.6509,0,0,1,230.8331,49.6811Z"/><path className="cls-5" d="M225.16,52.5217H171.142a.651.651,0,0,1-.651-.6509h0a.651.651,0,0,1,.651-.651H225.16a.651.651,0,0,1,.651.651h0A.6512.6512,0,0,1,225.16,52.5217Z"/><path className="cls-5" d="M230.8331,55.3622H171.142a.651.651,0,0,1-.651-.6509h0a.651.651,0,0,1,.651-.651h59.6911a.651.651,0,0,1,.6509.651h0A.6509.6509,0,0,1,230.8331,55.3622Z"/><path className="cls-16" d="M203.5089,89.5282a7.6235,7.6235,0,1,1,7.6234-7.6235A7.6322,7.6322,0,0,1,203.5089,89.5282Z"/><path className="cls-10" d="M202.5163,85.3091a.73.73,0,0,1-.5184-.2148l-2.52-2.52a.7333.7333,0,0,1,1.037-1.037l2.0015,2.0014,3.9861-3.9862a.7333.7333,0,0,1,1.037,1.037l-4.5047,4.5047A.731.731,0,0,1,202.5163,85.3091Z"/><path className="cls-14" d="M176.2116,75.745h-4.7168a1.0038,1.0038,0,0,1-1.0038-1.0038V71.0544a1.0038,1.0038,0,0,1,1.0038-1.0038h4.7921Z"/><path className="cls-5" d="M176.2493,80.0524H171.142a.651.651,0,0,1-.651-.6509h0a.651.651,0,0,1,.651-.651l5.1073.0187Z"/><path className="cls-5" d="M176.2493,82.893H171.142a.651.651,0,0,1-.651-.6509h0a.651.651,0,0,1,.651-.651l5.099-.008Z"/><path className="cls-5" d="M176.1771,85.7336H171.142a.651.651,0,0,1-.651-.6509h0a.651.651,0,0,1,.651-.651h5.1073Z"/><path className="cls-14" d="M277.5728,79.7576H218.587a1.0038,1.0038,0,0,1-1.0038-1.0038V75.067a1.0038,1.0038,0,0,1,1.0038-1.0038h58.9858a1.0038,1.0038,0,0,1,1.0038,1.0038v3.6868A1.0038,1.0038,0,0,1,277.5728,79.7576Z"/><path className="cls-5" d="M277.9253,84.0651H218.2342a.651.651,0,0,1-.6511-.6509h0a.651.651,0,0,1,.6511-.651h59.6911a.651.651,0,0,1,.6509.651h0A.6509.6509,0,0,1,277.9253,84.0651Z"/><path className="cls-5" d="M272.2517,86.9056H218.2341a.651.651,0,0,1-.651-.6509h0a.651.651,0,0,1,.651-.651h54.0176a.651.651,0,0,1,.6509.651h0A.6508.6508,0,0,1,272.2517,86.9056Z"/><path className="cls-5" d="M277.9253,89.7462H218.2342a.651.651,0,0,1-.6511-.6509h0a.651.651,0,0,1,.6511-.651h59.6911a.651.651,0,0,1,.6509.651h0A.6509.6509,0,0,1,277.9253,89.7462Z"/><path className="cls-14" d="M277.5728,104.2111H218.587a1.0038,1.0038,0,0,1-1.0038-1.0038V99.5205a1.0038,1.0038,0,0,1,1.0038-1.0038h58.9858a1.0038,1.0038,0,0,1,1.0038,1.0038v3.6868A1.0038,1.0038,0,0,1,277.5728,104.2111Z"/><path className="cls-5" d="M277.9253,108.5186H218.2342a.651.651,0,0,1-.6511-.6509h0a.651.651,0,0,1,.6511-.651h59.6911a.651.651,0,0,1,.6509.651h0A.6509.6509,0,0,1,277.9253,108.5186Z"/><path className="cls-5" d="M272.2517,111.3592H218.2341a.651.651,0,0,1-.651-.6509h0a.651.651,0,0,1,.651-.651h54.0176a.651.651,0,0,1,.6509.651h0A.6509.6509,0,0,1,272.2517,111.3592Z"/><path className="cls-5" d="M277.9253,114.2H218.2342a.651.651,0,0,1-.6511-.6509h0a.651.651,0,0,1,.6511-.651h59.6911a.651.651,0,0,1,.6509.651h0A.6509.6509,0,0,1,277.9253,114.2Z"/><path className="cls-14" d="M277.5728,129.2885H218.587a1.0038,1.0038,0,0,1-1.0038-1.0038v-3.6868a1.0038,1.0038,0,0,1,1.0038-1.0038h58.9858a1.0038,1.0038,0,0,1,1.0038,1.0038v3.6868A1.0038,1.0038,0,0,1,277.5728,129.2885Z"/><path className="cls-5" d="M277.9253,133.5959H218.2342a.651.651,0,0,1-.6511-.6509h0a.651.651,0,0,1,.6511-.651h59.6911a.651.651,0,0,1,.6509.651h0A.6509.6509,0,0,1,277.9253,133.5959Z"/><path className="cls-5" d="M272.2517,136.4365H218.2341a.651.651,0,0,1-.651-.651h0a.651.651,0,0,1,.651-.651h54.0176a.651.651,0,0,1,.6509.651h0A.6509.6509,0,0,1,272.2517,136.4365Z"/><path className="cls-5" d="M277.9253,139.2771H218.2342a.651.651,0,0,1-.6511-.6509h0a.651.651,0,0,1,.6511-.651h59.6911a.651.651,0,0,1,.6509.651h0A.6509.6509,0,0,1,277.9253,139.2771Z"/><path className="cls-17" d="M203.6235,113.9817a7.6235,7.6235,0,1,1,7.6234-7.6235A7.6323,7.6323,0,0,1,203.6235,113.9817Z"/><path className="cls-10" d="M202.6309,109.7626a.7309.7309,0,0,1-.5185-.2148l-2.52-2.52a.7333.7333,0,0,1,1.0371-1.037l2.0014,2.0014,3.9861-3.9862a.7333.7333,0,1,1,1.037,1.037l-4.5047,4.5047A.7309.7309,0,0,1,202.6309,109.7626Z"/><path className="cls-27" d="M204.5272,139.059a7.6235,7.6235,0,1,1,7.6234-7.6235A7.6322,7.6322,0,0,1,204.5272,139.059Z"/><path className="cls-10" d="M203.5346,134.84a.7309.7309,0,0,1-.5185-.2148l-2.52-2.52a.7333.7333,0,1,1,1.037-1.037l2.0014,2.0014,3.9861-3.9862a.7333.7333,0,1,1,1.0371,1.037l-4.5047,4.5047A.7313.7313,0,0,1,203.5346,134.84Z"/><path className="cls-18" d="M247.377,55.3173A7.6235,7.6235,0,1,1,255,47.6938,7.6322,7.6322,0,0,1,247.377,55.3173Z"/><path className="cls-10" d="M246.3844,51.0982a.7309.7309,0,0,1-.5185-.2148l-2.52-2.52a.7333.7333,0,0,1,1.037-1.037l2.0015,2.0014,3.9861-3.9862a.7333.7333,0,0,1,1.037,1.037l-4.5047,4.5047A.7306.7306,0,0,1,246.3844,51.0982Z"/><path className="cls-28" d="M146.8058,129.1829a.8535.8535,0,0,1,.0625-.1108l12.0608-17.7161a.7469.7469,0,0,1,.5537-.3234l4.537-.3845a.8847.8847,0,0,1,.8666.7611.7568.7568,0,0,1-.002.13.7488.7488,0,0,0-.2145-.0163l-4.5371.3845a.7466.7466,0,0,0-.5536.3233l-11.3911,16.7324a.8133.8133,0,0,1,.0689.0755.8527.8527,0,1,1-1.5178.3432c.0037-.0211.01-.042.0155-.0629.0071-.0254.0137-.0508.0231-.0755C146.7858,129.2225,146.7959,129.2028,146.8058,129.1829Z"/><path className="cls-28" d="M161.7715,117.25h0a1.71,1.71,0,0,0,2.3687-.4482l5.02-7.3635a1.71,1.71,0,0,0-.4483-2.3686h0a1.71,1.71,0,0,0-2.3687.4482l-5.02,7.3634A1.71,1.71,0,0,0,161.7715,117.25Z"/><path className="cls-29" d="M133.0782,159.3381l1.477,1.007c-1.6326,1.9333-1.8074,1.6983-3.1894,3.2023-1.4054,1.5295-2.5024.8176-1.6027-1.03s.625-1.9406,1.8383-4.1857Z"/><path className="cls-10" d="M133.0782,159.3381l1.0144.6915c.2428.1656.2038.622-.0815.9574a55.9828,55.9828,0,0,1-4.766,4.7923c-.5055.5111-1.0529.1378-.7619-.5195a55.9631,55.9631,0,0,1,2.7195-6.1875c.2078-.3881.6185-.5911.8614-.4256Z"/><path className="cls-28" d="M165.941,108.7283l2.2393,1.5267a1.87,1.87,0,0,1,.239,2.6017L152.258,136.5628s-13.92,20.0048-20.844,27.77l-1.1883-.81-1.1883-.81c4.6981-9.2827,18.2331-29.55,18.2331-29.55l16.1613-23.7061A1.87,1.87,0,0,1,165.941,108.7283Z"/><path className="cls-30" d="M165.941,108.7283l1.1362.7746-36.835,54.0309-.0165-.0112-1.1883-.81c4.6981-9.2827,18.2331-29.55,18.2331-29.55l16.1613-23.7061A1.87,1.87,0,0,1,165.941,108.7283Z"/><rect className="cls-31" x="150.6389" y="128.7015" width="2.536" height="6.0362" transform="translate(-42.4955 183.037) rotate(-55.7162)"/><rect className="cls-10" x="149.4003" y="129.3562" width="2.5359" height="3.0381" transform="translate(-42.3388 181.6448) rotate(-55.7161)"/><path className="cls-32" d="M131.2017,162.0911l1.3553.924c-.3977.4691-.78.911-1.1432,1.3175l-1.1881-.81-1.1883-.81c.246-.4861.5176-1.0038.8087-1.5455Z"/><path className="cls-31" d="M136.5931,158.01l-3.5628-2.429q.636-1.0712,1.3072-2.1782l3.8056,2.5944Q137.36,157.0243,136.5931,158.01Z"/><path className="cls-10" d="M134.3376,153.4029l1.9191,1.3083-1.4286,2.0955-1.7977-1.2256Q133.6664,154.51,134.3376,153.4029Z"/><path className="cls-30" d="M165.941,108.7283l2.2392,1.5265a1.87,1.87,0,0,1,.2392,2.6019l-.8437,1.2376a1.87,1.87,0,0,0-.2392-2.6019l-2.2391-1.5265a1.87,1.87,0,0,0-2.5092.7281l.8437-1.2375A1.87,1.87,0,0,1,165.941,108.7283Z"/></svg>