<?xml version="1.0" encoding="utf-8"?>
<!-- Generator: Adobe Illustrator 25.4.1, SVG Export Plug-In . SVG Version: 6.00 Build 0)  -->
<svg version="1.1" id="Layer_1" xmlns="http://www.w3.org/2000/svg" xmlns:xlink="http://www.w3.org/1999/xlink" x="0px" y="0px"
	 viewBox="0 0 368 200" style="enable-background:new 0 0 368 200;" xml:space="preserve">
<rect x="-0.0159" y="-0.0034" style="fill:#B3E8E4;" width="368.0317" height="200.0068"/>
<polygon style="fill:#404041;" points="261.858,197.655 218.341,197.655 223.7,157.552 256.499,157.552 "/>
<path style="fill:#6D6E70;" d="M267.1254,193.5708h-54.0518c-3.6776,0.0108-6.6561,2.9893-6.6669,6.6669h67.3855
	C273.7815,196.5602,270.8029,193.5816,267.1254,193.5708z"/>
<polygon style="fill:#0D0F22;" points="221.368,175.004 258.831,175.004 257.318,163.679 222.881,163.679 "/>
<path style="fill:#404041;" d="M156.2219,40.3732h167.7552c3.3047,0,5.9836,2.6789,5.9836,5.9836v116.7596
	c0,3.3047-2.679,5.9836-5.9836,5.9836H156.2219c-3.3047,0-5.9836-2.6789-5.9836-5.9836V46.3568
	C150.2383,43.0521,152.9172,40.3732,156.2219,40.3732z"/>
<rect x="156.1798" y="46.3148" style="fill:#D8D8D8;" width="167.8399" height="116.8434"/>
<rect x="133.5684" y="124.4333" style="fill:#9BD9EB;" width="44.2923" height="11.1992"/>
<rect x="138.4741" y="104.1482" style="fill:#F6F6F6;" width="34.481" height="36.3647"/>
<polygon style="fill:#C9E5FB;" points="155.715,134.68 133.568,124.433 133.568,146.832 155.715,146.832 "/>
<polygon style="fill:#C9E5FB;" points="177.861,124.433 155.715,134.68 155.715,146.832 177.861,146.832 "/>
<path style="fill:#A0D1F9;" d="M157.1778,135.0708c-0.906-0.5209-2.0205-0.5209-2.9265,0l-20.6829,11.7609h44.2923
	L157.1778,135.0708z"/>
<path style="fill:#D8D8D8;" d="M161.5505,115.4774h-11.6718c-0.4645,0-0.841-0.3765-0.841-0.841v0l0,0
	c0-0.4644,0.3765-0.8409,0.8409-0.8409c0,0,0.0001,0,0.0001,0h11.6718c0.4644,0,0.8409,0.3765,0.8409,0.8409l0,0
	C162.3914,115.1008,162.015,115.4773,161.5505,115.4774C161.5506,115.4774,161.5505,115.4774,161.5505,115.4774z"/>
<path style="fill:#D8D8D8;" d="M166.4844,119.1469h-21.54c-0.4644,0-0.8409-0.3765-0.8409-0.8409l0,0
	c-0.0001-0.4644,0.3764-0.841,0.8408-0.841c0,0,0.0001,0,0.0001,0h21.54c0.4644,0,0.8409,0.3765,0.8409,0.8409
	c0,0,0,0.0001,0,0.0001l0,0C167.3253,118.7704,166.9488,119.1469,166.4844,119.1469z"/>
<path style="fill:#D8D8D8;" d="M166.4844,122.8165h-21.54c-0.4644,0-0.8409-0.3765-0.8409-0.8409c0,0,0-0.0001,0-0.0001l0,0
	c-0.0001-0.4644,0.3764-0.841,0.8408-0.841c0,0,0.0001,0,0.0001,0h21.54c0.4644,0.0001,0.8409,0.3766,0.8409,0.841l0,0
	C167.3253,122.4399,166.9488,122.8164,166.4844,122.8165z"/>
<path style="fill:#D8D8D8;" d="M166.4844,126.486h-21.54c-0.4644,0-0.8409-0.3765-0.8409-0.8409c0,0,0-0.0001,0-0.0001l0,0
	c0-0.4644,0.3765-0.8409,0.8409-0.8409h21.54c0.4644,0,0.8409,0.3765,0.8409,0.8409l0,0c0.0001,0.4644-0.3764,0.841-0.8408,0.841
	C166.4845,126.486,166.4844,126.486,166.4844,126.486z"/>
<path style="fill:#F26B1F;" d="M173.8739,114.8678c-4.9292,0-8.9251-3.9959-8.9251-8.9251s3.9959-8.9251,8.9251-8.9251
	c4.9292,0,8.9251,3.9959,8.9251,8.9251c0,0,0,0,0,0C182.7934,110.8696,178.8008,114.8622,173.8739,114.8678z"/>
<path style="fill:#F4F4F4;" d="M172.7118,109.9283c-0.2277,0.0003-0.4462-0.0902-0.607-0.2514l-2.95-2.95
	c-0.3352-0.3352-0.3352-0.8788,0-1.214c0.3352-0.3352,0.8788-0.3352,1.214,0l2.3432,2.3431l4.6667-4.6667
	c0.3359-0.3346,0.8795-0.3335,1.2141,0.0025c0.3336,0.335,0.3336,0.8767,0,1.2116l-5.2738,5.2738
	C173.1581,109.8384,172.9396,109.9287,172.7118,109.9283z"/>
<path style="fill:#F6F6F6;" d="M195.8479,97.0413h154.4944c1.2356,0,2.2373,1.0017,2.2373,2.2373l0,0v45.78
	c0,1.2356-1.0016,2.2372-2.2372,2.2372l0,0H195.8479c-1.2356,0-2.2373-1.0017-2.2373-2.2373c0,0,0,0,0,0v-45.78
	C193.6107,98.0429,194.6123,97.0413,195.8479,97.0413z"/>
<path style="fill:#66BBD3;" d="M246.006,104.5731h95.9664c0.9019,0,1.6331,0.7312,1.6331,1.6331v8.9982
	c0,0.9019-0.7311,1.6331-1.6331,1.6331H246.006c-0.9019,0-1.6331-0.7312-1.6331-1.6331v-8.9982
	C244.3729,105.3043,245.1041,104.5731,246.006,104.5731z"/>
<path style="fill:#D8D8D8;" d="M342.5459,123.8454h-97.114c-0.5849,0-1.059-0.4741-1.059-1.059l0,0l0,0
	c0-0.5849,0.4741-1.0591,1.059-1.0592l0,0h97.114c0.5849,0.0001,1.0591,0.4743,1.059,1.0592l0,0
	C343.6049,123.3713,343.1308,123.8454,342.5459,123.8454z"/>
<path style="fill:#D8D8D8;" d="M333.3154,128.4669h-87.8835c-0.5849,0-1.059-0.4741-1.059-1.059c0,0,0-0.0001,0-0.0001l0,0
	c-0.0001-0.5849,0.474-1.059,1.0589-1.0591c0,0,0.0001,0,0.0001,0h87.8835c0.5849,0,1.059,0.4741,1.059,1.059c0,0,0,0.0001,0,0.0001
	l0,0C334.3745,127.9927,333.9004,128.4668,333.3154,128.4669C333.3155,128.4669,333.3154,128.4669,333.3154,128.4669z"/>
<path style="fill:#D8D8D8;" d="M342.5459,133.0883h-97.114c-0.5849,0-1.059-0.4741-1.059-1.059c0,0,0,0,0,0l0,0
	c-0.0001-0.5849,0.474-1.059,1.0589-1.0591c0,0,0.0001,0,0.0001,0h97.114c0.5849,0,1.059,0.4741,1.059,1.059c0,0,0,0.0001,0,0.0001
	l0,0C343.6049,132.6142,343.1308,133.0883,342.5459,133.0883z"/>
<path style="fill:#D8D8D8;" d="M333.3154,137.71h-87.8835c-0.5849,0-1.059-0.4741-1.059-1.059c0,0,0,0,0,0l0,0
	c-0.0001-0.5849,0.474-1.059,1.0589-1.0591c0,0,0.0001,0,0.0001,0h87.8835c0.5849,0,1.059,0.4741,1.059,1.059c0,0,0,0.0001,0,0.0001
	l0,0C334.3744,137.2359,333.9003,137.71,333.3154,137.71z"/>
<path style="fill:#F4F4F4;" d="M230.5081,133.4124c-0.0169-0.1372-0.0364-0.2738-0.0575-0.41
	c-0.1531-1.1113-0.4765-2.1923-0.9589-3.2051c-0.4709-1.2123-1.4771-2.1379-2.7244-2.5062c-0.2294-0.0485-0.4574-0.1035-0.6852-0.16
	c-0.7629-0.1879-1.522-0.3962-2.27-0.64c-0.303-0.099-0.5929-0.234-0.8637-0.4022c-0.039-0.0242-0.0777-0.0487-0.1161-0.0734
	c-0.9153-0.5882-1.7328-1.3395-1.45-2.5259c0.2194-0.5377,0.5335-1.0317,0.9275-1.4584c0.34-0.5107,0.636-1.0493,0.8848-1.61
	c0.0463-0.1035,0.0863-0.2086,0.1267-0.3138c0.6233,0.3444,1.094-1.9972,1.094-1.9972c0.4035-1.9117-0.1784-1.9725-0.4862-1.8887
	c-0.0337-4.43-1.9372-6.1289-5.0357-6.1289s-5.002,1.699-5.0357,6.1289c-0.3079-0.0838-0.89-0.023-0.4863,1.8887
	c0,0,0.4708,2.3416,1.0941,1.9972c0.04,0.1052,0.08,0.21,0.1266,0.3138c0.249,0.5607,0.545,1.0993,0.8849,1.61
	c0.394,0.4267,0.7081,0.9206,0.9274,1.4584c0.2828,1.1864-0.5346,1.9377-1.45,2.5259c-0.0384,0.0248-0.0771,0.0493-0.1162,0.0734
	c-0.2707,0.1682-0.5607,0.3032-0.8636,0.4022c-0.7484,0.2434-1.5076,0.4517-2.27,0.64c-0.2278,0.0561-0.4557,0.1111-0.6852,0.16
	c-1.2473,0.3683-2.2534,1.2939-2.7244,2.5062c-0.4823,1.0128-0.8057,2.0938-0.9588,3.2051c-0.0211,0.136-0.0406,0.2726-0.0575,0.41
	c-0.0555,0.3999,0.2236,0.7691,0.6235,0.8246c0.0271,0.0038,0.0544,0.006,0.0818,0.0067h21.82
	c0.4036-0.011,0.7218-0.3471,0.7108-0.7507C230.514,133.466,230.5118,133.4391,230.5081,133.4124z"/>
<rect x="239.8677" y="126.2562" transform="matrix(0.7754 -0.6315 0.6315 0.7754 -36.87 186.7386)" style="fill:#0B5FA4;" width="8.3656" height="37.8775"/>
<ellipse transform="matrix(0.1484 -0.9889 0.9889 0.1484 70.7266 328.6057)" style="fill:#082354;" cx="226.1649" cy="123.2362" rx="31.4034" ry="31.4034"/>
<circle style="fill:#F4F4F4;" cx="226.1648" cy="123.2364" r="25.6789"/>
<path style="fill:#C9E5FB;" d="M248.9048,163.728l17.2213,21.0552c2.7659,3.3959,7.761,3.9066,11.1569,1.1407
	c3.3959-2.7659,3.9066-7.761,1.1407-11.1569l-16.9887-20.7708l-6.2574-0.3949l-6.251,5.0913L248.9048,163.728z"/>
<path style="fill:#F4F4F4;" d="M247.3166,160.0038c-0.4821,0.393-0.5543,1.1024-0.1613,1.5845
	c0.0004,0.0005,0.0009,0.0011,0.0013,0.0016l18.97,23.1933c2.7659,3.3959,7.761,3.9066,11.1569,1.1407
	c3.3959-2.7659,3.9066-7.761,1.1407-11.1569l0,0l-18.9735-23.197c-0.3932-0.4806-1.1013-0.5522-1.5827-0.16L247.3166,160.0038z"/>
<path style="fill:#D8D8D8;" d="M278.7779,184.3c0.06-0.0868,0.1191-0.174,0.1756-0.2631c0.0775-0.1219,0.15-0.2459,0.22-0.3715
	c0.05-0.09,0.1013-0.1791,0.148-0.2706c0.0674-0.1321,0.128-0.2667,0.1877-0.4019c0.039-0.0884,0.0805-0.176,0.1161-0.2656
	c0.06-0.15,0.1111-0.3035,0.1618-0.457c0.0254-0.0774,0.0551-0.1535,0.0782-0.2318c0.0672-0.2273,0.125-0.4569,0.1718-0.6889
	l0.004-0.0162c0.0475-0.2374,0.0824-0.4773,0.108-0.718c0.0085-0.0789,0.01-0.1582,0.0163-0.2373
	c0.0124-0.1623,0.024-0.3248,0.0266-0.4878c0.0015-0.095-0.003-0.1894-0.0049-0.2842c-0.0028-0.148-0.0068-0.2956-0.0179-0.4433
	c-0.0076-0.1007-0.02-0.2005-0.0311-0.3009c-0.016-0.1421-0.0345-0.2836-0.0583-0.425c-0.0172-0.1021-0.0373-0.2035-0.0585-0.305
	c-0.0291-0.139-0.0619-0.2773-0.0984-0.4148c-0.0269-0.1-0.0547-0.2005-0.0855-0.3c-0.0426-0.1383-0.0906-0.2748-0.1411-0.4108
	c-0.0357-0.0964-0.0707-0.1927-0.11-0.2879c-0.0579-0.1394-0.1231-0.2762-0.1894-0.4128c-0.043-0.0884-0.0832-0.1775-0.13-0.2647
	c-0.079-0.1483-0.1674-0.2931-0.2568-0.4374c-0.0441-0.0712-0.0836-0.1444-0.13-0.2145c-0.1411-0.2124-0.292-0.4206-0.4562-0.6223
	L259.4507,151.57c-0.3932-0.4807-1.1013-0.5523-1.5828-0.16l-4.4428,3.6185l0,0l-0.8747,0.7125l0.7142,0.8732l0,0l9.6389,11.7863
	l14.3478,17.5441c0.01-0.0081,0.0215-0.0128,0.0317-0.0211c0.3294-0.272,0.636-0.5705,0.9168-0.8924h0.0128
	c0.038-0.0431,0.07-0.0894,0.1076-0.1334c0.0693-0.0817,0.1355-0.1648,0.2009-0.249
	C278.6102,184.5346,278.6958,184.4184,278.7779,184.3z"/>
<path style="fill:#02B2A6;" d="M226.1648,142.8c-10.8049,0-19.5641-8.7592-19.5641-19.5641s8.7592-19.5641,19.5641-19.5641
	c10.805,0,19.5641,8.7591,19.5641,19.5641C245.7166,134.0357,236.9646,142.7877,226.1648,142.8z"/>
<path style="fill:#F6F6F6;" d="M129.3748,53.798h197.586c7.5311,0,13.6362,6.1051,13.6362,13.6362v1.2145
	c0,7.5311-6.1051,13.6362-13.6362,13.6362h-197.586c-7.5311,0-13.6362-6.1051-13.6362-13.6362v-1.2145
	C115.7386,59.9031,121.8437,53.798,129.3748,53.798z"/>
<path style="fill:#006A88;" d="M327.0918,82.2849L327.0918,82.2849c-7.8132-0.0535-14.1039-6.4302-14.0511-14.2434l0,0
	c-0.0528-7.8132,6.2379-14.19,14.0511-14.2435l0,0c7.8132,0.0535,14.1039,6.4302,14.0511,14.2434l0,0
	C341.1957,75.8546,334.905,82.2314,327.0918,82.2849z"/>
<path style="fill:#F4F4F4;" d="M333.2409,73.1765l-3.2358-3.28c1.5862-2.0306,1.2258-4.9626-0.8048-6.5487
	c-2.0306-1.5861-4.9626-1.2258-6.5487,0.8048c-1.5862,2.0306-1.2258,4.9626,0.8048,6.5487c0.8245,0.644,1.8415,0.9922,2.8876,0.9887
	c1.0602-0.0001,2.0882-0.365,2.9111-1.0335l3.2358,3.28c0.2031,0.2071,0.5356,0.2104,0.7427,0.0073
	c0.0025-0.0024,0.0049-0.0048,0.0073-0.0073C333.4479,73.7255,333.4479,73.3875,333.2409,73.1765z M322.724,66.9452
	c0.0276-1.9991,1.6706-3.5973,3.6696-3.5697s3.5973,1.6706,3.5697,3.6697c-0.0273,1.9794-1.6397,3.5698-3.6193,3.57
	C324.3318,70.5992,322.7124,68.9574,322.724,66.9452z"/>
<path style="fill:#082354;" d="M141.7163,63.7854l-3.0078,9.2846H137.27l-2.1054-6.9043L133.02,73.07h-1.4248l-3.0078-9.2842h1.9219
	l1.8574,6.3809l2.0137-6.3809h1.7396l1.9482,6.3027l1.8965-6.3027L141.7163,63.7854z"/>
<path style="fill:#082354;" d="M142.07,69.761c-0.0851-1.9826,1.4531-3.6588,3.4357-3.7439s3.6588,1.4531,3.7439,3.4357
	c0.0851,1.9826-1.4531,3.6588-3.4357,3.7439c-0.0536,0.0023-0.1073,0.0034-0.161,0.0033c-1.8662,0.1096-3.468-1.3143-3.5776-3.1806
	C142.0703,69.9334,142.0685,69.8472,142.07,69.761z M147.5622,69.7483c-0.0249-1.0508-0.8969-1.8825-1.9477-1.8577
	s-1.8825,0.8969-1.8577,1.9477c0.0244,1.0308,0.8652,1.8547,1.8962,1.8582c1.0038,0.0517,1.8595-0.7202,1.9112-1.724
	c0.0038-0.0747,0.0031-0.1496-0.0023-0.2242H147.5622z"/>
<path style="fill:#082354;" d="M154.6626,67.8782H154.44c-0.8447-0.0407-1.6556,0.3356-2.17,1.0068v4.185h-1.6084v-6.6176h1.6084
	v1.0859c0.3575-0.7261,1.1138-1.1687,1.9219-1.125h0.2354L154.6626,67.8782z"/>
<path style="fill:#082354;" d="M158.8081,71.4221l-0.9287-1.2031h-0.51v2.851h-1.6211v-9.834h1.6217v5.7676h0.51l1.9883-2.5508h1.83
	l-2.3662,3.0869l0.6923,0.8623c0.6807,0.8506,1.1377,1.2031,1.9483,1.2031l-0.2354,1.5176
	C160.2984,73.1223,159.6968,72.56,158.8081,71.4221z"/>
<path style="fill:#082354;" d="M163.398,67.9045h-1.1641v-1.4521h1.1641v-0.2607c0-2.0147,1.1377-3.0215,3.164-3.0215h0.1309
	l0.209,1.4648h-0.3008c-0.7719-0.0944-1.4741,0.4548-1.5685,1.2267c-0.0139,0.1138-0.0139,0.2288,0.0001,0.3426v0.2481h1.6338
	v1.4521h-1.6338V73.07h-1.6347V67.9045z"/>
<path style="fill:#082354;" d="M167.1773,69.761c-0.0851-1.9826,1.4531-3.6588,3.4357-3.7439s3.6588,1.4531,3.7439,3.4357
	c0.0851,1.9826-1.4531,3.6588-3.4357,3.7439c-0.0537,0.0023-0.1075,0.0034-0.1612,0.0033
	c-1.8662,0.1096-3.4678-1.3144-3.5774-3.1806C167.1775,69.9334,167.1758,69.8472,167.1773,69.761z M172.6695,69.7483
	c-0.0248-1.0509-0.8968-1.8827-1.9477-1.8579s-1.8827,0.8968-1.8579,1.9477c0.0243,1.0309,0.8652,1.8549,1.8963,1.8584
	c1.0038,0.0521,1.8598-0.7194,1.9119-1.7232c0.0039-0.075,0.0031-0.1501-0.0022-0.225H172.6695z"/>
<path style="fill:#082354;" d="M179.77,67.8782h-0.2226c-0.8447-0.0407-1.6556,0.3355-2.17,1.0068v4.185h-1.6084v-6.6176h1.6084
	v1.0859c0.3574-0.7261,1.1137-1.1688,1.9218-1.125h0.2354L179.77,67.8782z"/>
<path style="fill:#082354;" d="M180.189,69.7346c-0.1022-1.7828,1.2601-3.3109,3.0429-3.4131c0.1233-0.0071,0.2469-0.0071,0.3702,0
	c1.0635-0.0097,2.0702,0.4793,2.72,1.3213l-1.0586,1.0459c-0.3496-0.551-0.9558-0.8859-1.6084-0.8886
	c-0.9877,0.008-1.7819,0.8151-1.7739,1.8028c0.0004,0.0528,0.0032,0.1055,0.0083,0.1581c-0.0436,1.0214,0.749,1.8848,1.7704,1.9284
	c0.0811,0.0035,0.1624,0.0016,0.2433-0.0056c0.6914-0.0044,1.3689-0.1944,1.9619-0.55l0.4179,1.4121
	c-0.7547,0.4483-1.6204,0.675-2.498,0.6543c-1.8292,0.1525-3.4356-1.2068-3.5881-3.036
	C180.185,70.0213,180.1824,69.8778,180.189,69.7346z"/>
<path style="fill:#082354;" d="M193.606,70.219h-4.746c0.0986,0.986,0.9779,1.7054,1.964,1.6068
	c0.0297-0.003,0.0593-0.0067,0.0887-0.0111c0.7025,0.0114,1.3988-0.1316,2.04-0.4189l0.3525,1.2949
	c-0.7798,0.3667-1.636,0.5416-2.4971,0.51c-1.8421,0.1461-3.4539-1.2287-3.6-3.0708c-0.0094-0.118-0.0125-0.2365-0.0093-0.3549
	c-0.1389-1.7633,1.1781-3.3054,2.9414-3.4442c0.1091-0.0086,0.2187-0.0116,0.3281-0.009c1.791,0,3.1377,1.295,3.1377,3.6485
	L193.606,70.219z M191.946,69.0549c-0.0244-0.8036-0.6737-1.4473-1.4775-1.4648c-0.8222,0.0177-1.5017,0.6465-1.583,1.4648H191.946z
	"/>
<path style="fill:#082354;" d="M201.0864,70.9251h-3.6484l-0.7588,2.1445h-1.791l3.4522-9.2842h1.9096l3.4522,9.2842h-1.87
	L201.0864,70.9251z M200.5894,69.5129l-1.32-3.7929l-1.334,3.7929H200.5894z"/>
<path style="fill:#082354;" d="M210.645,66.44v6.63h-1.6338v-0.811c-0.5434,0.6114-1.3266,0.9553-2.1445,0.9414
	c-1.6347,0-2.498-1.0332-2.498-2.7988V66.44h1.6347v3.7266c0,1.02,0.4707,1.5693,1.3594,1.5693
	c0.6493-0.0326,1.2518-0.3481,1.6484-0.8633V66.44H210.645z"/>
<path style="fill:#082354;" d="M211.9927,72.5334l0.5752-1.2294c0.6155,0.3864,1.326,0.5946,2.0527,0.6015
	c0.667,0,1.0723-0.248,1.0723-0.68c0-0.4443-0.418-0.6142-1.4385-0.9023c-1.0986-0.3135-1.9873-0.8106-1.9873-1.9873
	c0-1.2432,1.0195-2.0274,2.419-2.0274c0.9163-0.0595,1.8042,0.3307,2.38,1.0459l-1.0332,0.8243
	c-0.3292-0.4058-0.8241-0.6412-1.3466-0.6407c-0.4571,0-0.8233,0.209-0.8233,0.6143c0,0.458,0.51,0.6406,1.4776,0.9414
	c1.1767,0.3662,1.9609,0.8369,1.9609,2.001c0,1.2812-0.9678,2.1054-2.6543,2.1054C213.7181,73.2247,212.8,72.9941,211.9927,72.5334z
	"/>
<path style="fill:#082354;" d="M219.0679,70.4016v-2.4971h-1.19v-1.4521h1.19l-0.0127-1.7647h1.6475v1.7647h1.8828v1.4521h-1.8828
	V70.18c0,1.0069,0.5361,1.4639,1.6611,1.4639h0.1172l-0.209,1.5039h-0.1436C220.0357,73.1477,219.0679,72.2981,219.0679,70.4016z"/>
<path style="fill:#082354;" d="M227.8023,67.8782H227.58c-0.8447-0.0407-1.6556,0.3355-2.17,1.0068v4.185h-1.6084v-6.6176h1.6084
	v1.0859c0.3574-0.7262,1.1137-1.1689,1.9219-1.125h0.2353L227.8023,67.8782z"/>
<path style="fill:#082354;" d="M235.8062,71.7493l-0.7324,1.4121c-0.6506-0.1485-1.1819-0.6159-1.4122-1.2422
	c-0.498,0.825-1.4041,1.3152-2.3671,1.2808c-1.6944,0.0114-3.0772-1.353-3.0885-3.0473c-0.0007-0.1091,0.0044-0.2181,0.0152-0.3267
	c-0.1009-1.833,1.3033-3.4007,3.1364-3.5016c0.0964-0.0053,0.1929-0.0064,0.2894-0.0033c0.6944-0.0015,1.3763,0.1837,1.9746,0.5362
	l0.0527-0.4053h1.4649v4.1064C235.0778,71.0584,235.3478,71.5404,235.8062,71.7493z M233.5171,69.6174v-1.4121
	c-0.5073-0.2569-1.0662-0.3954-1.6348-0.4052c-1.0295-0.063-1.9152,0.7205-1.9782,1.7501c-0.0056,0.092-0.0044,0.1844,0.0036,0.2762
	c-0.0866,0.9495,0.6129,1.7894,1.5623,1.876c0.0634,0.0058,0.127,0.0081,0.1907,0.0068c1.0502-0.0198,1.8854-0.8872,1.8656-1.9373
	C233.5253,69.7203,233.5223,69.6687,233.5171,69.6174z"/>
<path style="fill:#082354;" d="M237.022,70.4153v-7.18h1.6211v6.957c0,0.9805,0.5361,1.4512,1.543,1.4512l-0.1827,1.5176h-0.0527
	C237.937,73.1614,237.022,72.3108,237.022,70.4153z"/>
<path style="fill:#082354;" d="M241.0757,64.3342c-0.0035-0.5526,0.4417-1.0033,0.9942-1.0068s1.0033,0.4417,1.0068,0.9942
	c0.0035,0.5526-0.4417,1.0033-0.9942,1.0068c-0.0042,0-0.0084,0-0.0127,0c-0.5412,0.0078-0.9863-0.4245-0.9941-0.9657
	C241.0756,64.3532,241.0756,64.3437,241.0757,64.3342z M241.2329,66.4524h1.6211V73.07h-1.6211V66.4524z"/>
<path style="fill:#082354;" d="M251.8638,71.7493l-0.7324,1.4121c-0.6505-0.1485-1.1819-0.6159-1.4121-1.2422
	c-0.4981,0.825-1.4041,1.3152-2.3672,1.2808c-1.6944,0.0114-3.0772-1.353-3.0885-3.0473c-0.0007-0.1091,0.0044-0.2181,0.0152-0.3267
	c-0.1009-1.833,1.3033-3.4007,3.1364-3.5016c0.0964-0.0053,0.1929-0.0064,0.2894-0.0033c0.6944-0.0015,1.3763,0.1837,1.9746,0.5362
	l0.0528-0.4053h1.4648v4.1064C251.1355,71.0584,251.4054,71.5404,251.8638,71.7493z M249.5747,69.6174v-1.4121
	c-0.5073-0.2569-1.0662-0.3955-1.6347-0.4053c-1.0295-0.063-1.9151,0.7204-1.9782,1.7498
	c-0.0056,0.0921-0.0045,0.1845,0.0036,0.2765c-0.0867,0.9494,0.6127,1.7893,1.5621,1.876c0.0634,0.0058,0.1271,0.0081,0.1908,0.0068
	c1.0502-0.0198,1.8854-0.8872,1.8656-1.9373C249.5829,69.7202,249.5799,69.6687,249.5747,69.6174z"/>
<path style="fill:#082354;" d="M253.08,72.1409c0.0027-0.5911,0.4812-1.0696,1.0723-1.0723c0.5922,0,1.0723,0.4801,1.0723,1.0723
	c0,0.5922-0.4801,1.0723-1.0723,1.0723C253.5601,73.2132,253.08,72.7331,253.08,72.1409L253.08,72.1409z"/>
<path style="fill:#082354;" d="M263.5152,66.4524v6.12c0,2.2754-1.4258,3.3477-3.544,3.3477
	c-1.0589,0.0403-2.1097-0.1988-3.0469-0.6934l0.5752-1.3594c0.7579,0.4126,1.6089,0.6241,2.4717,0.6143
	c0.9586,0.0928,1.8109-0.6091,1.9037-1.5677c0.0085-0.0875,0.0103-0.1756,0.0055-0.2634v-0.7578
	c-0.5034,0.7502-1.3599,1.1856-2.2627,1.15c-1.6487,0.0274-3.0075-1.2869-3.0349-2.9357c-0.0019-0.1157,0.0029-0.2314,0.0144-0.3465
	c-0.1241-1.7716,1.2114-3.3084,2.983-3.4325c0.0996-0.007,0.1994-0.0093,0.2992-0.007c0.7497-0.0119,1.4834,0.2175,2.0928,0.6543
	l0.0654-0.5234L263.5152,66.4524z M261.92,69.7346v-1.4638c-0.4972-0.3624-1.0977-0.5552-1.7129-0.55
	c-1.0688-0.0087-1.9424,0.8507-1.9511,1.9196c-0.0003,0.0402,0.0006,0.0803,0.0028,0.1204c-0.0901,0.9388,0.598,1.7729,1.5368,1.863
	c0.0715,0.0069,0.1434,0.0092,0.2152,0.007c1.045,0.0094,1.8997-0.8301,1.9091-1.8751C261.92,69.7486,261.92,69.7416,261.92,69.7346
	z"/>
<path style="fill:#082354;" d="M264.9273,69.761c-0.0851-1.9826,1.4531-3.6588,3.4357-3.7439
	c1.9826-0.0851,3.6588,1.4531,3.7439,3.4357c0.0851,1.9826-1.4531,3.6588-3.4357,3.7439c-0.0537,0.0023-0.1075,0.0034-0.1612,0.0033
	c-1.8661,0.1096-3.4678-1.3144-3.5774-3.1805C264.9276,69.9334,264.9258,69.8472,264.9273,69.761z M270.4195,69.7483
	c-0.0248-1.0509-0.8968-1.8827-1.9477-1.8579c-1.0509,0.0248-1.8827,0.8968-1.8579,1.9477
	c0.0243,1.0309,0.8652,1.8549,1.8963,1.8584c1.0038,0.0521,1.8598-0.7193,1.912-1.7231c0.0039-0.075,0.0031-0.1502-0.0023-0.2251
	H270.4195z"/>
<path style="fill:#082354;" d="M279.3638,66.4524L276.67,73.07h-1.53l-2.7334-6.6172h1.8046l1.7266,4.5644l1.7393-4.5644
	L279.3638,66.4524z"/>
<path style="fill:#082354;" d="M279.7183,72.1409c0.0027-0.5911,0.4811-1.0696,1.0722-1.0723
	c0.5922-0.0001,1.0724,0.48,1.0724,1.0722c0.0001,0.5922-0.48,1.0723-1.0722,1.0724
	C280.1985,73.2133,279.7184,72.7332,279.7183,72.1409C279.7183,72.141,279.7183,72.1409,279.7183,72.1409z"/>
<path style="fill:#082354;" d="M290.8208,71.7493l-0.7324,1.4121c-0.6505-0.1485-1.1819-0.6159-1.4121-1.2422
	c-0.4981,0.825-1.4041,1.3152-2.3672,1.2808c-1.6944,0.0113-3.0771-1.353-3.0884-3.0474c-0.0007-0.1091,0.0043-0.2181,0.0152-0.3266
	c-0.1009-1.833,1.3033-3.4007,3.1364-3.5016c0.0963-0.0053,0.1929-0.0064,0.2893-0.0033c0.6944-0.0015,1.3764,0.1837,1.9746,0.5362
	l0.0528-0.4053h1.4648v4.1064C290.0925,71.0584,290.3624,71.5404,290.8208,71.7493z M288.5318,69.6174v-1.4121
	c-0.5073-0.2569-1.0662-0.3955-1.6348-0.4053c-1.0294-0.0631-1.9151,0.7204-1.9782,1.7498
	c-0.0056,0.0921-0.0045,0.1845,0.0036,0.2765c-0.0867,0.9494,0.6127,1.7893,1.5621,1.876c0.0634,0.0058,0.1271,0.0081,0.1908,0.0068
	c1.0503-0.0199,1.8856-0.8874,1.8657-1.9376C288.54,69.72,288.537,69.6686,288.5318,69.6174z"/>
<path style="fill:#082354;" d="M298.313,66.44v6.63h-1.6338v-0.811c-0.5434,0.6114-1.3266,0.9553-2.1445,0.9414
	c-1.6348,0-2.4981-1.0332-2.4981-2.7988V66.44h1.6348v3.7266c0,1.02,0.4707,1.5693,1.3594,1.5693
	c0.6493-0.0327,1.2517-0.3482,1.6484-0.8633V66.44H298.313z"/>
<path style="fill:none;stroke:#FFFFFF;stroke-linejoin:round;" d="M216.5434,123.5123v7.1541
	c0.0001,0.4624,0.3751,0.8372,0.8375,0.8371c0.0001,0,0.0001,0,0.0002,0h17.88c0.4623,0.0003,0.8372-0.3742,0.8375-0.8365
	c0-0.0002,0-0.0004,0-0.0006v-7.1541"/>
<rect x="224.6187" y="123.2741" style="fill:none;stroke:#FFFFFF;stroke-linejoin:round;" width="3.404" height="3.404"/>
<path style="fill:none;stroke:#FFFFFF;stroke-linejoin:round;" d="M222.9389,116.1688v-2.1307
	c2.2114-0.6235,4.5521-0.6237,6.7637-0.0007v2.1314"/>
<path style="fill:none;stroke:#FFFFFF;stroke-linejoin:round;" d="M224.6187,124.837c-2.7048-0.1285-5.3865-0.5621-7.994-1.2923
	c-0.3455-0.1353-0.5734-0.4678-0.5748-0.8389v-5.6342c0.0018-0.4983,0.4056-0.9016,0.9039-0.9028h18.7342
	c0.4981,0.0014,0.9015,0.4047,0.903,0.9028v5.6342c-0.0014,0.3709-0.229,0.7034-0.5743,0.8389
	c-2.6066,0.7352-5.2887,1.1703-7.994,1.2968"/>
<line style="fill:none;stroke:#FFFFFF;stroke-linecap:round;stroke-linejoin:round;" x1="225.9794" y1="124.9759" x2="226.6618" y2="124.9759"/>
<g>
	<defs>
		<rect id="SVGID_1_" x="-0.0159" y="-0.0034" width="142.8031" height="200.4928"/>
	</defs>
	<clipPath id="SVGID_00000146459382711149649520000012367506951624765111_">
		<use xlink:href="#SVGID_1_"  style="overflow:visible;"/>
	</clipPath>
	<path style="clip-path:url(#SVGID_00000146459382711149649520000012367506951624765111_);fill:#D8D8D8;" d="M44.0639,191.8005
		c0,0-31.28-12.9011-52.6864-13.702c-9.0266-0.3377-11.3128-3.1267-11.3128-3.1267c-2.827,7.5936-2.5795,15.0162,0.97,19.1271
		c0.852,2.2812,4.9509,5.13,7.3617,5.4949l21.5451,1.2235l12.1992,0.3536L44.0639,191.8005z"/>
	<path style="clip-path:url(#SVGID_00000146459382711149649520000012367506951624765111_);fill:#0B5FA4;" d="M79.1337,192.7223
		c0,0,9.5068,13.1717,14.37,46.0083c2.1771,14.7-27.2249-16.3772-27.2249-16.3772l-18.5115-13.3058l6.7489-15.6188L79.1337,192.7223
		z"/>
	<path style="clip-path:url(#SVGID_00000146459382711149649520000012367506951624765111_);fill:#C75528;" d="M34.669,88.05
		c0,0-14.6963-24.0916-9.1013-42.3962l15.7368,26.86C41.3045,72.5138,48.9058,87.0334,34.669,88.05"/>
	<path style="clip-path:url(#SVGID_00000146459382711149649520000012367506951624765111_);fill:#C75528;" d="M45.46,29.75
		c0,0,22.8826-3.3924,29.098,15.8192c5.1553,15.9291,6.7455,18.1,18.5559,36.04c21.5162,32.6946-18.4891,46.0637-18.4891,46.0637
		l-7.2088,1.5666c-29.3846-12.1245,0.11-7.0242-15.58-17.908L34.4428,99.9994L45.46,29.75z"/>
	<path style="clip-path:url(#SVGID_00000146459382711149649520000012367506951624765111_);fill:#D8D8D8;" d="M76.5315,109.3043
		c0,0-6.0269-15.1831-40.3548-22.0463c-17.1306-3.4277,4.0519,45.4473,4.0519,45.4473L76.5315,109.3043z"/>
	<path style="clip-path:url(#SVGID_00000146459382711149649520000012367506951624765111_);fill:#D8D8D8;" d="M50.4069,119.0821
		c0,0,18.5831,53.9679,35.0975,67.1559c16.51,13.1925,18.43-10.4126,18.43-10.4126L76.5327,109.31L50.4069,119.0821z"/>
	<path style="clip-path:url(#SVGID_00000146459382711149649520000012367506951624765111_);fill:#D8D8D8;" d="M16.4924,92.5593
		l18.1789-6.0583C34.6713,86.501,40.1093,104.931,16.4924,92.5593"/>
	<path style="clip-path:url(#SVGID_00000146459382711149649520000012367506951624765111_);fill:#983120;" d="M41.7391,72.89
		c0.9824-0.2743,1.942-0.6248,2.87-1.0483c2.3181-1.0496,3.3463-3.7796,2.2968-6.0976c-0.2146-0.4739-0.5079-0.9081-0.8675-1.2841
		c-0.8731-0.9127-1.6038-1.9518-2.1673-3.0822C43.8711,61.3778,35.8732,64.28,41.7391,72.89"/>
	<path style="clip-path:url(#SVGID_00000146459382711149649520000012367506951624765111_);fill:#0B5FA4;" d="M36.1433,262.37
		c0,0-47.0728-10.24-24.5592-55.6715l8.3-16.53l56.0386-1.2785c0,0,12.1644,6.27,19.9436,69.564
		C97.8308,274.4382,36.1433,262.37,36.1433,262.37z"/>
	<path style="clip-path:url(#SVGID_00000146459382711149649520000012367506951624765111_);fill:#C75528;" d="M44.6863,64.0129
		c0,0,1.0718,0.7107-1.0091-4.103s1.2446-2.9958,4.66-2.6267c3.4159,0.3652,1.39-2.2694,1.39-2.2694s16.1805-7.3579,10.6168-20.6172
		c-5.494-4.285-12.6927-5.7151-19.4074-3.8556C28.9377,33.8156,21.9685,46.6,25.3765,59.0933
		c3.4081,12.4975,13.0825,19.2154,25.0854,15.9409c-0.2359-1.2597-0.7993-2.4351-1.6334-3.4081
		C47.0443,69.3296,45.6453,66.7584,44.6863,64.0129"/>
	<path style="clip-path:url(#SVGID_00000146459382711149649520000012367506951624765111_);fill:#F19357;" d="M74.53,58.74
		c-1.0729-0.5981-2.0519-1.3508-2.9055-2.234c-2.984-3.2432-1.178-6.5649-3.3375-11.8811c-1.8414-4.5232-6.93-8.1315-8.4887-9.1248
		c-0.1492-0.09-0.2983-0.1728-0.4476-0.2592c-5.0963,9.4232-7.5424,21.9325-7.5424,21.9325s-2.4422-5.5754-6.84-3.7261
		c-3.1646,1.3271-4.1933,6.5452-1.3742,10.9663c1.0328,1.9633,3.3777,2.8346,5.4419,2.022c0,0,1.1033,7.1145,4.9275,8.583
		c1.9092,0.6375,3.8635,1.1309,5.8465,1.4762c4.2915,0.8324,8.3592,1.39,8.3592,1.39c3.0233,0.216,3.9616-1.2721,4.2208-2.5521
		c0.143-0.7833,0.0766-1.5905-0.1924-2.34l-0.5419-1.5705c0.0157,0.02,0.1532,0.0392,1.3468-0.7461
		c1.3781-0.8991-0.6557-2.8976-0.6557-2.8976c1.8493-0.4005,2.4225-1.7236,1.1425-2.6817c-0.7286-0.4979-0.9524-1.472-0.5143-2.238
		C76.7325,60.5735,74.53,58.74,74.53,58.74"/>
	<path style="clip-path:url(#SVGID_00000146459382711149649520000012367506951624765111_);fill:#F19357;" d="M60.4225,73.1146
		L52.4206,97.183L32.7733,87.1276c3.6319-4.6448,9.0188-18.78,8.9442-18.85c2.0574-5.8621,8.4691-1.9043,13.216,2.1044
		L60.4225,73.1146z"/>
	<path style="clip-path:url(#SVGID_00000146459382711149649520000012367506951624765111_);fill:#C75528;" d="M60.9114,34.1265
		c0,0,8.1157,5.5558-1.2172,13.0041c-3.5075,2.6975-6.1686,6.3437-7.6681,10.5068c0,0-1.4566-3.8949-4.4839-4.48
		c-3.0272-0.589,6.1447-20.9745,13.3692-19.031"/>
	<path style="clip-path:url(#SVGID_00000146459382711149649520000012367506951624765111_);fill:#BCBCBC;" d="M69.9722,145.2762
		l3.192-24.6573c0,0,9.2976,13.6322,10.46,22.0463c1.4683,10.6522-8.1242,31.6227-8.1242,31.6227
		c-6.49-7.5464-0.5772-21.9286-5.5282-29.0117"/>
	<path style="clip-path:url(#SVGID_00000146459382711149649520000012367506951624765111_);fill:#D8D8D8;" d="M-3.9276,115.8232
		c0,0-19.667,48.875-17.7431,69.92c1.92,21.0451,20.28,6.0858,20.28,6.0858l26.9655-69.739L-3.9276,115.8232z"/>
	<path style="clip-path:url(#SVGID_00000146459382711149649520000012367506951624765111_);fill:#D8D8D8;" d="M16.4924,92.5593
		C9.17,95.8418-3.2021,95.084-16.8382,154.1674l24.7476,14.3939C12.35,156.429,20.12,141.8662,38.2286,101.72
		c0,0-10.4637-7.9077-21.7362-9.16"/>
	<path style="clip-path:url(#SVGID_00000146459382711149649520000012367506951624765111_);fill:#D8D8D8;" d="M20.5326,189.5165
		c0,0-22.808-75.1185,0.6754-95.4765c19.372-16.8008,34.2611,23.2713,40.3862,19.6787
		c0.3455-0.2041,15.2145,20.7585,17.5978,25.2031c0.491,0.9076,0.7992,1.9028,0.9069,2.9291
		c0.3534,3.4355,0.1885,11.0761-7.1576,15.9919l1.9474,30.6646C74.8887,188.5074,20.7687,189.9874,20.5326,189.5165"/>
	<path style="clip-path:url(#SVGID_00000146459382711149649520000012367506951624765111_);fill:#BCBCBC;" d="M17.6974,177.7945
		c-0.267-0.0982-4.582-20.5819-4.6174-21.6851l12.25-29.2119L17.6974,177.7945z"/>
	<polygon style="clip-path:url(#SVGID_00000146459382711149649520000012367506951624765111_);fill:#9DB2BA;" points="
		74.818,188.741 20.784,190.779 19.017,185.475 74.818,183.457 	"/>
	<path style="clip-path:url(#SVGID_00000146459382711149649520000012367506951624765111_);fill:#F19357;" d="M32.8075,87.1281
		l8.4141,12.9176c0.888,1.351,1.8846,2.6273,2.98,3.8164c8.261,8.901,22.4821,8.956,8.9442-9.3525l-1.5627,1.1936L32.8075,87.1281z"
		/>
	<path style="clip-path:url(#SVGID_00000146459382711149649520000012367506951624765111_);fill:#F8A88B;" d="M3.43,200.363
		l46.3719,1.23l-0.2813-9.8055c0,0-34.3021-9.9509-44.7061-10.9484c-10.4045-0.9945-4.0666,1.9446-4.0666,1.9446
		s-4.68,5.3623-2.8288,11.1384c0.4938,1.5307,0.6963,5.983,5.5107,6.4409"/>
	<path style="clip-path:url(#SVGID_00000146459382711149649520000012367506951624765111_);fill:#D8D8D8;" d="M-5.73,181.0641
		c0,0-13.057,11.6859-8.9032,17.1012c1.8585,2.4244,9.1936,2.4752,13.6136,2.652c9.2436,0.37,22.2768,0,22.2768,0l3.3592-16.6192
		l-22.15-5.124L-5.73,181.0641z"/>
	<polygon style="clip-path:url(#SVGID_00000146459382711149649520000012367506951624765111_);fill:#454F57;" points="
		20.975,186.176 105.939,186.176 106.339,182.417 42.786,182.417 	"/>
	<polygon style="clip-path:url(#SVGID_00000146459382711149649520000012367506951624765111_);fill:#0D0F22;" points="
		52.747,186.283 106.254,186.283 122.122,139.609 68.615,139.609 	"/>
	<polygon style="clip-path:url(#SVGID_00000146459382711149649520000012367506951624765111_);fill:#0D0F22;" points="20.975,189.9 
		105.939,189.9 106.339,186.145 20.975,186.145 	"/>
	<path style="clip-path:url(#SVGID_00000146459382711149649520000012367506951624765111_);fill:#454F57;" d="M87.31,163.6952
		c-0.1528,1.4077,0.8646,2.6728,2.2723,2.8256c1.4077,0.1528,2.6728-0.8646,2.8256-2.2723c0.1337-1.2321-0.633-2.3835-1.8215-2.7352
		C89.0817,161.2238,87.623,162.1952,87.31,163.6952"/>
	<path style="clip-path:url(#SVGID_00000146459382711149649520000012367506951624765111_);fill:#F8A88B;" d="M47.641,200.9982
		c2.4499,0.9371,5.1579,0.9464,7.6142,0.0261c5.4654-2.2567,11.5293-4.3173,11.5293-4.3173S77.8,191.9024,77.98,189.7241
		c0.18-2.1816-2.0573-0.834-2.0573-0.834s-8.2126,4.37-9.0794,3.7613c-0.3107-0.2192,0.1864,0.0915,0.1864,0.0915
		s9.3117-5.05,10.9241-9.0173c0,0,0.2454-2.7964-2.5936-0.4873c-3.1852,2.3016-6.4958,4.4242-9.9167,6.3582l-0.1636-0.448
		c0,0,12.1114-7.4213,12.0427-10.1981c-0.072-2.77-4.1309,0.18-4.1309,0.18s-5.9559,5.4228-9.37,7.0091l-0.3467-0.0458
		c0,0,8.8276-6.8292,9.4523-9.06c0.6279-2.2306-0.0589-2.489-1.1545-1.6157c-1.099,0.87-9.6159,7.3525-11.333,7.7744
		c-0.8209,0.2028-4.7981,0.7981-6.0835,1.4064c-2.1573,1.3235-4.018,3.0783-5.4653,5.1546
		c-0.7392,1.8611-2.803,5.2331-2.9338,6.3779c-0.0426,0.36-0.1635-0.6771-0.2552-0.4317c-0.3663,0.9713-0.6083,0.2812-0.2714,1.1251
		c0,0,1.3377,3.8659,2.2109,4.1734"/>
	<path style="clip-path:url(#SVGID_00000146459382711149649520000012367506951624765111_);fill:#F8A88B;" d="M44.7553,191.9972
		c0,0,5.8317-9.4326,6.9047-11.0872c0.8297-1.1768,1.8156-2.2353,2.9306-3.1464c2.5805-1.6975,5.3737-3.2838,6.5936-5.691
		c0,0,2.5741,2.8291-1.1709,5.8807c-1.91,1.5568-4.278,6.5283-4.278,6.5283s-0.0981,2.3843,1.2853,1.619
		c0.2356-0.1309-9.9069,10.8292-9.9069,10.8292c-2.2763-1.0041-2.3582-4.9322-2.3582-4.9322"/>
</g>
</svg>
